<svg width="186" height="50" viewBox="0 0 186 50" fill="none" xmlns="http://www.w3.org/2000/svg">
<g clip-path="url(#clip0_110_278)">
<path fill-rule="evenodd" clip-rule="evenodd" d="M55.0486 37.0851V14.3579H57.9707L71.8595 32.6479V14.3579H74.6373V37.0851H71.7152L57.8264 18.6147V37.0851H55.0486ZM97.2564 36.1833C95.4165 36.8687 93.4324 37.2294 91.3401 37.2294C83.115 37.2294 79.0024 33.2973 79.0024 25.3968C79.0024 17.9293 82.9707 14.1775 90.9072 14.1775C93.1799 14.1775 95.3083 14.5022 97.2564 15.1155V17.6407C95.3083 16.8831 93.2881 16.5224 91.2318 16.5224C85.0269 16.5224 81.9245 19.4805 81.9245 25.3247C81.9245 31.6378 84.9909 34.7763 91.0875 34.7763C92.0616 34.7763 93.1438 34.632 94.3343 34.3795V26.7677H97.2564V36.1833ZM101.946 28.3189V14.3579H104.868V28.3189C104.868 32.684 107.033 34.8846 111.398 34.8846C115.727 34.8846 117.927 32.684 117.927 28.3189V14.3579H120.849V28.3189C120.849 34.2713 117.711 37.2655 111.398 37.2655C105.085 37.2655 101.946 34.2713 101.946 28.3189ZM129.002 14.3579V34.7042H140.907V37.0851H126.08V14.3579H129.002ZM145.128 37.0851H142.062L153.353 11.3636L164.645 37.0851H161.398L158.476 29.9423H150.972L151.766 27.5613H157.502L153.245 17.28L145.128 37.0851ZM167.783 37.0851V14.3579H177.487C181.816 14.3579 183.981 16.1616 183.981 19.8052C183.981 22.7634 181.852 24.9639 177.632 26.3709L185.424 37.0851H181.564L174.349 26.8759V24.9639C178.678 24.2785 180.878 22.6191 180.878 19.9495C180.878 17.8572 179.688 16.811 177.271 16.811H170.777V37.0851H167.783Z" fill="#B52E31"/>
<path fill-rule="evenodd" clip-rule="evenodd" d="M0.719482 8.29726L23.9879 0L47.8696 8.15296L44.0095 38.925L23.9879 50L4.29091 39.0693L0.719482 8.29726Z" fill="#E23237"/>
<path fill-rule="evenodd" clip-rule="evenodd" d="M47.8695 8.15296L23.9878 0V50L44.0094 38.925L47.8695 8.15296Z" fill="#B52E31"/>
<path fill-rule="evenodd" clip-rule="evenodd" d="M24.0239 5.84412L9.52173 38.0952L14.933 37.987L17.8551 30.6998H30.806L33.9806 38.0591L39.1393 38.1673L24.0239 5.84412ZM24.06 16.1977L28.9662 26.443H19.767L24.06 16.1977Z" fill="white"/>
</g>
<defs>
<clipPath id="clip0_110_278">
<rect width="184.704" height="50" fill="white" transform="translate(0.719482)"/>
</clipPath>
</defs>
</svg>
