<svg width="103" height="60" viewBox="0 0 103 60" fill="none" xmlns="http://www.w3.org/2000/svg">
<g clip-path="url(#clip0_110_366)">
<path d="M29.7516 21.7909C29.7516 23.0256 29.885 24.0267 30.1186 24.7608C30.3856 25.495 30.7193 26.2959 31.1865 27.1635C31.3533 27.4305 31.4201 27.6974 31.4201 27.931C31.4201 28.2647 31.2199 28.5984 30.786 28.9322L28.6837 30.3337C28.3834 30.5339 28.083 30.634 27.8161 30.634C27.4824 30.634 27.1487 30.4672 26.815 30.1669C26.3478 29.6663 25.9473 29.1324 25.6136 28.5984C25.2799 28.0311 24.9462 27.3971 24.5792 26.6296C21.9763 29.6997 18.706 31.2347 14.7682 31.2347C11.9651 31.2347 9.72932 30.4338 8.09417 28.832C6.45902 27.2303 5.62476 25.0946 5.62476 22.4249C5.62476 19.5884 6.62587 17.2859 8.66146 15.5506C10.6971 13.8154 13.4001 12.9477 16.8372 12.9477C17.9718 12.9477 19.1398 13.0478 20.3745 13.2147C21.6092 13.3815 22.8773 13.6485 24.2121 13.9488V11.5128C24.2121 8.97664 23.6782 7.20801 22.6437 6.17353C21.5758 5.13904 19.7738 4.63849 17.2043 4.63849C16.0363 4.63849 14.835 4.77197 13.6003 5.0723C12.3656 5.37264 11.1642 5.73971 9.99628 6.2069C9.46235 6.44049 9.06191 6.57397 8.82832 6.64071C8.59472 6.70745 8.42787 6.74082 8.29439 6.74082C7.8272 6.74082 7.59361 6.40712 7.59361 5.70634V4.07119C7.59361 3.53726 7.66035 3.13682 7.8272 2.90323C7.99406 2.66963 8.29439 2.43604 8.76157 2.20245C9.92954 1.60178 11.3311 1.10122 12.9662 0.700779C14.6014 0.266963 16.3367 0.0667408 18.172 0.0667408C22.1431 0.0667408 25.0463 0.967742 26.9151 2.76974C28.7505 4.57175 29.6848 7.30812 29.6848 10.9789V21.7909H29.7516ZM16.2032 26.8632C17.3044 26.8632 18.439 26.663 19.6403 26.2625C20.8417 25.8621 21.9095 25.1279 22.8105 24.1268C23.3444 23.4928 23.7449 22.792 23.9451 21.9911C24.1453 21.1902 24.2788 20.2225 24.2788 19.0879V17.6863C23.3111 17.4527 22.2766 17.2525 21.2087 17.119C20.1409 16.9855 19.1064 16.9188 18.0719 16.9188C15.8361 16.9188 14.201 17.3526 13.0997 18.2536C11.9985 19.1546 11.4646 20.4227 11.4646 22.0912C11.4646 23.6596 11.865 24.8276 12.6993 25.6285C13.5002 26.4627 14.6681 26.8632 16.2032 26.8632ZM42.9996 30.4672C42.399 30.4672 41.9985 30.3671 41.7315 30.1335C41.4646 29.9333 41.231 29.4661 41.0308 28.832L33.1887 3.03671C32.9885 2.3693 32.8884 1.93548 32.8884 1.70189C32.8884 1.16796 33.1553 0.867631 33.6893 0.867631H36.9596C37.5936 0.867631 38.0274 0.967742 38.261 1.20133C38.528 1.40156 38.7282 1.86874 38.9284 2.50278L44.5347 24.594L49.7404 2.50278C49.9073 1.83537 50.1075 1.40156 50.3745 1.20133C50.6414 1.00111 51.1086 0.867631 51.7093 0.867631H54.3789C55.013 0.867631 55.4468 0.967742 55.7137 1.20133C55.9807 1.40156 56.2143 1.86874 56.3478 2.50278L61.6203 24.861L67.3934 2.50278C67.5936 1.83537 67.8272 1.40156 68.0608 1.20133C68.3278 1.00111 68.7616 0.867631 69.3622 0.867631H72.4657C72.9996 0.867631 73.3 1.13459 73.3 1.70189C73.3 1.86874 73.2666 2.0356 73.2332 2.23582C73.1998 2.43604 73.1331 2.703 72.9996 3.07008L64.9573 28.8654C64.7571 29.5328 64.5235 29.9666 64.2566 30.1669C63.9896 30.3671 63.5558 30.5006 62.9885 30.5006H60.1186C59.4846 30.5006 59.0508 30.4004 58.7838 30.1669C58.5169 29.9333 58.2833 29.4994 58.1498 28.832L52.9774 7.30812L47.8383 28.7987C47.6715 29.4661 47.4713 29.8999 47.2043 30.1335C46.9373 30.3671 46.4701 30.4672 45.8695 30.4672H42.9996ZM85.8806 31.3682C84.1453 31.3682 82.4101 31.168 80.7416 30.7675C79.073 30.3671 77.7716 29.9333 76.904 29.4327C76.37 29.1324 76.003 28.7987 75.8695 28.4983C75.736 28.198 75.6693 27.8643 75.6693 27.564V25.8621C75.6693 25.1613 75.9362 24.8276 76.4368 24.8276C76.637 24.8276 76.8372 24.861 77.0374 24.9277C77.2377 24.9944 77.538 25.1279 77.8717 25.2614C79.0063 25.762 80.241 26.1624 81.5424 26.4294C82.8773 26.6963 84.1787 26.8298 85.5135 26.8298C87.6159 26.8298 89.251 26.4627 90.3856 25.7286C91.5202 24.9944 92.1209 23.9266 92.1209 22.5584C92.1209 21.624 91.8205 20.8565 91.2199 20.2225C90.6192 19.5884 89.4846 19.0211 87.8495 18.4872L83.0107 16.9855C80.5747 16.218 78.7727 15.0834 77.6715 13.5818C76.5703 12.1135 76.003 10.4783 76.003 8.74305C76.003 7.34149 76.3033 6.10679 76.904 5.03893C77.5046 3.97108 78.3055 3.03671 79.3066 2.30256C80.3077 1.53504 81.4423 0.967742 82.7772 0.567297C84.112 0.166852 85.5135 0 86.9818 0C87.716 0 88.4835 0.0333704 89.2176 0.133482C89.9852 0.233593 90.6859 0.367075 91.3867 0.500556C92.0541 0.667408 92.6882 0.83426 93.2888 1.03448C93.8895 1.23471 94.3567 1.43493 94.6904 1.63515C95.1576 1.90211 95.4913 2.16908 95.6915 2.46941C95.8917 2.73637 95.9918 3.10345 95.9918 3.57063V5.13904C95.9918 5.83982 95.7249 6.2069 95.2243 6.2069C94.9574 6.2069 94.5235 6.07342 93.9562 5.80645C92.0541 4.93882 89.9184 4.50501 87.5491 4.50501C85.647 4.50501 84.1453 4.80534 83.1109 5.43938C82.0764 6.07342 81.5424 7.04116 81.5424 8.40934C81.5424 9.34372 81.8762 10.1446 82.5436 10.7786C83.211 11.4127 84.4457 12.0467 86.2143 12.614L90.9529 14.1157C93.3556 14.8832 95.0908 15.9511 96.1253 17.3192C97.1598 18.6874 97.6604 20.2558 97.6604 21.9911C97.6604 23.426 97.36 24.7275 96.7927 25.8621C96.1921 26.9967 95.3912 27.9978 94.3567 28.7987C93.3222 29.6329 92.0875 30.2336 90.6526 30.6674C89.1509 31.1346 87.5825 31.3682 85.8806 31.3682Z" fill="#252F3E"/>
<path fill-rule="evenodd" clip-rule="evenodd" d="M92.1877 47.5861C81.2088 55.6952 65.2577 59.9999 51.5425 59.9999C32.3211 59.9999 15.0019 52.892 1.9207 41.0789C0.886213 40.1445 1.82058 38.8765 3.05529 39.6106C17.2043 47.8197 34.6571 52.7919 52.7105 52.7919C64.8907 52.7919 78.2722 50.2558 90.5859 45.05C92.4213 44.2157 93.9897 46.2513 92.1877 47.5861Z" fill="#FF9900"/>
<path fill-rule="evenodd" clip-rule="evenodd" d="M96.7594 42.3804C95.3579 40.5784 87.4824 41.5128 83.9118 41.9466C82.844 42.0801 82.6771 41.1457 83.6448 40.4449C89.9185 36.04 100.23 37.3081 101.431 38.7764C102.633 40.2781 101.098 50.5895 95.2244 55.5284C94.3234 56.2959 93.4558 55.8954 93.8562 54.8943C95.191 51.5907 98.161 44.1491 96.7594 42.3804Z" fill="#FF9900"/>
</g>
<defs>
<clipPath id="clip0_110_366">
<rect width="102.389" height="60" fill="white" transform="translate(0.564819)"/>
</clipPath>
</defs>
</svg>
