<svg width="90" height="100" viewBox="0 0 90 100" fill="none" xmlns="http://www.w3.org/2000/svg">
<g clip-path="url(#clip0_110_180)">
<path d="M89.8965 29.3998C89.8958 27.7184 89.5362 26.2326 88.809 24.9578C88.0946 23.7035 87.0248 22.6525 85.5899 21.8215C73.7449 14.9916 61.8885 8.18265 50.0473 1.34581C46.855 -0.49716 43.7598 -0.429624 40.5912 1.43981C35.8765 4.21994 12.2719 17.7436 5.23804 21.8177C2.34129 23.4949 0.931736 26.0613 0.931039 29.3967C0.926514 43.132 0.931039 56.8673 0.926514 70.6025C0.92721 72.2471 1.27151 73.7043 1.96671 74.96C2.68141 76.2519 3.76617 77.3318 5.23421 78.1816C12.2684 82.2557 35.8762 95.7782 40.5898 98.5594C43.7598 100.43 46.855 100.497 50.0484 98.6534C61.8898 91.8162 73.747 85.0073 85.5937 78.1774C87.0617 77.328 88.1465 76.2474 88.8612 74.9565C89.5554 73.7005 89.9003 72.2436 89.901 70.5987C89.901 70.5987 89.901 43.1355 89.8965 29.3998Z" fill="#5C8DBC"/>
<path d="M45.5499 49.8658L1.96667 74.9601C2.68138 76.252 3.76613 77.3319 5.23418 78.1816C12.2684 82.2558 35.8762 95.7783 40.5898 98.5595C43.7598 100.43 46.855 100.497 50.0483 98.6535C61.8898 91.8163 73.747 85.0073 85.5937 78.1775C87.0617 77.328 88.1465 76.2475 88.8612 74.9566L45.5499 49.8658Z" fill="#1A4674"/>
<path d="M32.6411 57.299C35.1772 61.7265 39.9448 64.7127 45.4138 64.7127C50.9166 64.7127 55.7114 61.6885 58.2346 57.2141L45.5499 49.8658L32.6411 57.299Z" fill="#1A4674"/>
<path d="M89.8965 29.3998C89.8959 27.7184 89.5362 26.2326 88.809 24.9578L45.5499 49.8661L88.8612 74.9565C89.5554 73.7005 89.9004 72.2436 89.9011 70.5987C89.9011 70.5987 89.9011 43.1355 89.8965 29.3998Z" fill="#1B598E"/>
<path d="M87.515 51.6593H84.1305V55.0445H80.7454V51.6593H77.3613V48.2756H80.7454V44.8907H84.1305V48.2752H87.515V51.6593ZM75.1653 51.6593H71.7812V55.0445H68.3967V51.6593H65.0122V48.2756H68.3967V44.8907H71.7812V48.2752H75.1653V51.6593Z" fill="white"/>
<path d="M58.2346 57.2137C55.7114 61.6885 50.9166 64.7127 45.4138 64.7127C39.9448 64.7127 35.1772 61.7265 32.6411 57.299C31.3671 55.0774 30.698 52.5605 30.7007 49.9995C30.7007 41.8743 37.2882 35.2867 45.4138 35.2867C50.8477 35.2867 55.5902 38.2357 58.1388 42.6182L70.9989 35.2126C65.8874 26.389 56.3443 20.4528 45.4138 20.4528C29.0951 20.4528 15.8667 33.6815 15.8667 49.9995C15.8667 55.353 17.2909 60.3737 19.78 64.7037C24.8786 73.5739 34.4489 79.5467 45.4138 79.5467C56.3989 79.5467 65.9842 73.5499 71.0755 64.6539L58.2346 57.2137Z" fill="white"/>
</g>
<defs>
<clipPath id="clip0_110_180">
<rect width="88.9745" height="100" fill="white" transform="translate(0.926514)"/>
</clipPath>
</defs>
</svg>
