<svg width="90" height="100" viewBox="0 0 90 100" fill="none" xmlns="http://www.w3.org/2000/svg">
<g clip-path="url(#clip0_110_187)">
<path d="M89.8565 29.3998C89.8558 27.7184 89.4962 26.2326 88.7689 24.9578C88.0546 23.7035 86.9848 22.6525 85.5498 21.8215C73.7049 14.9916 61.8484 8.18265 50.0073 1.34581C46.815 -0.49716 43.7198 -0.429624 40.5512 1.43981C35.8365 4.21994 12.2319 17.7436 5.19801 21.8177C2.30126 23.4949 0.891696 26.0613 0.891 29.3967C0.886475 43.132 0.891 56.8673 0.886475 70.6025C0.886475 72.2471 1.23147 73.7043 1.92667 74.96C2.64137 76.2519 3.72613 77.3318 5.19418 78.1816C12.2284 82.2557 35.8362 95.7782 40.5498 98.5594C43.7198 100.43 46.815 100.497 50.0083 98.6534C61.8498 91.8162 73.707 85.0073 85.5537 78.1774C87.0217 77.328 88.1065 76.2474 88.8212 74.9565C89.5153 73.7005 89.861 72.2436 89.861 70.5987C89.861 70.5987 89.861 43.1355 89.8565 29.3998Z" fill="#A179DC"/>
<path d="M45.5099 49.8658L1.92676 74.9601C2.64146 76.252 3.72622 77.3319 5.19426 78.1816C12.2285 82.2558 35.8362 95.7783 40.5499 98.5595C43.7199 100.43 46.8151 100.497 50.0084 98.6535C61.8499 91.8163 73.707 85.0073 85.5537 78.1775C87.0218 77.328 88.1065 76.2475 88.8212 74.9566L45.5099 49.8658Z" fill="#280068"/>
<path d="M89.8564 29.3998C89.8557 27.7184 89.4961 26.2326 88.7688 24.9578L45.5098 49.8661L88.8211 74.9565C89.5152 73.7005 89.8602 72.2436 89.8609 70.5987C89.8609 70.5987 89.8609 43.1355 89.8564 29.3998Z" fill="#390091"/>
<path d="M71.1701 40.4849V45.1755H75.8608V40.4849H78.2061V45.1755H82.8967V47.5208H78.2061V52.2111H82.8967V54.5564H78.2061V59.2471H75.8608V54.5564H71.1701V59.2471H68.8248V54.5564H64.1345V52.2111H68.8248V47.5208H64.1345V45.1755H68.8248V40.4849H71.1701ZM75.8608 47.5205H71.1701V52.2111H75.8608V47.5205Z" fill="white"/>
<path d="M45.6057 16.928C57.8402 16.928 68.5217 23.5723 74.2432 33.4486L74.1875 33.3536L59.7925 41.6417C56.9567 36.84 51.7578 33.5993 45.7933 33.5325L45.6053 33.5315C36.5106 33.5315 29.1373 40.9048 29.1373 49.9995C29.1343 52.8661 29.8832 55.6833 31.3092 58.17C34.1478 63.1256 39.4843 66.4679 45.6057 66.4679C51.7651 66.4679 57.1318 63.0831 59.9558 58.0746L59.8872 58.1947L74.2602 66.5212C68.6015 76.314 58.0661 82.9377 45.974 83.0697L45.6057 83.0718C33.3325 83.0718 22.6207 76.3864 16.9136 66.4582C14.1275 61.6112 12.5334 55.9918 12.5334 49.9999C12.5334 31.7351 27.3399 16.928 45.6053 16.928H45.6057Z" fill="white"/>
</g>
<defs>
<clipPath id="clip0_110_187">
<rect width="88.9745" height="100" fill="white" transform="translate(0.886475)"/>
</clipPath>
</defs>
</svg>
