<svg width="101" height="100" viewBox="0 0 101 100" fill="none" xmlns="http://www.w3.org/2000/svg">
<path d="M22.1477 91.9682L15.7002 19.6523H86.5467L80.0924 91.9568L51.0801 100L22.1477 91.9682Z" fill="#264DE4"/>
<path d="M74.5669 87.3527L80.0825 25.5652H51.1235V93.8521L74.5669 87.3527Z" fill="#2965F1"/>
<path d="M30.481 52.3861L31.2759 61.2552H51.1235V52.3861H30.481Z" fill="#EBEBEB"/>
<path d="M29.6898 43.3039H51.1234V34.4346H51.0927H28.8835L29.6898 43.3039Z" fill="#EBEBEB"/>
<path d="M51.0827 84.6596L51.1235 84.6483V75.4205L51.0846 75.4309L41.2069 72.7637L40.5754 65.6901H35.7756H31.6721L32.9147 79.616L51.0827 84.6596Z" fill="#EBEBEB"/>
<path d="M32.3735 0H43.1157V4.49219H36.8657V8.98437H43.1157V13.4766H32.3735V0Z" fill="black"/>
<path d="M45.2642 0H56.0063V3.90625H49.7563V4.6875H56.0063V13.6719H45.2642V9.57031H51.5142V8.78906H45.2642V0Z" fill="black"/>
<path d="M58.1548 0H68.897V3.90625H62.647V4.6875H68.897V13.6719H58.1548V9.57031H64.4048V8.78906H58.1548V0Z" fill="black"/>
<path d="M73.3103 34.4346H51.0928V43.3039H63.5904L62.7834 52.3861H51.0928V61.2553H62.0143L60.9848 72.758L51.0928 75.4279V84.6553L69.2752 79.616L69.4086 78.1176L71.4928 54.7678L71.7092 52.3861L73.3103 34.4346Z" fill="white"/>
</svg>
