<svg width="121" height="60" viewBox="0 0 121 60" fill="none" xmlns="http://www.w3.org/2000/svg">
<path d="M18.4048 10.725H24.4388V38.655C21.3438 39.243 19.0708 39.478 16.6018 39.478C9.23478 39.478 5.39478 36.148 5.39478 29.761C5.39478 23.609 9.46978 19.613 15.7778 19.613C16.7578 19.613 17.5018 19.691 18.4028 19.926L18.4048 10.725ZM18.4048 24.785C17.6998 24.55 17.1118 24.472 16.3678 24.472C13.3118 24.472 11.5478 26.352 11.5478 29.644C11.5478 32.857 13.2328 34.62 16.3278 34.62C17.023 34.6187 17.7172 34.5665 18.4048 34.464V24.785ZM34.0388 20.045V34.033C34.0388 38.853 33.6858 41.163 32.6388 43.163C31.6588 45.083 30.3658 46.298 27.7018 47.63L22.0988 44.965C24.7638 43.711 26.0558 42.615 26.8788 40.929C27.7408 39.205 28.0158 37.207 28.0158 31.956V20.056L34.0388 20.045ZM28.0048 10.76H34.0388V16.96H28.0048V10.76ZM37.6828 21.416C40.3478 20.162 42.8828 19.614 45.6768 19.614C48.7718 19.614 50.8098 20.437 51.7108 22.044C52.2108 22.944 52.3768 24.121 52.3768 26.629V38.9C49.6728 39.292 46.2638 39.566 43.7568 39.566C38.7028 39.566 36.4298 37.802 36.4298 33.884C36.4298 29.652 39.4468 27.684 46.8528 27.066V25.734C46.8528 24.637 46.3028 24.234 44.7758 24.234C42.5428 24.234 40.0358 24.861 37.6838 26.076V21.413L37.6828 21.416ZM47.1258 31.016C43.1288 31.408 41.8258 32.036 41.8258 33.602C41.8258 34.777 42.5708 35.326 44.2258 35.326C45.1258 35.326 45.9498 35.248 47.1258 35.052V31.016ZM55.3258 20.986C58.8908 20.046 61.8298 19.616 64.8078 19.616C67.9028 19.616 70.1378 20.321 71.4698 21.693C72.7238 22.986 73.1148 24.396 73.1148 27.413V39.246H67.0808V27.646C67.0808 25.334 66.2968 24.472 64.1408 24.472C63.3178 24.472 62.5738 24.55 61.3588 24.902V39.242H55.3148L55.3258 20.986ZM75.4508 42.536C77.5668 43.633 79.6828 44.142 81.9158 44.142C85.8728 44.142 87.5578 42.536 87.5578 38.696V38.578C86.3828 39.165 85.2078 39.401 83.6398 39.401C78.3398 39.401 74.9798 35.914 74.9798 30.389C74.9798 23.531 79.9568 19.653 88.7718 19.653C91.3578 19.653 93.7488 19.927 96.6478 20.515L94.5818 24.868C92.9748 24.555 94.4518 24.826 93.2388 24.708V25.335L93.3168 27.881L93.3568 31.173C93.3968 31.996 93.3968 32.819 93.4368 33.641V35.287C93.4368 40.459 93.0068 42.887 91.7128 44.887C89.8328 47.827 86.5798 49.287 81.9558 49.287C79.6058 49.287 77.5678 48.934 75.4518 48.111V42.547L75.4508 42.536ZM87.4508 24.512H86.8238C85.6488 24.472 84.2778 24.786 83.3368 25.374C81.8868 26.197 81.1428 27.686 81.1428 29.802C81.1428 32.819 82.6428 34.542 85.2968 34.542C86.1198 34.542 86.7968 34.385 87.5688 34.15V32.073C87.5688 31.368 87.5288 30.573 87.5288 29.761L87.4888 26.979L87.4488 24.981V24.511L87.4508 24.512ZM106.015 19.536C112.049 19.536 115.732 23.336 115.732 29.489C115.732 35.789 111.892 39.755 105.779 39.755C99.7448 39.755 96.0218 35.955 96.0218 29.842C96.0218 23.494 99.8618 19.537 106.014 19.537L106.015 19.536ZM105.897 34.896C108.209 34.896 109.581 32.976 109.581 29.646C109.581 26.346 108.249 24.396 105.937 24.396C103.537 24.396 102.175 26.316 102.175 29.646C102.175 32.976 103.547 34.896 105.897 34.896Z" fill="#092E20"/>
</svg>
