<svg width="38" height="41" viewBox="0 0 38 41" fill="none" xmlns="http://www.w3.org/2000/svg">
<path d="M4.27644 20.5C4.27644 21.1598 5.24699 22.3072 7.49849 23.4328C10.4113 24.8893 14.5433 25.7632 19.0133 25.7632C23.4832 25.7632 27.6152 24.8893 30.528 23.4328C32.7796 22.3072 33.7501 21.1598 33.7501 20.5V15.9288C30.2764 18.0752 24.9655 19.4474 19.0133 19.4474C13.0611 19.4474 7.75004 18.0752 4.27644 15.9288V20.5ZM33.7501 26.4552C30.2764 28.6015 24.9655 29.9737 19.0133 29.9737C13.0611 29.9737 7.75004 28.6015 4.27644 26.4552V31.0263C4.27644 31.6861 5.24699 32.8335 7.49849 33.9592C10.4113 35.4156 14.5433 36.2895 19.0133 36.2895C23.4832 36.2895 27.6152 35.4156 30.528 33.9592C32.7796 32.8335 33.7501 31.6861 33.7501 31.0263V26.4552ZM0.065918 31.0263V9.97368C0.065918 4.74152 8.54895 0.5 19.0133 0.5C29.4777 0.5 37.9607 4.74152 37.9607 9.97368V31.0263C37.9607 36.2585 29.4777 40.5 19.0133 40.5C8.54895 40.5 0.065918 36.2585 0.065918 31.0263ZM19.0133 15.2368C23.4832 15.2368 27.6152 14.363 30.528 12.9066C32.7796 11.7808 33.7501 10.6335 33.7501 9.97368C33.7501 9.31385 32.7796 8.16653 30.528 7.04078C27.6152 5.58438 23.4832 4.71053 19.0133 4.71053C14.5433 4.71053 10.4113 5.58438 7.49849 7.04078C5.24699 8.16653 4.27644 9.31385 4.27644 9.97368C4.27644 10.6335 5.24699 11.7808 7.49849 12.9066C10.4113 14.363 14.5433 15.2368 19.0133 15.2368Z" fill="black"/>
</svg>
