<svg width="1151" height="170" viewBox="0 0 1151 170" fill="none" xmlns="http://www.w3.org/2000/svg">
<rect x="0.564819" width="1150" height="170" rx="5" fill="url(#paint0_linear_110_410)" fill-opacity="0.3"/>
<g clip-path="url(#clip0_110_410)">
<path d="M68.9575 118.444C68.9575 114.463 67.7968 112.419 65.4745 112.307C64.5529 112.264 63.6323 112.412 62.7708 112.742C62.07 112.988 61.5991 113.229 61.3509 113.475V122.976C62.8365 123.889 64.1559 124.311 65.3057 124.254C67.7393 124.097 68.9575 122.155 68.9575 118.453V118.444ZM71.8227 118.608C71.8227 120.63 71.3373 122.309 70.3627 123.645C69.275 125.156 67.7676 125.934 65.8413 125.977C64.3886 126.022 62.8921 125.577 61.3518 124.644V133.28L58.8607 132.412V113.243C59.2695 112.753 59.796 112.33 60.4329 111.965C61.9158 111.12 63.7179 110.686 65.8377 110.665L65.8742 110.7C67.8123 110.676 69.3052 111.453 70.3454 113.031C71.3236 114.478 71.8054 116.332 71.8054 118.6L71.8227 118.608ZM87.0459 124.278C87.0459 126.99 86.7676 128.867 86.2119 129.913C85.6562 130.959 84.5904 131.793 83.02 132.413C81.747 132.903 80.371 133.171 78.8937 133.216L78.483 131.682C79.985 131.481 81.0426 131.282 81.6558 131.082C82.863 130.682 83.6907 130.078 84.1469 129.257C84.5119 128.588 84.6917 127.312 84.6917 125.423V124.789C82.988 125.546 81.2032 125.92 79.3353 125.92C78.1553 125.938 77.0073 125.536 76.095 124.788C75.0484 123.965 74.5255 122.92 74.5255 121.654V111.509L77.0167 110.675V120.877C77.0167 121.966 77.3762 122.806 78.0961 123.395C78.8161 123.985 79.7386 124.267 80.8902 124.246C82.0418 124.225 83.2563 123.789 84.5557 122.945V111.044H87.0468V124.279L87.0459 124.278ZM96.7731 125.844L95.9519 125.879C94.543 125.879 93.4443 125.551 92.6596 124.894C91.8748 124.237 91.4852 123.327 91.4852 122.168V112.575H89.7788V111.042H91.4852V106.972L93.9736 106.105V111.04H96.7731V112.573H93.9809V122.099C93.9809 123.014 94.2318 123.651 94.7328 124.039C95.1635 124.352 95.8479 124.529 96.7795 124.575V125.853L96.7731 125.844ZM111.855 125.644H109.364V116.245C109.364 115.289 109.136 114.465 108.679 113.777C108.447 113.409 108.123 113.107 107.738 112.902C107.353 112.697 106.921 112.597 106.486 112.61C105.343 112.61 103.915 113.199 102.202 114.377V125.646H99.7105V103.175L102.202 102.409V112.631C103.793 111.5 105.532 110.931 107.421 110.931C108.741 110.931 109.809 111.366 110.627 112.232C111.444 113.098 111.856 114.177 111.856 115.467V125.634L111.855 125.644ZM125.097 118.07C125.097 116.541 124.8 115.278 124.208 114.278C123.506 113.06 122.412 112.419 120.935 112.362C118.204 112.517 116.842 114.43 116.842 118.096C116.842 119.778 117.115 121.182 117.698 122.309C118.428 123.746 119.523 124.454 120.984 124.43C123.726 124.409 125.097 122.293 125.097 118.079V118.07ZM127.835 118.086C127.835 120.264 127.265 122.076 126.128 123.522C124.878 125.142 123.149 125.955 120.945 125.955C118.76 125.955 117.056 125.134 115.835 123.522C114.72 122.075 114.165 120.264 114.165 118.086C114.165 116.04 114.768 114.318 115.972 112.917C117.245 111.43 118.919 110.684 120.987 110.684C123.055 110.684 124.74 111.431 126.038 112.917C127.242 114.319 127.845 116.04 127.845 118.086H127.835ZM142.106 125.653H139.606V115.719C139.606 114.63 139.271 113.779 138.6 113.166C137.929 112.553 137.036 112.26 135.921 112.284C134.738 112.305 133.612 112.683 132.545 113.415V125.643H130.054V113.105C131.486 112.085 132.807 111.419 134.011 111.097C135.148 110.807 136.151 110.663 137.015 110.663C137.606 110.663 138.162 110.718 138.685 110.831C139.663 111.052 140.459 111.463 141.073 112.065C141.757 112.731 142.098 113.53 142.098 114.465V125.634L142.106 125.653Z" fill="#646464"/>
<path d="M81.6886 44.646C81.6886 40.4663 82.835 38.1925 89.1645 37.1097C93.4617 36.3734 98.9714 36.2814 104.111 37.1097C108.17 37.7648 111.587 40.7209 111.587 44.646V58.4357C111.587 62.4801 108.27 65.793 104.111 65.793H89.1645C84.0919 65.793 79.8167 70.0215 79.8167 74.802V81.418H74.6775C70.3305 81.418 67.7995 78.3536 66.7363 74.0656C65.3021 68.3049 65.363 64.8726 66.7363 59.3555C67.9269 54.5425 71.7314 52.003 76.0788 52.003H96.6404V50.1622H81.6883V44.6457L81.6886 44.646Z" fill="url(#paint1_linear_110_410)"/>
<path d="M111.587 88.7757C111.587 92.9554 107.877 95.0724 104.111 96.1282C98.4461 97.7199 93.8995 97.4763 89.1648 96.1282C85.2107 95.0022 81.689 92.7011 81.689 88.7757V74.986C81.689 71.0174 85.0726 67.6287 89.1648 67.6287H104.111C109.09 67.6287 113.459 63.4223 113.459 58.4357V52.0037H119.063C123.416 52.0037 125.465 55.1654 126.539 59.3561C128.034 65.1763 128.101 69.5291 126.539 74.0662C125.027 78.4733 123.41 81.4187 119.063 81.4187H96.6407V83.2596H111.587V88.7757Z" fill="url(#paint2_linear_110_410)"/>
<path d="M85.4266 43.731C85.4266 42.2043 86.6782 40.9697 88.2291 40.9697C89.774 40.9697 91.0315 42.204 91.0315 43.731C91.0315 45.2528 89.7743 46.4868 88.2291 46.4868C86.6788 46.4868 85.4266 45.2525 85.4266 43.731ZM102.244 89.6909C102.244 88.1691 103.502 86.9351 105.047 86.9351C106.597 86.9351 107.849 88.1694 107.849 89.6909C107.849 91.2176 106.598 92.4522 105.047 92.4522C103.502 92.4522 102.244 91.2179 102.244 89.6909Z" fill="white"/>
</g>
<g clip-path="url(#clip1_110_410)">
<path d="M259.897 64.3998C259.896 62.7184 259.536 61.2326 258.809 59.9578C258.095 58.7035 257.025 57.6525 255.59 56.8215C243.745 49.9916 231.888 43.1826 220.047 36.3458C216.855 34.5028 213.76 34.5704 210.591 36.4398C205.877 39.2199 182.272 52.7436 175.238 56.8177C172.341 58.4949 170.932 61.0613 170.931 64.3967C170.927 78.132 170.931 91.8673 170.927 105.603C170.927 107.247 171.272 108.704 171.967 109.96C172.681 111.252 173.766 112.332 175.234 113.182C182.268 117.256 205.876 130.778 210.59 133.559C213.76 135.43 216.855 135.497 220.048 133.653C231.89 126.816 243.747 120.007 255.594 113.177C257.062 112.328 258.146 111.247 258.861 109.957C259.555 108.701 259.9 107.244 259.901 105.599C259.901 105.599 259.901 78.1355 259.897 64.3998Z" fill="#5C8DBC"/>
<path d="M215.55 84.8658L171.967 109.96C172.681 111.252 173.766 112.332 175.234 113.182C182.268 117.256 205.876 130.778 210.59 133.56C213.76 135.43 216.855 135.497 220.048 133.654C231.89 126.816 243.747 120.007 255.594 113.177C257.062 112.328 258.146 111.247 258.861 109.957L215.55 84.8658Z" fill="#1A4674"/>
<path d="M202.641 92.299C205.177 96.7265 209.945 99.7127 215.414 99.7127C220.917 99.7127 225.711 96.6885 228.235 92.2141L215.55 84.8658L202.641 92.299Z" fill="#1A4674"/>
<path d="M259.897 64.3998C259.896 62.7184 259.536 61.2326 258.809 59.9578L215.55 84.8661L258.861 109.957C259.555 108.701 259.9 107.244 259.901 105.599C259.901 105.599 259.901 78.1355 259.897 64.3998Z" fill="#1B598E"/>
<path d="M257.515 86.6593H254.131V90.0445H250.745V86.6593H247.361V83.2756H250.745V79.8907H254.131V83.2752H257.515V86.6593ZM245.165 86.6593H241.781V90.0445H238.397V86.6593H235.012V83.2756H238.397V79.8907H241.781V83.2752H245.165V86.6593Z" fill="white"/>
<path d="M228.235 92.2137C225.711 96.6885 220.917 99.7127 215.414 99.7127C209.945 99.7127 205.177 96.7265 202.641 92.299C201.367 90.0774 200.698 87.5605 200.701 84.9995C200.701 76.8743 207.288 70.2867 215.414 70.2867C220.848 70.2867 225.59 73.2357 228.139 77.6182L240.999 70.2126C235.887 61.389 226.344 55.4528 215.414 55.4528C199.095 55.4528 185.867 68.6815 185.867 84.9995C185.867 90.353 187.291 95.3737 189.78 99.7037C194.879 108.574 204.449 114.547 215.414 114.547C226.399 114.547 235.984 108.55 241.076 99.6539L228.235 92.2137Z" fill="white"/>
</g>
<g clip-path="url(#clip2_110_410)">
<path d="M285.901 35H385.901V135H285.901V35Z" fill="#F0DB4F"/>
<path d="M377.717 111.15C376.985 106.587 374.01 102.757 365.198 99.1825C362.137 97.7757 358.724 96.7682 357.707 94.4487C357.346 93.0989 357.299 92.3384 357.527 91.5209C358.183 88.8688 361.348 88.0418 363.857 88.8023C365.473 89.3441 367.004 90.5895 367.926 92.5761C372.241 89.7815 372.232 89.8004 375.245 87.8803C374.143 86.1693 373.553 85.3802 372.831 84.6484C370.236 81.7492 366.7 80.2568 361.044 80.3708C360.065 80.4944 359.076 80.6274 358.097 80.7511C355.274 81.464 352.584 82.9469 351.006 84.9336C346.272 90.3043 347.622 99.7053 353.382 103.574C359.057 107.833 367.394 108.802 368.458 112.785C369.494 117.662 364.875 119.24 360.283 118.679C356.899 117.975 355.017 116.255 352.983 113.127C349.238 115.295 349.238 115.295 345.388 117.51C346.301 119.506 347.26 120.409 348.791 122.139C356.034 129.487 374.162 129.126 377.413 118.004C377.546 117.624 378.42 115.076 377.717 111.15ZM340.264 80.9601H330.911C330.911 89.0399 330.873 97.0628 330.873 105.143C330.873 110.285 331.139 115 330.302 116.445C328.934 119.287 325.388 118.935 323.772 118.384C322.128 117.576 321.291 116.426 320.321 114.8C320.055 114.335 319.856 113.973 319.789 113.945C317.251 115.494 314.722 117.053 312.184 118.603C313.449 121.198 315.312 123.451 317.698 124.914C321.262 127.053 326.053 127.709 331.063 126.559C334.323 125.608 337.137 123.641 338.61 120.646C340.74 116.721 340.283 111.968 340.264 106.711C340.312 98.1369 340.264 89.5628 340.264 80.9601Z" fill="#323330"/>
</g>
<g clip-path="url(#clip3_110_410)">
<path d="M463.396 113.854H463.02V113.643H464.034V113.854H463.66V114.905H463.396V113.854ZM465.419 113.909H465.413L465.04 114.906H464.869L464.498 113.909H464.494V114.906H464.245V113.644H464.611L464.954 114.537L465.297 113.644H465.661V114.906H465.419L465.419 113.909Z" fill="#E76F00"/>
<path d="M429.675 88.0449C429.675 88.0449 427.054 89.569 431.54 90.0847C436.975 90.7047 439.753 90.6158 445.742 89.4823C445.742 89.4823 447.316 90.4696 449.515 91.3247C436.089 97.0787 419.13 90.9914 429.675 88.0449ZM428.035 80.5363C428.035 80.5363 425.095 82.7121 429.584 83.1765C435.39 83.7754 439.975 83.8244 447.908 82.2968C447.908 82.2968 449.005 83.4092 450.731 84.0176C434.498 88.7642 416.418 84.3919 428.035 80.5363Z" fill="#5382A1"/>
<path d="M441.865 67.799C445.173 71.6077 440.996 75.0352 440.996 75.0352C440.996 75.0352 449.395 70.699 445.538 65.269C441.935 60.205 439.172 57.6891 454.13 49.0143C454.13 49.0141 430.651 54.8779 441.865 67.799Z" fill="#E76F00"/>
<path d="M459.622 93.5988C459.622 93.5988 461.561 95.197 457.486 96.4331C449.736 98.7807 425.232 99.4896 418.424 96.5268C415.977 95.4621 420.566 93.9847 422.01 93.6747C423.515 93.3483 424.375 93.4091 424.375 93.4091C421.654 91.492 406.785 97.1732 416.823 98.8005C444.196 103.24 466.722 96.8015 459.622 93.5988ZM430.936 72.7565C430.936 72.7565 418.471 75.717 426.522 76.7921C429.921 77.2472 436.697 77.1443 443.009 76.6154C448.167 76.1803 453.347 75.2553 453.347 75.2553C453.347 75.2553 451.528 76.0342 450.212 76.9326C437.555 80.2618 413.102 78.7129 420.142 75.3078C426.095 72.43 430.936 72.7565 430.936 72.7565ZM453.296 85.255C466.163 78.5687 460.214 72.1431 456.061 73.009C455.043 73.2208 454.59 73.4044 454.59 73.4044C454.59 73.4044 454.968 72.8125 455.689 72.5563C463.904 69.6681 470.222 81.0744 453.037 85.5921C453.037 85.5921 453.236 85.4143 453.296 85.255Z" fill="#5382A1"/>
<path d="M445.538 35.0065C445.538 35.0065 452.664 42.1347 438.779 53.0963C427.645 61.8892 436.24 66.9027 438.775 72.631C432.276 66.767 427.506 61.6052 430.706 56.8009C435.402 49.7487 448.413 46.3295 445.538 35.0065Z" fill="#E76F00"/>
<path d="M432.2 103.373C444.551 104.164 463.517 102.934 463.966 97.0906C463.966 97.0906 463.103 99.3058 453.759 101.065C443.217 103.049 430.215 102.818 422.504 101.546C422.504 101.546 424.083 102.853 432.2 103.373Z" fill="#5382A1"/>
<path d="M430.176 125.704C429.011 126.714 427.78 127.282 426.676 127.282C425.1 127.282 424.248 126.336 424.248 124.82C424.248 123.181 425.161 121.982 428.821 121.982H430.176L430.176 125.704ZM433.391 129.331V118.103C433.391 115.234 431.755 113.342 427.81 113.342C425.508 113.342 423.491 113.91 421.851 114.636L422.324 116.623C423.615 116.149 425.286 115.708 426.926 115.708C429.198 115.708 430.176 116.623 430.176 118.514V119.934H429.042C423.521 119.934 421.031 122.077 421.031 125.293C421.031 128.069 422.672 129.647 425.762 129.647C427.748 129.647 429.231 128.827 430.617 127.627L430.868 129.331L433.391 129.331ZM444.12 129.331H440.11L435.285 113.626H438.787L441.781 123.275L442.446 126.177C443.961 121.981 445.033 117.725 445.569 113.626H448.975C448.062 118.797 446.42 124.474 444.12 129.331ZM459.502 125.704C458.335 126.714 457.102 127.282 455.998 127.282C454.424 127.282 453.571 126.336 453.571 124.82C453.571 123.181 454.485 121.982 458.145 121.982H459.502V125.704ZM462.717 129.331V118.103C462.717 115.234 461.077 113.342 457.137 113.342C454.833 113.342 452.815 113.91 451.176 114.636L451.649 116.623C452.94 116.149 454.614 115.708 456.253 115.708C458.523 115.708 459.502 116.623 459.502 118.514V119.934H458.366C452.844 119.934 450.355 122.077 450.355 125.293C450.355 128.069 451.995 129.647 455.084 129.647C457.071 129.647 458.554 128.827 459.942 127.627L460.194 129.331L462.717 129.331ZM417.506 131.998C416.589 133.336 415.109 134.395 413.488 134.994L411.901 133.126C413.135 132.493 414.193 131.47 414.684 130.518C415.109 129.672 415.285 128.58 415.285 125.97V108.041H418.701V125.725C418.701 129.214 418.422 130.623 417.506 131.998Z" fill="#E76F00"/>
</g>
<path d="M512.688 126.973L506.245 54.6387H577.077L570.634 126.945L541.606 135L512.688 126.973Z" fill="#E44D26"/>
<path d="M541.661 128.861L565.106 122.361L570.634 60.5547H541.661V128.861Z" fill="#F16529"/>
<path d="M541.661 87.3887H529.911L529.106 78.3047H541.661V69.4453H541.634H519.411L519.634 71.8047L521.8 96.25H541.661V87.3887Z" fill="#EBEBEB"/>
<path d="M541.661 110.416L541.634 110.445L531.745 107.75L531.106 100.695H526.3H522.216L523.438 114.611L541.634 119.666L541.661 119.639V110.416Z" fill="#EBEBEB"/>
<path d="M512.827 35H517.327V39.4453H521.438V35H525.938V48.4727H521.438V43.9453H517.327V48.4727H512.827V35Z" fill="black"/>
<path d="M531.884 39.4727H527.911V35H540.356V39.4727H536.384V48.4727H531.884V39.4727Z" fill="black"/>
<path d="M542.356 35H547.052L549.94 39.75L552.827 35H557.522V48.4727H553.05V41.8047L549.938 46.6094H549.854L546.743 41.8047V48.5H542.327V35H542.356Z" fill="black"/>
<path d="M559.772 35H564.272V44.0273H570.606V48.4727H559.772V35Z" fill="black"/>
<path d="M541.634 87.3887V96.25H552.55L551.522 107.75L541.634 110.416V119.666L559.8 114.611L559.938 113.111L562.022 89.7773L562.245 87.3887H559.856H541.634Z" fill="white"/>
<path d="M541.634 69.4453V74.9453V78.2773V78.3047H563.022H563.05L563.245 76.3047L563.634 71.8047L563.856 69.4453H541.634Z" fill="white"/>
<path d="M639.148 126.968L632.7 54.6523H703.547L697.092 126.957L668.08 135L639.148 126.968Z" fill="#264DE4"/>
<path d="M691.567 122.353L697.083 60.5652H668.124V128.852L691.567 122.353Z" fill="#2965F1"/>
<path d="M647.481 87.3861L648.276 96.2552H668.124V87.3861H647.481Z" fill="#EBEBEB"/>
<path d="M646.69 78.3039H668.123V69.4346H668.093H645.884L646.69 78.3039Z" fill="#EBEBEB"/>
<path d="M668.083 119.66L668.123 119.648V110.421L668.085 110.431L658.207 107.764L657.575 100.69H652.776H648.672L649.915 114.616L668.083 119.66Z" fill="#EBEBEB"/>
<path d="M649.374 35H660.116V39.4922H653.866V43.9844H660.116V48.4766H649.374V35Z" fill="black"/>
<path d="M662.264 35H673.006V38.9062H666.756V39.6875H673.006V48.6719H662.264V44.5703H668.514V43.7891H662.264V35Z" fill="black"/>
<path d="M675.155 35H685.897V38.9062H679.647V39.6875H685.897V48.6719H675.155V44.5703H681.405V43.7891H675.155V35Z" fill="black"/>
<path d="M690.31 69.4346H668.093V78.3039H680.59L679.783 87.3861H668.093V96.2553H679.014L677.985 107.758L668.093 110.428V119.655L686.275 114.616L686.409 113.118L688.493 89.7678L688.709 87.3861L690.31 69.4346Z" fill="white"/>
<path d="M802.999 100.147C800.822 111.99 797.951 120.596 794.387 125.965C791.61 130.101 788.568 132.17 785.255 132.17C784.372 132.17 783.283 131.903 781.991 131.373V128.518C782.622 128.611 783.363 128.66 784.215 128.66C785.76 128.66 787.006 128.232 787.953 127.378C789.088 126.336 789.656 125.165 789.656 123.868C789.656 122.982 789.213 121.164 788.331 118.413L782.464 100.147H787.716L791.926 113.809C792.872 116.91 793.267 119.076 793.109 120.31C795.412 114.143 797.021 107.421 797.936 100.147H802.999ZM779.811 123.774H774.465C774.277 114.727 773.756 106.22 772.905 98.2515H772.857L764.719 123.774H760.649L752.559 98.2515H752.511C751.911 105.904 751.533 114.411 751.376 123.774H746.502C746.817 112.388 747.605 101.714 748.867 91.7502H755.492L763.204 115.28H763.252L771.011 91.7502H777.35C778.739 103.419 779.558 114.096 779.81 123.774" fill="#00758F"/>
<path d="M874.155 123.774H858.968V91.7502H864.078V119.835H874.155V123.774ZM835.971 117.368C834.678 115.28 834.03 111.93 834.03 107.311C834.03 99.2478 836.475 95.2133 841.364 95.2133C843.92 95.2133 845.796 96.1783 846.995 98.1062C848.287 100.195 848.935 103.515 848.935 108.07C848.935 116.198 846.49 120.264 841.601 120.264C839.046 120.264 837.169 119.299 835.971 117.368ZM854.991 124.546L849.121 121.644C849.644 121.214 850.14 120.75 850.589 120.213C853.082 117.275 854.329 112.927 854.329 107.169C854.329 96.5751 850.181 91.275 841.886 91.275C837.817 91.275 834.646 92.6184 832.375 95.3091C829.882 98.2508 828.637 102.583 828.637 108.308C828.637 113.937 829.74 118.066 831.948 120.689C833.96 123.06 837.002 124.247 841.075 124.247C842.595 124.247 843.989 124.06 845.256 123.685L852.901 128.145L854.986 124.546M826.415 114.897C826.415 117.613 825.42 119.843 823.436 121.587C821.451 123.324 818.784 124.195 815.443 124.195C812.319 124.195 809.292 123.193 806.359 121.205L807.731 118.454C810.255 119.719 812.539 120.35 814.589 120.35C816.513 120.35 818.018 119.921 819.108 119.073C820.194 118.219 820.846 117.028 820.846 115.517C820.846 113.615 819.523 111.99 817.097 110.627C814.856 109.394 810.379 106.82 810.379 106.82C807.954 105.046 806.737 103.143 806.737 100.006C806.737 97.4117 807.644 95.3149 809.456 93.7196C811.271 92.1211 813.614 91.3218 816.482 91.3218C819.447 91.3218 822.143 92.1152 824.572 93.6963L823.338 96.4446C821.26 95.5613 819.211 95.1179 817.191 95.1179C815.552 95.1179 814.289 95.5125 813.409 96.3063C812.523 97.0933 811.975 98.106 811.975 99.3403C811.975 101.237 813.327 102.882 815.822 104.272C818.09 105.505 822.677 108.128 822.677 108.128C825.172 109.899 826.415 111.787 826.415 114.897Z" fill="#F29111"/>
<path d="M877.799 123.771H878.646V120.512H879.754V119.847H876.648V120.512H877.799V123.771ZM884.243 123.771H885.041V119.847H883.84L882.863 122.521L881.8 119.847H880.643V123.771H881.398V120.784H881.441L882.555 123.771H883.13L884.243 120.784V123.771Z" fill="#F29111"/>
<path d="M831.686 37.8308C830.336 37.8106 829.159 38.3206 828.551 39.8149C827.508 42.3314 830.094 44.8066 830.982 46.0838C831.638 46.9725 832.487 47.9803 832.948 48.9847C833.219 49.6428 833.297 50.3405 833.568 51.0358C834.185 52.738 834.762 54.6347 835.575 56.222C835.998 57.0347 836.46 57.8866 837 58.6182C837.312 59.0464 837.85 59.2373 837.967 59.9358C837.428 60.7088 837.386 61.8701 837.078 62.8381C835.689 67.2106 836.228 72.6273 838.197 75.8382C838.813 76.8054 840.282 78.9338 842.25 78.1193C843.986 77.4241 843.6 75.2186 844.102 73.2852C844.217 72.8176 844.14 72.5109 844.371 72.2018V72.2799C844.911 73.3617 845.453 74.404 845.954 75.491C847.152 77.385 849.233 79.3588 850.972 80.6731C851.895 81.3722 852.629 82.5698 853.787 82.9967V82.8796H853.711C853.478 82.5324 853.132 82.3768 852.823 82.1071C852.128 81.4102 851.359 80.5583 850.816 79.7849C849.196 77.619 847.766 75.2188 846.496 72.7428C845.877 71.5405 845.337 70.2263 844.835 69.0276C844.604 68.5655 844.604 67.8669 844.217 67.6354C843.637 68.4856 842.79 69.2215 842.366 70.263C841.633 71.9287 841.556 73.9789 841.284 76.108C841.13 76.1484 841.208 76.1084 841.13 76.1854C839.897 75.8761 839.472 74.5993 839.008 73.5194C837.851 70.7686 837.656 66.3578 838.661 63.1846C838.93 62.3736 840.091 59.8201 839.626 59.0463C839.393 58.308 838.621 57.8862 838.197 57.3033C837.697 56.5684 837.154 55.6413 836.81 54.827C835.883 52.661 835.417 50.2611 834.417 48.0952C833.954 47.0874 833.141 46.0429 832.488 45.1162C831.753 44.0712 830.944 43.3363 830.364 42.0995C830.173 41.6729 829.902 40.9757 830.21 40.5128C830.286 40.2028 830.442 40.0864 830.752 40.0087C831.25 39.583 832.68 40.1236 833.181 40.3559C834.609 40.9346 835.806 41.4788 837 42.2899C837.541 42.6776 838.12 43.4131 838.814 43.6082H839.626C840.86 43.8769 842.25 43.6831 843.409 44.0328C845.453 44.69 847.305 45.6573 848.965 46.7022C854.019 49.914 858.186 54.4812 861.002 59.9358C861.466 60.8246 861.661 61.6374 862.084 62.5642C862.895 64.4639 863.9 66.399 864.709 68.2544C865.518 70.0732 866.291 71.9286 867.45 73.44C868.028 74.2511 870.344 74.6768 871.386 75.1027C872.156 75.4498 873.354 75.7597 874.049 76.1847C875.361 76.9959 876.67 77.9258 877.907 78.8172C878.523 79.2816 880.453 80.248 880.569 81.023L880.57 81.0238C877.481 80.9463 875.089 81.2552 873.083 82.1072C872.504 82.339 871.579 82.3388 871.5 83.0741C871.81 83.3831 871.848 83.8862 872.12 84.3137C872.582 85.0875 873.391 86.1304 874.125 86.6736C874.936 87.293 875.746 87.9098 876.596 88.4514C878.1 89.384 879.798 89.9234 881.263 90.8524C882.114 91.3933 882.961 92.0894 883.812 92.6713C884.235 92.9807 884.503 93.4845 885.046 93.6759V93.5581C884.773 93.2109 884.698 92.7084 884.429 92.3193C884.044 91.9353 883.657 91.5849 883.271 91.1996C882.151 89.6908 880.76 88.3762 879.258 87.2927C878.022 86.4392 875.32 85.2781 874.82 83.8508C874.82 83.8508 874.779 83.8101 874.741 83.772C875.591 83.6935 876.596 83.3834 877.406 83.1487C878.716 82.8015 879.912 82.8796 881.263 82.5324C881.881 82.3765 882.499 82.1824 883.119 81.9921V81.6414C882.42 80.9465 881.921 80.0161 881.188 79.3589C879.222 77.657 877.058 75.9944 874.82 74.5994C873.622 73.8253 872.078 73.3248 870.805 72.6654C870.344 72.4329 869.573 72.3184 869.301 71.9292C868.606 71.0783 868.219 69.9578 867.718 68.9502C866.6 66.8245 865.518 64.4648 864.555 62.217C863.861 60.7091 863.436 59.2012 862.587 57.8074C858.61 51.2284 854.29 47.245 847.652 43.3363C846.224 42.5228 844.527 42.1753 842.714 41.7496C841.748 41.7091 840.784 41.6335 839.82 41.5955C839.201 41.3235 838.583 40.5875 838.043 40.2395C836.668 39.3694 833.937 37.8643 831.686 37.8308ZM841.207 47.3952C840.552 47.3952 840.09 47.4748 839.624 47.5897V47.6671H839.7C840.011 48.2847 840.553 48.7139 840.935 49.2545C841.246 49.8738 841.516 50.4904 841.825 51.1104C841.863 51.0724 841.899 51.0323 841.899 51.0323C842.443 50.6471 842.714 50.0284 842.714 49.0984C842.48 48.8256 842.444 48.5568 842.249 48.2848C842.018 47.8987 841.516 47.7052 841.207 47.3952Z" fill="#00758F"/>
<g clip-path="url(#clip4_110_410)">
<path d="M1002.86 64.3998C1002.86 62.7184 1002.5 61.2326 1001.77 59.9578C1001.05 58.7035 999.985 57.6525 998.55 56.8215C986.705 49.9916 974.848 43.1826 963.007 36.3458C959.815 34.5028 956.72 34.5704 953.551 36.4398C948.837 39.2199 925.232 52.7436 918.198 56.8177C915.301 58.4949 913.892 61.0613 913.891 64.3967C913.886 78.132 913.891 91.8673 913.886 105.603C913.886 107.247 914.231 108.704 914.927 109.96C915.641 111.252 916.726 112.332 918.194 113.182C925.228 117.256 948.836 130.778 953.55 133.559C956.72 135.43 959.815 135.497 963.008 133.653C974.85 126.816 986.707 120.007 998.554 113.177C1000.02 112.328 1001.11 111.247 1001.82 109.957C1002.52 108.701 1002.86 107.244 1002.86 105.599C1002.86 105.599 1002.86 78.1355 1002.86 64.3998Z" fill="#A179DC"/>
<path d="M958.51 84.8658L914.927 109.96C915.641 111.252 916.726 112.332 918.194 113.182C925.228 117.256 948.836 130.778 953.55 133.56C956.72 135.43 959.815 135.497 963.008 133.654C974.85 126.816 986.707 120.007 998.554 113.177C1000.02 112.328 1001.11 111.247 1001.82 109.957L958.51 84.8658Z" fill="#280068"/>
<path d="M1002.86 64.3998C1002.86 62.7184 1002.5 61.2326 1001.77 59.9578L958.51 84.8661L1001.82 109.957C1002.52 108.701 1002.86 107.244 1002.86 105.599C1002.86 105.599 1002.86 78.1355 1002.86 64.3998Z" fill="#390091"/>
<path d="M984.17 75.4849V80.1755H988.861V75.4849H991.206V80.1755H995.897V82.5208H991.206V87.2111H995.897V89.5564H991.206V94.2471H988.861V89.5564H984.17V94.2471H981.825V89.5564H977.135V87.2111H981.825V82.5208H977.135V80.1755H981.825V75.4849H984.17ZM988.861 82.5205H984.17V87.2111H988.861V82.5205Z" fill="white"/>
<path d="M958.606 51.928C970.84 51.928 981.522 58.5723 987.243 68.4486L987.187 68.3536L972.792 76.6417C969.957 71.84 964.758 68.5993 958.793 68.5325L958.605 68.5315C949.511 68.5315 942.137 75.9048 942.137 84.9995C942.134 87.8661 942.883 90.6833 944.309 93.17C947.148 98.1256 952.484 101.468 958.606 101.468C964.765 101.468 970.132 98.0831 972.956 93.0746L972.887 93.1947L987.26 101.521C981.601 111.314 971.066 117.938 958.974 118.07L958.606 118.072C946.333 118.072 935.621 111.386 929.914 101.458C927.128 96.6112 925.533 90.9918 925.533 84.9999C925.533 66.7351 940.34 51.928 958.605 51.928H958.606Z" fill="white"/>
</g>
<defs>
<linearGradient id="paint0_linear_110_410" x1="575.565" y1="0" x2="575.565" y2="170" gradientUnits="userSpaceOnUse">
<stop/>
<stop offset="0.614583" stop-color="#D0D0D0"/>
<stop offset="1" stop-color="white"/>
</linearGradient>
<linearGradient id="paint1_linear_110_410" x1="111.587" y1="53.9755" x2="65.6838" y2="53.6022" gradientUnits="userSpaceOnUse">
<stop stop-color="#366A96"/>
<stop offset="1" stop-color="#3679B0"/>
</linearGradient>
<linearGradient id="paint2_linear_110_410" x1="127.685" y1="74.6182" x2="36.8187" y2="74.6182" gradientUnits="userSpaceOnUse">
<stop stop-color="#FFC836"/>
<stop offset="1" stop-color="#FFE873"/>
</linearGradient>
<clipPath id="clip0_110_410">
<rect width="89.3617" height="100" fill="white" transform="translate(55.5648 35)"/>
</clipPath>
<clipPath id="clip1_110_410">
<rect width="88.9745" height="100" fill="white" transform="translate(170.927 35)"/>
</clipPath>
<clipPath id="clip2_110_410">
<rect width="100" height="100" fill="white" transform="translate(285.901 35)"/>
</clipPath>
<clipPath id="clip3_110_410">
<rect width="53.76" height="100" fill="white" transform="translate(411.901 35)"/>
</clipPath>
<clipPath id="clip4_110_410">
<rect width="88.9745" height="100" fill="white" transform="translate(913.886 35)"/>
</clipPath>
</defs>
</svg>
