<svg width="1151" height="178" viewBox="0 0 1151 178" fill="none" xmlns="http://www.w3.org/2000/svg">
<rect x="0.564819" width="1150" height="178" rx="5" fill="url(#paint0_linear_110_420)" fill-opacity="0.3"/>
<g clip-path="url(#clip0_110_420)">
<path d="M112.483 82.3398C110.291 82.3398 108.647 83.4082 108.647 86.0117C108.647 87.957 109.715 89.3281 112.346 89.3281C114.565 89.3281 116.1 88.0137 116.1 85.9297C116.127 83.5723 114.756 82.3398 112.483 82.3398ZM108.098 100.615C107.577 101.246 107.057 101.93 107.057 102.725C107.057 104.314 109.084 104.807 111.879 104.807C114.18 104.807 117.332 104.643 117.332 102.506C117.332 101.219 115.825 101.137 113.907 101.025L108.098 100.615ZM119.909 82.4492C120.621 83.3535 121.389 84.6406 121.389 86.4766C121.389 90.8887 117.909 93.4922 112.895 93.4922C111.608 93.4922 110.455 93.3281 109.745 93.1367L108.43 95.2461L112.348 95.4922C119.252 95.9297 123.309 96.123 123.309 101.437C123.309 106.014 119.282 108.617 112.348 108.617C105.141 108.617 102.373 106.781 102.373 103.631C102.373 101.85 103.168 100.891 104.565 99.5762C103.25 99.0273 102.811 98.0137 102.811 96.9453C102.811 96.0684 103.248 95.2734 103.961 94.5059C104.674 93.7383 105.469 92.998 106.428 92.1211C104.483 91.1621 103.002 89.0801 103.002 86.1484C103.002 81.5723 106.043 78.4219 112.127 78.4219C113.854 78.4219 114.868 78.5859 115.799 78.832H123.58V82.2305L119.909 82.4492Z" fill="#362701"/>
<path d="M130.594 75.2148C128.321 75.2148 127.004 73.9004 127.004 71.625C127.004 69.3496 128.319 68.1172 130.594 68.1172C132.895 68.1172 134.211 69.3496 134.211 71.625C134.211 73.9004 132.895 75.2148 130.594 75.2148ZM125.442 99.1641V96.0117L127.469 95.7383C128.018 95.6562 128.1 95.5469 128.1 94.9434V83.2148C128.1 82.7773 127.991 82.502 127.578 82.3652L125.414 81.5977L125.852 78.3652H134.1V94.916C134.1 95.5469 134.127 95.6289 134.731 95.7109L136.758 95.9844V99.1348L125.442 99.1641Z" fill="#362701"/>
<path d="M152.571 97.6016C150.844 98.4512 148.35 99.1914 146.077 99.1914C141.336 99.1914 139.528 97.2734 139.528 92.7793V82.3398C139.528 82.0937 139.528 81.9297 139.2 81.9297H136.405V78.3945C139.912 77.9844 141.309 76.2305 141.748 71.9004H145.53V77.5723C145.53 77.8457 145.53 77.9824 145.858 77.9824H151.475V81.9551H145.53V91.4629C145.53 93.8203 146.078 94.7227 148.243 94.7227C149.366 94.7227 150.516 94.4492 151.475 94.0918L152.571 97.6016Z" fill="#362701"/>
<path d="M93.5199 87.1621L75.2992 68.9414C74.2582 67.9004 72.559 67.9004 71.4906 68.9414L67.7094 72.7227L72.5043 77.5176C73.6273 77.1348 74.889 77.3809 75.7933 78.2852C76.6976 79.1895 76.9437 80.4766 76.5609 81.6016L81.1918 86.2324C82.3148 85.8496 83.6039 86.0957 84.5082 87C85.7679 88.2598 85.7679 90.2598 84.5082 91.5215C83.2484 92.7812 81.2484 92.7812 79.9867 91.5215C79.0551 90.5898 78.809 89.1934 79.3011 88.041L74.9984 83.7383V95.082C75.2992 95.2461 75.6019 95.4375 75.848 95.6855C77.1078 96.9453 77.1078 98.9453 75.848 100.207C74.5883 101.467 72.559 101.467 71.3265 100.207C70.0668 98.9473 70.0668 96.918 71.3265 95.6855C71.6273 95.3848 71.9847 95.1367 72.3676 95V83.5469C71.9847 83.3828 71.6273 83.1641 71.3265 82.8613C70.3676 81.9023 70.1488 80.5332 70.641 79.3535L65.8461 74.5859L53.35 87.0801C52.309 88.1211 52.309 89.8203 53.35 90.8887L71.5707 109.109C72.6117 110.15 74.3109 110.15 75.3793 109.109L93.5179 90.9707C94.5609 89.9023 94.5609 88.2031 93.5199 87.1621Z" fill="#F03C2E"/>
</g>
<g clip-path="url(#clip1_110_420)">
<path d="M212.752 80.7909C212.752 82.0256 212.885 83.0267 213.119 83.7608C213.386 84.495 213.719 85.2959 214.186 86.1635C214.353 86.4305 214.42 86.6974 214.42 86.931C214.42 87.2647 214.22 87.5984 213.786 87.9322L211.684 89.3337C211.383 89.5339 211.083 89.634 210.816 89.634C210.482 89.634 210.149 89.4672 209.815 89.1669C209.348 88.6663 208.947 88.1324 208.614 87.5984C208.28 87.0311 207.946 86.3971 207.579 85.6296C204.976 88.6997 201.706 90.2347 197.768 90.2347C194.965 90.2347 192.729 89.4338 191.094 87.832C189.459 86.2303 188.625 84.0946 188.625 81.4249C188.625 78.5884 189.626 76.2859 191.661 74.5506C193.697 72.8154 196.4 71.9477 199.837 71.9477C200.972 71.9477 202.14 72.0478 203.374 72.2147C204.609 72.3815 205.877 72.6485 207.212 72.9488V70.5128C207.212 67.9766 206.678 66.208 205.644 65.1735C204.576 64.139 202.774 63.6385 200.204 63.6385C199.036 63.6385 197.835 63.772 196.6 64.0723C195.366 64.3726 194.164 64.7397 192.996 65.2069C192.462 65.4405 192.062 65.574 191.828 65.6407C191.595 65.7075 191.428 65.7408 191.294 65.7408C190.827 65.7408 190.594 65.4071 190.594 64.7063V63.0712C190.594 62.5373 190.66 62.1368 190.827 61.9032C190.994 61.6696 191.294 61.436 191.762 61.2024C192.93 60.6018 194.331 60.1012 195.966 59.7008C197.601 59.267 199.337 59.0667 201.172 59.0667C205.143 59.0667 208.046 59.9677 209.915 61.7697C211.75 63.5717 212.685 66.3081 212.685 69.9789V80.7909H212.752ZM199.203 85.8632C200.304 85.8632 201.439 85.663 202.64 85.2625C203.842 84.8621 204.91 84.1279 205.811 83.1268C206.344 82.4928 206.745 81.792 206.945 80.9911C207.145 80.1902 207.279 79.2225 207.279 78.0879V76.6863C206.311 76.4527 205.277 76.2525 204.209 76.119C203.141 75.9855 202.106 75.9188 201.072 75.9188C198.836 75.9188 197.201 76.3526 196.1 77.2536C194.999 78.1546 194.465 79.4227 194.465 81.0912C194.465 82.6596 194.865 83.8276 195.699 84.6285C196.5 85.4627 197.668 85.8632 199.203 85.8632ZM226 89.4672C225.399 89.4672 224.999 89.3671 224.732 89.1335C224.465 88.9333 224.231 88.4661 224.031 87.832L216.189 62.0367C215.988 61.3693 215.888 60.9355 215.888 60.7019C215.888 60.168 216.155 59.8676 216.689 59.8676H219.96C220.594 59.8676 221.027 59.9677 221.261 60.2013C221.528 60.4016 221.728 60.8687 221.928 61.5028L227.535 83.594L232.74 61.5028C232.907 60.8354 233.108 60.4016 233.374 60.2013C233.641 60.0011 234.109 59.8676 234.709 59.8676H237.379C238.013 59.8676 238.447 59.9677 238.714 60.2013C238.981 60.4016 239.214 60.8687 239.348 61.5028L244.62 83.861L250.393 61.5028C250.594 60.8354 250.827 60.4016 251.061 60.2013C251.328 60.0011 251.762 59.8676 252.362 59.8676H255.466C256 59.8676 256.3 60.1346 256.3 60.7019C256.3 60.8687 256.267 61.0356 256.233 61.2358C256.2 61.436 256.133 61.703 256 62.0701L247.957 87.8654C247.757 88.5328 247.524 88.9666 247.257 89.1669C246.99 89.3671 246.556 89.5006 245.988 89.5006H243.119C242.485 89.5006 242.051 89.4004 241.784 89.1669C241.517 88.9333 241.283 88.4994 241.15 87.832L235.977 66.3081L230.838 87.7987C230.671 88.4661 230.471 88.8999 230.204 89.1335C229.937 89.3671 229.47 89.4672 228.869 89.4672H226ZM268.881 90.3682C267.145 90.3682 265.41 90.168 263.742 89.7675C262.073 89.3671 260.772 88.9333 259.904 88.4327C259.37 88.1324 259.003 87.7987 258.869 87.4983C258.736 87.198 258.669 86.8643 258.669 86.564V84.8621C258.669 84.1613 258.936 83.8276 259.437 83.8276C259.637 83.8276 259.837 83.861 260.037 83.9277C260.238 83.9944 260.538 84.1279 260.872 84.2614C262.006 84.762 263.241 85.1624 264.542 85.4294C265.877 85.6963 267.179 85.8298 268.514 85.8298C270.616 85.8298 272.251 85.4627 273.386 84.7286C274.52 83.9944 275.121 82.9266 275.121 81.5584C275.121 80.624 274.821 79.8565 274.22 79.2225C273.619 78.5884 272.485 78.0211 270.849 77.4872L266.011 75.9855C263.575 75.218 261.773 74.0834 260.671 72.5818C259.57 71.1135 259.003 69.4783 259.003 67.743C259.003 66.3415 259.303 65.1068 259.904 64.0389C260.505 62.9711 261.306 62.0367 262.307 61.3026C263.308 60.535 264.442 59.9677 265.777 59.5673C267.112 59.1669 268.514 59 269.982 59C270.716 59 271.483 59.0334 272.218 59.1335C272.985 59.2336 273.686 59.3671 274.387 59.5006C275.054 59.6674 275.688 59.8343 276.289 60.0345C276.889 60.2347 277.357 60.4349 277.69 60.6352C278.158 60.9021 278.491 61.1691 278.692 61.4694C278.892 61.7364 278.992 62.1034 278.992 62.5706V64.139C278.992 64.8398 278.725 65.2069 278.224 65.2069C277.957 65.2069 277.524 65.0734 276.956 64.8065C275.054 63.9388 272.918 63.505 270.549 63.505C268.647 63.505 267.145 63.8053 266.111 64.4394C265.076 65.0734 264.542 66.0412 264.542 67.4093C264.542 68.3437 264.876 69.1446 265.544 69.7786C266.211 70.4127 267.446 71.0467 269.214 71.614L273.953 73.1157C276.356 73.8832 278.091 74.9511 279.125 76.3192C280.16 77.6874 280.66 79.2558 280.66 80.9911C280.66 82.426 280.36 83.7275 279.793 84.8621C279.192 85.9967 278.391 86.9978 277.357 87.7987C276.322 88.6329 275.087 89.2336 273.653 89.6674C272.151 90.1346 270.582 90.3682 268.881 90.3682Z" fill="#252F3E"/>
<path fill-rule="evenodd" clip-rule="evenodd" d="M275.188 106.586C264.209 114.695 248.258 119 234.543 119C215.321 119 198.002 111.892 184.921 100.079C183.886 99.1445 184.821 97.8765 186.055 98.6106C200.204 106.82 217.657 111.792 235.71 111.792C247.891 111.792 261.272 109.256 273.586 104.05C275.421 103.216 276.99 105.251 275.188 106.586Z" fill="#FF9900"/>
<path fill-rule="evenodd" clip-rule="evenodd" d="M279.759 101.38C278.358 99.5784 270.482 100.513 266.912 100.947C265.844 101.08 265.677 100.146 266.645 99.4449C272.918 95.04 283.23 96.3081 284.431 97.7764C285.633 99.2781 284.098 109.59 278.224 114.528C277.323 115.296 276.456 114.895 276.856 113.894C278.191 110.591 281.161 103.149 279.759 101.38Z" fill="#FF9900"/>
</g>
<path d="M403.447 64.4293L404.972 64.456L409.116 60.312L409.316 58.556C406.023 55.6267 401.69 53.844 396.947 53.844C388.36 53.844 381.112 59.6867 378.966 67.6013C379.419 67.2853 380.386 67.5213 380.386 67.5213L388.668 66.1587C388.668 66.1587 389.095 65.452 389.308 65.496C391.086 63.551 393.539 62.3577 396.167 62.1595C398.795 61.9613 401.398 62.7731 403.447 64.4293Z" fill="#EA4335"/>
<path d="M414.954 67.616C414.002 64.1129 412.048 60.9638 409.333 58.5547L403.463 64.424C404.668 65.3921 405.64 66.618 406.308 68.0116C406.976 69.4051 407.323 70.9307 407.323 72.476V73.512C410.179 73.512 412.497 75.836 412.497 78.6854C412.497 81.5347 410.173 83.8587 407.323 83.8587H396.974L395.938 84.8987V91.1094L396.974 92.14H407.323C410.887 92.1305 414.303 90.7098 416.822 88.1886C419.342 85.6674 420.76 82.251 420.767 78.6867C420.762 74.1054 418.453 70.0467 414.941 67.616H414.954Z" fill="#4285F4"/>
<path d="M386.599 92.1494H396.946V83.8667H386.599C385.864 83.8671 385.138 83.7093 384.47 83.4041L382.977 83.8614L378.833 88.0054L378.47 89.4054C380.801 91.1956 383.661 92.1616 386.601 92.1521L386.599 92.1494Z" fill="#34A853"/>
<path d="M386.599 65.2333C383.031 65.2389 379.611 66.6587 377.089 69.1815C374.566 71.7042 373.146 75.1242 373.141 78.6919C373.14 80.7694 373.622 82.8187 374.547 84.6787C375.473 86.5387 376.817 88.1589 378.474 89.4119L384.474 83.4119C383.565 83.003 382.794 82.3403 382.252 81.5034C381.711 80.6666 381.423 79.6912 381.423 78.6946C381.423 75.8386 383.747 73.5213 386.597 73.5213C387.593 73.523 388.567 73.8116 389.404 74.3526C390.241 74.8936 390.904 75.6641 391.314 76.5719L397.314 70.5719C394.853 67.3319 390.967 65.2386 386.594 65.2386L386.599 65.2333Z" fill="#FBBC05"/>
<path d="M332.954 118.249C330.127 118.249 327.701 117.249 325.655 115.249C323.61 113.249 322.589 110.844 322.589 108.039C322.589 105.233 323.609 102.828 325.655 100.828C327.702 98.828 330.131 97.8267 332.954 97.8267C334.249 97.8079 335.534 98.0469 336.736 98.53C337.937 99.013 339.031 99.7303 339.953 100.64L337.983 102.609C336.636 101.306 334.827 100.59 332.953 100.616C330.913 100.616 329.179 101.336 327.758 102.785C327.066 103.472 326.521 104.292 326.155 105.195C325.789 106.098 325.61 107.066 325.629 108.04C325.629 110.101 326.335 111.849 327.758 113.293C328.426 113.995 329.233 114.55 330.127 114.923C331.022 115.297 331.984 115.48 332.953 115.463C335.03 115.463 336.746 114.796 338.113 113.417C338.913 112.617 339.446 111.417 339.633 109.904H332.958V107.115H342.35C342.45 107.611 342.483 108.181 342.483 108.848C342.483 111.589 341.679 113.763 340.066 115.375C338.236 117.288 335.866 118.241 332.939 118.241L332.954 118.249ZM354.781 116.383C353.501 117.636 351.94 118.249 350.098 118.249C348.255 118.249 346.693 117.623 345.415 116.383C344.138 115.143 343.498 113.565 343.498 111.689C343.498 109.813 344.138 108.249 345.415 106.996C346.693 105.743 348.255 105.129 350.098 105.129C351.94 105.129 353.503 105.756 354.781 106.996C356.058 108.236 356.698 109.817 356.698 111.689C356.698 113.561 356.058 115.129 354.781 116.383ZM347.482 114.543C347.814 114.904 348.219 115.192 348.67 115.387C349.121 115.582 349.608 115.68 350.099 115.675C351.112 115.675 351.985 115.299 352.717 114.541C353.449 113.784 353.812 112.835 353.812 111.688C353.812 110.528 353.452 109.571 352.728 108.821C352.004 108.072 351.131 107.701 350.099 107.701C349.607 107.694 349.119 107.79 348.666 107.983C348.213 108.175 347.805 108.461 347.47 108.821C346.746 109.568 346.386 110.523 346.386 111.688C346.386 112.832 346.75 113.785 347.482 114.541V114.543ZM369.179 116.383C367.899 117.636 366.339 118.249 364.497 118.249C362.654 118.249 361.091 117.623 359.814 116.383C358.536 115.143 357.897 113.565 357.897 111.689C357.897 109.813 358.536 108.249 359.814 106.996C361.091 105.743 362.654 105.129 364.497 105.129C366.339 105.129 367.902 105.756 369.179 106.996C370.456 108.236 371.096 109.817 371.096 111.689C371.096 113.561 370.456 115.129 369.179 116.383ZM361.88 114.543C362.213 114.904 362.618 115.192 363.069 115.387C363.52 115.582 364.007 115.68 364.498 115.675C365.511 115.675 366.383 115.299 367.115 114.541C367.847 113.784 368.211 112.835 368.211 111.688C368.211 110.528 367.851 109.571 367.127 108.821C366.403 108.072 365.53 107.701 364.498 107.701C364.006 107.694 363.517 107.79 363.064 107.983C362.611 108.175 362.204 108.461 361.868 108.821C361.145 109.568 360.785 110.523 360.785 111.688C360.785 112.832 361.148 113.785 361.88 114.541V114.543ZM378.644 124.169C377.184 124.169 375.955 123.777 374.959 122.996C373.963 122.215 373.25 121.311 372.818 120.279L375.335 119.235C375.599 119.867 376.002 120.415 376.579 120.88C377.157 121.345 377.832 121.576 378.648 121.576C379.744 121.576 380.606 121.243 381.226 120.58C381.846 119.917 382.159 118.959 382.159 117.713V116.78H382.059C381.259 117.776 380.09 118.276 378.598 118.276C376.921 118.276 375.451 117.636 374.188 116.359C373.575 115.755 373.091 115.033 372.766 114.236C372.44 113.439 372.28 112.585 372.295 111.724C372.28 110.858 372.44 109.998 372.765 109.195C373.09 108.393 373.574 107.664 374.188 107.053C375.448 105.769 376.922 105.124 378.598 105.124C379.345 105.124 380.022 105.264 380.627 105.548C381.232 105.832 381.711 106.18 382.059 106.592H382.159V105.533H384.9V117.343C384.9 119.636 384.316 121.348 383.143 122.489C381.97 123.623 380.474 124.196 378.646 124.196L378.644 124.169ZM378.844 115.673C379.32 115.682 379.791 115.585 380.224 115.389C380.658 115.193 381.042 114.904 381.35 114.541C382.022 113.785 382.358 112.844 382.358 111.712C382.358 110.568 382.022 109.611 381.35 108.845C381.044 108.48 380.66 108.188 380.227 107.99C379.793 107.792 379.321 107.694 378.844 107.701C377.831 107.701 376.967 108.085 376.255 108.845C375.543 109.605 375.183 110.563 375.183 111.712C375.183 112.84 375.539 113.785 376.255 114.541C376.971 115.297 377.832 115.673 378.844 115.673ZM389.78 98.52V117.853H386.891V98.52H389.78ZM397.7 118.248C395.839 118.248 394.287 117.616 393.042 116.355C391.797 115.093 391.173 113.533 391.173 111.672C391.173 109.747 391.772 108.165 392.978 106.939C393.543 106.344 394.226 105.872 394.983 105.555C395.74 105.237 396.554 105.08 397.375 105.093C398.171 105.093 398.912 105.237 399.592 105.529C400.225 105.788 400.8 106.169 401.286 106.649C401.691 107.053 402.05 107.499 402.358 107.981C402.612 108.393 402.829 108.827 403.006 109.277L403.306 110.024L394.514 113.667C395.18 114.995 396.247 115.66 397.703 115.66C399.031 115.66 400.112 115.056 400.94 113.843L403.18 115.339C402.68 116.085 401.976 116.759 401.063 117.356C400.15 117.953 399.026 118.249 397.698 118.249L397.7 118.248ZM394.039 111.475L399.906 109.035C399.738 108.619 399.434 108.283 398.972 108.027C398.509 107.767 397.984 107.634 397.453 107.643C396.605 107.643 395.812 107.989 395.075 108.687C394.338 109.384 393.982 110.316 394.015 111.476L394.039 111.475ZM418.479 118.248C415.852 118.248 413.653 117.36 411.877 115.581C410.101 113.803 409.21 111.588 409.21 108.931C409.21 106.273 410.098 104.056 411.877 102.28C413.655 100.504 415.854 99.6134 418.479 99.6134C421.168 99.6134 423.354 100.587 425.03 102.527L423.436 104.073C422.236 102.561 420.57 101.807 418.476 101.807C416.53 101.807 414.895 102.463 413.543 103.776C412.191 105.089 411.538 106.805 411.538 108.931C411.538 111.056 412.205 112.776 413.543 114.091C414.882 115.405 416.52 116.06 418.476 116.06C420.618 116.06 422.446 115.196 423.943 113.471L425.536 115.064C424.702 116.06 423.654 116.856 422.47 117.393C421.214 117.971 419.846 118.263 418.465 118.249L418.479 118.248ZM429.887 117.853H427.594V100.017H429.887V117.853ZM433.624 107.107C434.804 105.871 436.291 105.249 438.134 105.249C439.976 105.249 441.463 105.869 442.643 107.107C443.823 108.344 444.412 109.907 444.412 111.753C444.412 113.6 443.826 115.163 442.643 116.4C441.46 117.637 439.976 118.257 438.134 118.257C436.291 118.257 434.804 117.637 433.624 116.4C432.444 115.163 431.855 113.6 431.855 111.753C431.855 109.907 432.442 108.344 433.624 107.107ZM435.331 114.951C436.131 115.755 437.057 116.159 438.131 116.159C439.206 116.159 440.131 115.755 440.931 114.951C441.731 114.147 442.115 113.077 442.115 111.751C442.115 110.424 441.719 109.353 440.931 108.551C440.143 107.748 439.206 107.343 438.131 107.343C437.057 107.343 436.131 107.747 435.331 108.551C434.531 109.355 434.147 110.424 434.147 111.751C434.147 113.077 434.543 114.148 435.331 114.951ZM457.091 117.853H454.898V116.16H454.798C454.451 116.74 453.918 117.236 453.205 117.627C452.491 118.017 451.738 118.24 450.938 118.24C449.408 118.24 448.253 117.776 447.465 116.844C446.677 115.912 446.281 114.667 446.281 113.107V105.632H448.574V112.731C448.574 115.008 449.578 116.144 451.587 116.144C452.037 116.154 452.482 116.055 452.886 115.855C453.289 115.656 453.639 115.363 453.904 115C454.497 114.248 454.814 113.316 454.8 112.359V105.632H457.094V117.841L457.091 117.853ZM464.862 118.249C463.284 118.249 461.92 117.625 460.776 116.38C459.632 115.135 459.059 113.591 459.059 111.745C459.059 109.9 459.632 108.356 460.776 107.111C461.92 105.865 463.286 105.241 464.862 105.241C465.79 105.241 466.627 105.441 467.368 105.837C468.11 106.233 468.662 106.733 469.026 107.333H469.126L469.026 105.64V100.013H471.319V117.853H469.126V116.16H469.026C468.662 116.756 468.11 117.256 467.368 117.656C466.628 118.048 465.791 118.249 464.862 118.249ZM465.235 116.156C465.753 116.163 466.266 116.06 466.74 115.854C467.215 115.648 467.64 115.343 467.988 114.96C468.744 114.164 469.122 113.091 469.122 111.76C469.122 110.429 468.746 109.343 467.988 108.56C467.64 108.177 467.215 107.872 466.74 107.666C466.266 107.46 465.753 107.357 465.235 107.364C464.171 107.364 463.258 107.768 462.494 108.572C461.73 109.376 461.35 110.445 461.35 111.772C461.35 113.099 461.73 114.169 462.494 114.972C462.839 115.356 463.262 115.663 463.734 115.871C464.207 116.079 464.719 116.185 465.235 116.18V116.156Z" fill="#5F6368"/>
<path d="M513.148 91.6187C513.148 94.6734 512.864 95.6679 512.135 96.4C511.326 97.0328 510.273 97.3804 509.18 97.3804L509.465 99.1258C511.155 99.1437 512.797 98.6281 514.079 97.6758C514.769 96.9492 515.281 96.1133 515.587 95.2133C515.89 94.3222 515.983 93.3728 515.858 92.4398V80.8812H513.148V91.6187ZM533.369 90.2422C533.369 91.5515 533.369 92.7203 533.488 93.7336H531.08L530.919 91.6554C530.415 92.3898 529.694 92.9976 528.831 93.4133C527.949 93.8355 526.98 94.0463 526.002 94.0289C523.655 94.0289 520.862 92.9304 520.862 88.4445V80.989H523.576V87.9718C523.576 90.3976 524.445 92.0211 526.893 92.0211C527.394 92.0276 527.892 91.9462 528.364 91.7804C528.82 91.6215 529.242 91.3794 529.609 91.0664C529.957 90.7698 530.238 90.4039 530.436 89.9922C530.626 89.5964 530.723 89.1619 530.717 88.7226V80.9008H533.427V90.1719L533.369 90.2422ZM538.509 85.1429C538.509 83.5187 538.509 82.1914 538.386 80.989H540.816L540.934 83.1711C541.477 82.3804 542.255 81.7336 543.19 81.2976C544.143 80.857 545.186 80.6487 546.235 80.6898C549.839 80.6898 552.549 83.2929 552.549 87.1664C552.549 91.7406 549.293 94.0109 545.771 94.0109C544.878 94.047 543.988 93.8812 543.168 93.5258C542.366 93.1742 541.679 92.65 541.178 92.0023V98.9851H538.509V85.1429ZM541.178 88.5453C541.184 88.8625 541.227 89.1797 541.301 89.4883C541.53 90.2633 542.051 90.95 542.784 91.4414C543.516 91.9328 544.419 92.1953 545.347 92.1953C548.201 92.1953 549.879 90.1875 549.879 87.2734C549.879 84.7242 548.301 82.5422 545.448 82.5422C544.319 82.6219 543.262 83.0523 542.476 83.757C541.691 84.4617 541.227 85.3867 541.179 86.3633L541.178 88.5453ZM557.38 80.9765L560.64 88.5C560.986 89.3554 561.302 90.2226 561.588 91.1C561.873 90.3336 562.174 89.3539 562.541 88.4476L565.494 80.9765H568.348L564.302 90.0531C562.278 94.4172 561.042 96.6687 559.18 98.0297C558.244 98.7719 557.099 99.2875 555.863 99.5312L555.195 97.5781C556.044 97.3395 556.845 96.9554 557.563 96.4429C558.549 95.7476 559.334 94.8625 559.849 93.8586C559.958 93.6881 560.034 93.4986 560.072 93.3C560.047 93.0875 559.985 92.881 559.889 92.6898L554.387 80.9398H557.34L557.38 80.9765ZM575.544 77.3148V80.9797H579.429V82.7258H575.544V89.6039C575.544 91.1758 576.072 92.082 577.568 92.082C578.098 92.0891 578.627 92.0359 579.145 91.9234L579.267 93.6719C578.486 93.9026 577.673 94.0078 576.859 93.9836C576.321 94.0135 575.782 93.942 575.269 93.7726C574.775 93.611 574.318 93.3505 573.927 93.007C573.103 92.0547 572.727 90.8711 572.874 89.6898V82.707H570.567V80.9617H572.913V77.8547L575.544 77.3148ZM584.425 87.764C584.37 88.3562 584.464 88.9515 584.702 89.5062C584.95 90.0783 585.326 90.5859 585.802 90.9898C586.29 91.4109 586.876 91.7344 587.523 91.939C588.166 92.1461 588.859 92.2258 589.543 92.1797C590.921 92.2094 592.293 91.984 593.59 91.5148L594.056 93.2601C592.466 93.8219 590.786 94.0887 589.1 94.0476C588.108 94.1054 587.116 93.9773 586.189 93.675C585.283 93.3824 584.445 92.9102 583.726 92.2867C583.03 91.6765 582.493 90.9437 582.157 90.1383C581.823 89.3447 581.691 88.4806 581.773 87.6234C581.773 83.7812 584.425 80.7453 588.755 80.7453C593.611 80.7453 594.826 84.4101 594.826 86.7508C594.849 87.1109 594.849 87.4711 594.826 87.8312H584.363L584.425 87.764ZM592.356 86.0187C592.435 85.5505 592.396 85.0699 592.244 84.6203C592.083 84.1572 591.818 83.7374 591.468 83.3937C591.099 83.0271 590.659 82.7404 590.174 82.5515C589.671 82.3519 589.135 82.2486 588.594 82.2469C587.483 82.3172 586.439 82.7406 585.673 83.4398C584.904 84.1351 584.467 85.0539 584.446 86.0179L592.356 86.0187ZM598.938 84.9445C598.938 83.4461 598.938 82.1515 598.817 80.9648H601.247V83.4609H601.368C601.622 82.6922 602.149 82.0078 602.873 81.5078C603.599 81.0078 604.487 80.7148 605.415 80.6687C605.668 80.6414 605.927 80.6414 606.184 80.6687V82.8508C605.874 82.8203 605.562 82.8203 605.253 82.8508C604.334 82.8812 603.459 83.1984 602.794 83.7445C602.125 84.2914 601.713 85.0297 601.63 85.8172C601.555 86.1765 601.515 86.5375 601.509 86.9V93.6906H598.838V84.9625L598.938 84.9445Z" fill="#4E4E4E"/>
<path d="M593.708 44.6883C593.758 45.8627 593.462 47.0258 592.857 48.0336C592.254 49.0365 591.367 49.8382 590.308 50.3376C589.252 50.8336 588.071 51.0023 586.918 50.8219C585.763 50.6419 584.687 50.1216 583.83 49.3274C582.968 48.5284 582.361 47.4929 582.086 46.3507C581.81 45.2085 581.877 44.0103 582.28 42.9063C582.677 41.8044 583.392 40.8447 584.333 40.1477C585.273 39.4541 586.398 39.0567 587.565 39.0063C588.339 38.9737 589.112 39.0947 589.839 39.3623C590.566 39.63 591.233 40.039 591.801 40.5657C592.954 41.6338 593.639 43.1145 593.705 44.6852L593.708 44.6883Z" fill="#767677"/>
<path d="M559.327 114.617C543.626 114.617 529.914 108.864 522.791 100.346C525.432 107.973 530.373 114.593 536.934 119.295C543.466 123.975 551.3 126.492 559.337 126.494C567.372 126.491 575.206 123.973 581.739 119.295C588.298 114.593 593.237 107.973 595.875 100.346C588.74 108.864 575.028 114.617 559.327 114.617ZM559.321 59.2211C575.023 59.2211 588.737 64.9766 595.857 73.4906C593.216 65.8643 588.275 59.2445 581.715 54.543C575.183 49.8627 567.35 47.344 559.315 47.3398C551.279 47.344 543.447 49.8627 536.915 54.543C530.354 59.2432 525.413 65.8635 522.774 73.4906C529.909 64.9922 543.619 59.2211 559.321 59.2211Z" fill="#F37726"/>
<path d="M537.769 131.175C537.834 132.656 537.461 134.122 536.698 135.393C535.94 136.657 534.823 137.667 533.488 138.294C532.154 138.92 530.663 139.136 529.206 138.912C527.749 138.687 526.394 138.028 525.316 137.023C524.233 136.015 523.47 134.712 523.121 133.275C522.777 131.832 522.862 130.321 523.366 128.926C523.871 127.536 524.776 126.326 525.966 125.447C527.352 124.428 529.049 123.925 530.767 124.023C532.484 124.121 534.113 124.815 535.374 125.984C536.825 127.333 537.686 129.199 537.769 131.178V131.175Z" fill="#9E9E9E"/>
<path d="M524.583 57.2953C523.72 57.3329 522.865 57.1108 522.13 56.6578C521.389 56.2039 520.8 55.5408 520.436 54.7521C520.072 53.9635 519.949 53.0847 520.084 52.2266C520.214 51.3663 520.597 50.5641 521.184 49.9219C521.765 49.2826 522.524 48.8302 523.363 48.6219C524.201 48.4125 525.083 48.4626 525.892 48.7657C526.704 49.0649 527.408 49.6007 527.913 50.3039C528.508 51.1268 528.802 52.1298 528.746 53.1441C528.689 54.1584 528.285 55.1222 527.601 55.8735C527.216 56.2981 526.751 56.6424 526.232 56.8865C525.714 57.1305 525.152 57.2695 524.58 57.2953H524.583Z" fill="#616262"/>
<path d="M671.985 105.224H649.199C647.252 105.224 645.669 103.642 645.669 101.695V71.7552C645.669 69.8084 647.252 68.2261 649.199 68.2261H671.985C673.932 68.2261 675.514 69.8084 675.514 71.7552V101.688C675.514 103.634 673.932 105.217 671.985 105.217V105.224Z" fill="#6762A6"/>
<path d="M664.373 100.134V85.4416C664.373 85.4416 665.321 81.927 652.604 86.8781C652.582 86.951 652.582 73.2937 652.582 73.2937L656.738 73.2645V82.0145C656.738 82.0145 668.383 77.4208 668.383 85.4926V100.134H664.373ZM666.742 78.551H662.331C663.921 76.6114 665.357 73.2864 665.357 73.2864H669.914C669.914 73.2864 669.134 75.452 666.742 78.551ZM652.648 100.105V91.7416L656.833 95.927L652.648 100.105Z" fill="white"/>
<path d="M691.964 99.0625V87.0312C691.964 86.1854 691.344 85.8135 690.608 85.8135C688.894 85.8466 687.203 86.2209 685.635 86.9146V99.0625H682.244V76.7208H685.635V84.0854C687.239 83.5021 689.164 82.9917 691.089 82.9917C694.166 82.9917 695.318 84.8875 695.318 87.4833V99.0771L691.964 99.0625ZM701.662 91.7708C701.771 95.8104 702.566 96.6052 705.053 96.6052C707 96.6052 709.209 95.949 710.901 95.3073L711.462 97.8594C709.654 98.676 707.452 99.4635 704.9 99.4635C699.249 99.4635 698.374 96.3573 698.374 91.4135C698.374 88.701 698.57 86.2365 699.219 83.976C700.911 83.3198 703.179 82.9844 706.03 82.9844C710.667 82.9844 712.082 85.5583 712.082 90.0573V91.7781H701.662V91.7708ZM705.964 85.8062C704.943 85.8062 703.339 85.8354 702.012 86.0979C701.866 86.776 701.699 87.7021 701.648 89.4302H708.72C708.72 87.0823 708.298 85.8135 705.979 85.8135L705.964 85.8062ZM718.36 86.9V99.0625H714.969V85.3979C717.406 84.1319 720.082 83.3916 722.823 83.225V86.0469C721.364 86.1562 719.687 86.3385 718.36 86.9219V86.9ZM731.777 99.4417C726.716 99.4417 724.427 96.9625 724.427 91.275C724.427 85.2594 727.453 82.9625 731.777 82.9625C736.837 82.9625 739.119 85.4417 739.119 91.1292C739.119 97.1448 736.093 99.4417 731.777 99.4417ZM731.777 85.8062C729.174 85.8062 727.737 87.301 727.737 91.2896C727.737 95.6427 728.955 96.6125 731.777 96.6125C734.373 96.6125 735.816 95.1396 735.816 91.1583C735.816 86.8052 734.599 85.8208 731.777 85.8208V85.8062ZM755.475 99.0552H751.493C750.56 96.576 749.262 93.951 747.264 91.8219H745.485V99.0552H742.094V76.7208H745.485V89.5542H747.067C748.753 87.7556 750.102 85.6686 751.049 83.3927H754.862C753.564 86.0177 751.894 88.3365 750.028 90.2323C752.161 92.9741 753.99 95.9398 755.482 99.0771L755.475 99.0552ZM761.833 99.449C758.756 99.449 757.604 97.5531 757.604 94.9573V83.3854H760.958V95.3948C760.958 96.2406 761.578 96.6125 762.314 96.6125C764.083 96.5806 765.828 96.2067 767.455 95.5115V83.3854H770.845V97.0062C766.835 99.2083 763.751 99.4635 761.833 99.4635V99.449Z" fill="#6762A6"/>
<defs>
<linearGradient id="paint0_linear_110_420" x1="575.565" y1="0" x2="575.565" y2="178" gradientUnits="userSpaceOnUse">
<stop/>
<stop offset="0.614583" stop-color="#D0D0D0"/>
<stop offset="1" stop-color="white"/>
</linearGradient>
<clipPath id="clip0_110_420">
<rect width="100" height="100" fill="white" transform="translate(52.5648 39)"/>
</clipPath>
<clipPath id="clip1_110_420">
<rect width="102.389" height="60" fill="white" transform="translate(183.565 59)"/>
</clipPath>
</defs>
</svg>
