<svg width="44" height="37" viewBox="0 0 44 37" fill="none" xmlns="http://www.w3.org/2000/svg">
<path d="M22.3041 0.5C33.0883 0.5 42.0603 8.25952 43.9413 18.5C42.0603 28.7404 33.0883 36.5 22.3041 36.5C11.5197 36.5 2.54777 28.7404 0.666748 18.5C2.54777 8.25952 11.5197 0.5 22.3041 0.5ZM22.3041 32.5C30.7753 32.5 38.0241 26.604 39.8589 18.5C38.0241 10.3961 30.7753 4.5 22.3041 4.5C13.8327 4.5 6.58391 10.3961 4.74903 18.5C6.58391 26.604 13.8327 32.5 22.3041 32.5ZM22.3041 27.5C17.3334 27.5 13.304 23.4706 13.304 18.5C13.304 13.5294 17.3334 9.5 22.3041 9.5C27.2745 9.5 31.3041 13.5294 31.3041 18.5C31.3041 23.4706 27.2745 27.5 22.3041 27.5ZM22.3041 23.5C25.0655 23.5 27.3041 21.2614 27.3041 18.5C27.3041 15.7386 25.0655 13.5 22.3041 13.5C19.5427 13.5 17.304 15.7386 17.304 18.5C17.304 21.2614 19.5427 23.5 22.3041 23.5Z" fill="black"/>
</svg>
