<svg width="41" height="41" viewBox="0 0 41 41" fill="none" xmlns="http://www.w3.org/2000/svg">
<path d="M10.0828 27.6336C12.5495 28.6113 14.2938 31.0187 14.2938 33.8333C14.2938 37.5153 11.309 40.5 7.62712 40.5C3.94523 40.5 0.960449 37.5153 0.960449 33.8333C0.960449 30.9307 2.81558 28.4611 5.40489 27.546V13.454C2.81558 12.5388 0.960449 10.0694 0.960449 7.16667C0.960449 3.48478 3.94523 0.5 7.62712 0.5C11.309 0.5 14.2938 3.48478 14.2938 7.16667C14.2938 10.0694 12.4386 12.5388 9.84934 13.454V20.4991C11.7064 19.1042 14.0146 18.2778 16.516 18.2778H25.4049C28.4793 18.2778 31.0676 16.1967 31.838 13.3665C29.3713 12.3886 27.6271 9.98136 27.6271 7.16667C27.6271 3.48478 30.6118 0.5 34.2938 0.5C37.9758 0.5 40.9605 3.48478 40.9605 7.16667C40.9605 10.1293 39.0278 12.6406 36.3547 13.5087C35.4542 18.7411 30.8945 22.7222 25.4049 22.7222H16.516C13.4416 22.7222 10.8533 24.8033 10.0828 27.6336ZM7.62712 31.6111C6.39983 31.6111 5.40489 32.606 5.40489 33.8333C5.40489 35.0607 6.39983 36.0556 7.62712 36.0556C8.85441 36.0556 9.84934 35.0607 9.84934 33.8333C9.84934 32.606 8.85441 31.6111 7.62712 31.6111ZM7.62712 4.94444C6.39983 4.94444 5.40489 5.93938 5.40489 7.16667C5.40489 8.39396 6.39983 9.38889 7.62712 9.38889C8.85441 9.38889 9.84934 8.39396 9.84934 7.16667C9.84934 5.93938 8.85441 4.94444 7.62712 4.94444ZM34.2938 4.94444C33.0665 4.94444 32.0716 5.93938 32.0716 7.16667C32.0716 8.39396 33.0665 9.38889 34.2938 9.38889C35.5211 9.38889 36.516 8.39396 36.516 7.16667C36.516 5.93938 35.5211 4.94444 34.2938 4.94444Z" fill="black"/>
</svg>
