<svg width="37" height="37" viewBox="0 0 37 37" fill="none" xmlns="http://www.w3.org/2000/svg">
<path d="M4.94116 16.701L8.94116 12.701L19.9412 23.701L26.9412 16.701L32.9412 22.701V4.5H4.94116V16.701ZM4.94116 22.3578V32.5H11.1422L17.1128 26.5294L8.94116 18.3578L4.94116 22.3578ZM16.799 32.5H32.9412V28.3578L26.9412 22.3578L16.799 32.5ZM2.94116 0.5H34.9412C36.0458 0.5 36.9412 1.39544 36.9412 2.5V34.5C36.9412 35.6046 36.0458 36.5 34.9412 36.5H2.94116C1.8366 36.5 0.941162 35.6046 0.941162 34.5V2.5C0.941162 1.39544 1.8366 0.5 2.94116 0.5ZM25.9412 14.5C24.2844 14.5 22.9412 13.1569 22.9412 11.5C22.9412 9.84314 24.2844 8.5 25.9412 8.5C27.598 8.5 28.9412 9.84314 28.9412 11.5C28.9412 13.1569 27.598 14.5 25.9412 14.5Z" fill="black"/>
</svg>
