<svg width="37" height="41" viewBox="0 0 37 41" fill="none" xmlns="http://www.w3.org/2000/svg">
<path d="M15.4838 3.94678C16.434 3.74838 17.4187 3.64407 18.428 3.64407C19.4372 3.64407 20.4219 3.74838 21.3721 3.94678L24.819 0.5L27.7146 3.39567L25.5655 5.54488C28.0877 6.9961 30.1266 9.19283 31.3816 11.8343H36.8559V15.9294H32.6156C32.7113 16.5981 32.7608 17.2818 32.7608 17.9769V20.0245H36.8559V24.1196H32.7608V26.1671C32.7608 26.8623 32.7113 27.546 32.6156 28.2147H36.8559V32.3098H31.3816C29.0812 37.1521 24.1455 40.5 18.428 40.5C12.7104 40.5 7.77475 37.1521 5.47439 32.3098H0V28.2147H4.24025C4.14459 27.546 4.0951 26.8623 4.0951 26.1671V24.1196H0V20.0245H4.0951V17.9769C4.0951 17.2818 4.14459 16.5981 4.24025 15.9294H0V11.8343H5.47439C6.72921 9.19283 8.76816 6.9961 11.2904 5.54488L9.14123 3.39567L12.0369 0.5L15.4838 3.94678ZM18.428 7.73917C12.7738 7.73917 8.1902 12.3228 8.1902 17.9769V26.1671C8.1902 31.8213 12.7738 36.4049 18.428 36.4049C24.0821 36.4049 28.6657 31.8213 28.6657 26.1671V17.9769C28.6657 12.3228 24.0821 7.73917 18.428 7.73917ZM12.2853 24.1196H24.5706V28.2147H12.2853V24.1196ZM12.2853 15.9294H24.5706V20.0245H12.2853V15.9294Z" fill="black"/>
</svg>
