<svg width="1151" height="178" viewBox="0 0 1151 178" fill="none" xmlns="http://www.w3.org/2000/svg">
<rect x="0.564819" width="1150" height="178" rx="5" fill="url(#paint0_linear_110_415)" fill-opacity="0.3"/>
<path d="M73.4048 69.725H79.4388V97.655C76.3438 98.243 74.0708 98.478 71.6018 98.478C64.2348 98.478 60.3948 95.148 60.3948 88.761C60.3948 82.609 64.4698 78.613 70.7778 78.613C71.7578 78.613 72.5018 78.691 73.4028 78.926L73.4048 69.725ZM73.4048 83.785C72.6998 83.55 72.1118 83.472 71.3678 83.472C68.3118 83.472 66.5478 85.352 66.5478 88.644C66.5478 91.857 68.2328 93.62 71.3278 93.62C72.023 93.6187 72.7172 93.5665 73.4048 93.464V83.785ZM89.0388 79.045V93.033C89.0388 97.853 88.6858 100.163 87.6388 102.163C86.6588 104.083 85.3658 105.298 82.7018 106.63L77.0988 103.965C79.7638 102.711 81.0558 101.615 81.8788 99.929C82.7408 98.205 83.0158 96.207 83.0158 90.956V79.056L89.0388 79.045ZM83.0048 69.76H89.0388V75.96H83.0048V69.76ZM92.6828 80.416C95.3478 79.162 97.8828 78.614 100.677 78.614C103.772 78.614 105.81 79.437 106.711 81.044C107.211 81.944 107.377 83.121 107.377 85.629V97.9C104.673 98.292 101.264 98.566 98.7568 98.566C93.7028 98.566 91.4298 96.802 91.4298 92.884C91.4298 88.652 94.4468 86.684 101.853 86.066V84.734C101.853 83.637 101.303 83.234 99.7758 83.234C97.5428 83.234 95.0358 83.861 92.6838 85.076V80.413L92.6828 80.416ZM102.126 90.016C98.1288 90.408 96.8258 91.036 96.8258 92.602C96.8258 93.777 97.5708 94.326 99.2258 94.326C100.126 94.326 100.95 94.248 102.126 94.052V90.016ZM110.326 79.986C113.891 79.046 116.83 78.616 119.808 78.616C122.903 78.616 125.138 79.321 126.47 80.693C127.724 81.986 128.115 83.396 128.115 86.413V98.246H122.081V86.646C122.081 84.334 121.297 83.472 119.141 83.472C118.318 83.472 117.574 83.55 116.359 83.902V98.242H110.315L110.326 79.986ZM130.451 101.536C132.567 102.633 134.683 103.142 136.916 103.142C140.873 103.142 142.558 101.536 142.558 97.696V97.578C141.383 98.165 140.208 98.401 138.64 98.401C133.34 98.401 129.98 94.914 129.98 89.389C129.98 82.531 134.957 78.653 143.772 78.653C146.358 78.653 148.749 78.927 151.648 79.515L149.582 83.868C147.975 83.555 149.452 83.826 148.239 83.708V84.335L148.317 86.881L148.357 90.173C148.397 90.996 148.397 91.819 148.437 92.641V94.287C148.437 99.459 148.007 101.887 146.713 103.887C144.833 106.827 141.58 108.287 136.956 108.287C134.606 108.287 132.568 107.934 130.452 107.111V101.547L130.451 101.536ZM142.451 83.512H141.824C140.649 83.472 139.278 83.786 138.337 84.374C136.887 85.197 136.143 86.686 136.143 88.802C136.143 91.819 137.643 93.542 140.297 93.542C141.12 93.542 141.797 93.385 142.569 93.15V91.073C142.569 90.368 142.529 89.573 142.529 88.761L142.489 85.979L142.449 83.981V83.511L142.451 83.512ZM161.015 78.536C167.049 78.536 170.732 82.336 170.732 88.489C170.732 94.789 166.892 98.755 160.779 98.755C154.745 98.755 151.022 94.955 151.022 88.842C151.022 82.494 154.862 78.537 161.014 78.537L161.015 78.536ZM160.897 93.896C163.209 93.896 164.581 91.976 164.581 88.646C164.581 85.346 163.249 83.396 160.937 83.396C158.537 83.396 157.175 85.316 157.175 88.646C157.175 91.976 158.547 93.896 160.897 93.896Z" fill="#092E20"/>
<path d="M250.565 83.375C254.578 83.375 257.83 80.1221 257.83 76.1094C257.83 72.0967 254.578 68.8438 250.565 68.8438C246.552 68.8438 243.299 72.0967 243.299 76.1094C243.299 80.1221 246.552 83.375 250.565 83.375Z" fill="#61DAFB"/>
<path d="M250.565 102.828C256.268 108.375 261.893 111.656 266.424 111.656C267.909 111.656 269.315 111.344 270.487 110.641C274.549 108.297 276.034 102.438 274.627 94.0781C274.393 92.5938 274.08 91.1094 273.69 89.5469C275.252 89.0781 276.659 88.6094 278.065 88.1406C285.955 85.0938 290.33 80.875 290.33 76.2656C290.33 71.5781 285.955 67.3594 278.065 64.3906C276.659 63.8437 275.252 63.375 273.69 62.9844C274.08 61.4219 274.393 59.9375 274.627 58.4531C275.955 49.9375 274.471 44 270.409 41.6563C269.237 40.9531 267.83 40.6406 266.346 40.6406C261.893 40.6406 256.19 43.9219 250.487 49.4687C244.862 43.9219 239.237 40.6406 234.705 40.6406C233.221 40.6406 231.815 40.9531 230.643 41.6563C226.58 44 225.096 49.8594 226.502 58.2188C226.737 59.7031 227.049 61.1875 227.44 62.75C225.877 63.2187 224.471 63.6875 223.065 64.1563C215.174 67.2031 210.799 71.4219 210.799 76.0313C210.799 80.7188 215.174 84.9375 223.065 87.9062C224.471 88.4531 225.877 88.9219 227.44 89.3125C227.049 90.875 226.737 92.3594 226.502 93.8437C225.174 102.203 226.659 108.141 230.643 110.406C231.815 111.109 233.221 111.422 234.705 111.422C239.237 111.578 244.862 108.297 250.565 102.828ZM246.19 92.2812C247.596 92.3594 249.08 92.3594 250.565 92.3594C252.049 92.3594 253.534 92.3594 254.94 92.2812C253.534 94.1562 252.049 95.875 250.565 97.5156C249.08 95.875 247.596 94.1562 246.19 92.2812ZM236.502 84.2344C237.284 85.5625 237.987 86.8125 238.846 88.0625C236.424 87.75 234.159 87.3594 231.971 86.8906C232.674 84.7813 233.455 82.5938 234.393 80.4063C235.018 81.6563 235.721 82.9844 236.502 84.2344ZM231.971 65.4062C234.159 64.9375 236.424 64.5469 238.846 64.2344C238.065 65.4844 237.284 66.7344 236.502 68.0625C235.721 69.3906 235.018 70.6406 234.393 71.9688C233.377 69.7031 232.596 67.5156 231.971 65.4062ZM236.268 76.1094C237.284 74 238.377 71.8906 239.627 69.7813C240.799 67.75 242.127 65.7187 243.455 63.6875C245.799 63.5312 248.143 63.4531 250.565 63.4531C253.065 63.4531 255.409 63.5312 257.674 63.6875C259.08 65.7187 260.33 67.75 261.502 69.7813C262.752 71.8906 263.846 74 264.862 76.1094C263.846 78.2188 262.752 80.3281 261.502 82.4375C260.33 84.4687 259.002 86.5 257.674 88.5313C255.33 88.6875 252.987 88.7656 250.565 88.7656C248.065 88.7656 245.721 88.6875 243.455 88.5313C242.049 86.5 240.799 84.4687 239.627 82.4375C238.377 80.3281 237.284 78.2188 236.268 76.1094ZM266.815 71.8906L264.705 67.9844C263.924 66.6562 263.221 65.4063 262.362 64.1563C264.784 64.4688 267.049 64.8594 269.237 65.3281C268.534 67.5156 267.752 69.7031 266.815 71.8906ZM266.815 80.3281C267.752 82.5156 268.534 84.7031 269.237 86.8125C267.049 87.2813 264.784 87.6719 262.362 87.9844C263.143 86.7344 263.924 85.4844 264.705 84.1563C265.409 82.9844 266.112 81.6563 266.815 80.3281ZM268.612 107.438C267.987 107.828 267.205 107.984 266.346 107.984C262.518 107.984 257.752 104.859 253.065 100.172C255.33 97.75 257.518 95.0156 259.705 91.9688C263.377 91.6563 266.893 91.1094 270.174 90.3281C270.565 91.7344 270.799 93.1406 271.034 94.5469C272.127 101.188 271.268 105.953 268.612 107.438ZM272.674 66.2656C281.424 68.7656 286.659 72.5938 286.659 76.1094C286.659 79.1563 283.065 82.2031 276.737 84.625C275.487 85.0938 274.08 85.5625 272.674 85.9531C271.659 82.75 270.409 79.4688 268.846 76.1094C270.409 72.75 271.737 69.4688 272.674 66.2656ZM266.424 44.2344C267.284 44.2344 267.987 44.3906 268.69 44.7813C271.268 46.2656 272.205 50.9531 271.112 57.6719C270.877 59 270.565 60.4062 270.252 61.8906C266.971 61.1875 263.455 60.6406 259.784 60.25C257.674 57.2031 255.409 54.4688 253.143 52.0469C257.83 47.4375 262.596 44.2344 266.424 44.2344ZM254.94 59.9375C253.534 59.8594 252.049 59.8594 250.565 59.8594C249.08 59.8594 247.596 59.8594 246.19 59.9375C247.596 58.0625 249.08 56.3437 250.565 54.7031C252.049 56.3437 253.534 58.1406 254.94 59.9375ZM232.518 44.7813C233.143 44.3906 233.924 44.2344 234.784 44.2344C238.612 44.2344 243.377 47.3594 248.065 52.0469C245.799 54.4688 243.612 57.2031 241.424 60.25C237.752 60.5625 234.237 61.1094 230.955 61.8906C230.565 60.4844 230.33 59.0781 230.096 57.6719C229.002 51.0312 229.862 46.3438 232.518 44.7813ZM228.455 85.9531C219.705 83.4531 214.471 79.625 214.471 76.1094C214.471 73.0625 218.065 70.0156 224.393 67.5938C225.643 67.125 227.049 66.6563 228.455 66.2656C229.471 69.4688 230.721 72.75 232.284 76.1094C230.721 79.4688 229.393 82.8281 228.455 85.9531ZM230.096 94.5469C230.33 93.2187 230.643 91.8125 230.955 90.3281C234.237 91.0312 237.752 91.5781 241.424 91.9688C243.534 95.0156 245.799 97.75 248.065 100.172C243.377 104.781 238.612 107.984 234.784 107.984C233.924 107.984 233.221 107.828 232.518 107.438C229.862 105.953 229.002 101.188 230.096 94.5469ZM226.815 126.734C228.534 124.625 228.612 122.281 227.674 119.938C226.737 117.594 224.784 116.5 222.362 116.422C219.471 116.344 216.502 116.422 213.612 116.422H213.065V136.656H215.409V129H219.08C219.549 129 219.94 129.156 220.174 129.547L224.862 136.812C224.94 136.969 225.174 137.203 225.33 137.203H228.377C226.502 134.312 224.705 131.578 222.83 128.766C224.471 128.531 225.877 127.984 226.815 126.734ZM215.409 126.578V118.844H216.268C218.065 118.844 219.94 118.766 221.737 118.922C223.846 119 225.33 120.641 225.33 122.75C225.33 124.859 223.612 126.5 221.502 126.578C219.627 126.656 217.752 126.578 215.409 126.578ZM245.643 127.594C244.393 122.125 239.393 120.719 235.565 122.438C232.596 123.766 231.268 126.344 231.19 129.547C231.112 131.969 231.815 134.156 233.69 135.797C235.799 137.672 238.377 137.906 241.034 137.438C242.518 137.125 243.846 136.422 244.862 135.328C244.471 134.781 244.08 134.234 243.69 133.766C241.502 135.641 239.08 136.266 236.424 135.016C234.705 134.156 233.846 132.047 233.69 130.484H245.799V129.469C245.877 128.766 245.799 128.141 245.643 127.594ZM233.846 128.844C233.612 126.5 235.955 124 238.534 124C241.502 123.922 243.377 125.719 243.455 128.844H233.846ZM257.83 122.047C256.659 121.813 255.409 121.734 254.237 121.813C252.362 121.969 250.721 122.828 249.393 124.234C249.784 124.781 250.096 125.328 250.565 125.953C250.721 125.797 250.877 125.641 251.034 125.563C252.284 124.391 253.768 123.766 255.565 123.922C256.971 124 258.299 124.469 258.69 125.875C259.002 126.969 258.924 128.141 259.002 129.312C258.768 129.312 258.69 129.234 258.612 129.156C256.737 127.594 254.627 127.281 252.362 127.828C250.252 128.375 248.924 130.016 248.768 132.125C248.612 134.547 249.705 136.344 251.815 137.203C253.143 137.75 254.627 137.75 256.034 137.438C257.127 137.203 257.596 136.578 259.159 135.719V136.734H261.346C261.346 133.609 261.424 129.781 261.346 126.188C261.346 123.922 260.018 122.516 257.83 122.047ZM258.924 131.891C258.846 132.125 258.924 132.359 258.924 132.594C258.924 134.234 258.534 134.781 256.971 135.406C255.877 135.797 254.705 135.953 253.534 135.562C252.205 135.172 251.268 134 251.268 132.672C251.19 131.344 252.049 130.016 253.377 129.625C255.174 129 256.815 129.391 258.299 130.484C258.768 130.875 259.08 131.266 258.924 131.891ZM271.112 124.156C273.143 123.531 275.018 123.922 276.424 125.641L276.659 125.797C277.205 125.328 277.674 124.859 278.299 124.312C278.065 124.078 277.987 123.922 277.83 123.688C275.565 121.266 271.112 120.953 268.377 122.906C264.549 125.719 264.627 131.187 266.502 134.078C268.299 136.812 270.877 137.75 273.924 137.359C275.721 137.125 277.205 136.266 278.377 134.781C277.83 134.312 277.284 133.844 276.737 133.297C276.58 133.453 276.502 133.531 276.424 133.687C274.315 136.031 270.799 135.797 268.924 133.297C267.83 131.812 267.596 130.094 267.909 128.375C268.065 126.422 269.08 124.859 271.112 124.156ZM287.362 134.781C287.205 134.859 287.127 134.938 287.127 134.938C286.502 135.406 285.877 135.484 285.174 135.25C284.471 134.937 284.393 134.312 284.315 133.687V124.781C284.315 124.625 284.315 124.938 284.393 124.156H287.362V121.813H284.237V117.906H281.893V122.125H279.862C279.705 122.125 279.471 122.281 279.471 122.438C279.393 122.984 279.471 123.375 279.471 124.156H281.971V134.156C281.971 135.406 282.284 136.5 283.377 137.125C284.549 137.828 286.815 137.672 287.83 136.812C287.987 136.734 288.065 136.422 288.065 136.344C287.83 135.875 287.596 135.328 287.362 134.781Z" fill="#61DAFB"/>
<path fill-rule="evenodd" clip-rule="evenodd" d="M407.855 43.0979L434.42 58.1254L434.711 68.5961L417.066 59.9674L416.872 67.4327L426.373 71.8924L426.761 83.0418L417.55 79.5516L418.229 97.2937L407.952 91.7675L407.855 43.0979Z" fill="#A5AAAA" fill-opacity="0.392157"/>
<path fill-rule="evenodd" clip-rule="evenodd" d="M338.155 61.9502L372.406 42.4043L373.151 52.3634L362.447 58.5995L363.006 97.1329L353.791 101.973L352.209 64.8356L339.085 72.3747L338.248 62.3225L338.155 61.9502Z" fill="#A5AAAA" fill-opacity="0.392157"/>
<path d="M382.924 87.3521L390.187 83.1509L397.347 87.3521L390.187 91.4864L382.924 87.4509V87.3521Z" fill="#F6BD3A"/>
<path d="M361.128 74.8992L390.187 58.3942L411.81 70.6858L404.622 83.1505L390.187 74.8992L368.396 87.2686L361.128 74.8992Z" fill="#F6BD3A"/>
<path d="M382.924 103.858V95.6297L390.088 91.4864L397.347 87.3521V95.6297L390.187 99.7419V107.975L382.924 112.193V103.858ZM382.924 87.3521L375.664 83.2386L368.396 87.2682V79.0238L390.187 66.6451V83.1502L382.924 87.3521ZM404.523 79.0242V74.8992L411.81 70.6859L411.883 78.9375L404.622 83.1505L404.523 79.0242Z" fill="#EB8C23"/>
<path d="M375.664 107.823V83.2386L382.825 79.2103L382.924 87.3521L390.187 91.4119V99.7419L382.924 95.8759V112.193L375.664 107.823ZM364.71 85.1224L361.128 82.9779V74.8996L368.396 79.0245V87.2689L364.71 85.1224ZM390.187 74.8992V66.6455L404.523 74.8992L404.622 83.1505L390.187 74.8992Z" fill="#E35A2B"/>
<path d="M335.787 120.882V136.617H333.019V120.882H327.636V118.165H341.17V120.882H335.787Z" fill="#EF6639"/>
<path d="M350.334 126.61C350.575 127.442 350.582 128.575 350.558 128.687L341.619 131.353C341.696 132.016 341.667 131.748 341.882 132.211C342.099 132.695 342.355 133.107 342.675 133.402C342.992 133.696 343.349 133.927 343.732 134.091C344.116 134.24 344.533 134.315 344.942 134.314C345.519 134.314 346.06 134.223 346.533 134.013C347.029 133.818 347.491 133.56 347.944 133.216L349.562 134.928C348.949 135.513 348.26 135.96 347.496 136.279C346.754 136.617 345.848 136.751 344.779 136.751C343.979 136.751 343.203 136.617 342.476 136.279C341.749 135.96 341.106 135.489 340.569 134.9C340.014 134.264 339.587 133.523 339.277 132.629C338.95 131.736 338.796 130.716 338.796 129.568C338.796 128.371 338.937 127.327 339.243 126.433C339.548 125.539 339.956 124.804 340.48 124.184C341.015 123.581 341.656 123.115 342.393 122.809C343.14 122.485 343.974 122.325 344.868 122.325C345.848 122.325 346.699 122.516 347.434 122.882C348.171 123.255 348.777 123.753 349.25 124.39C349.746 125.028 350.097 125.744 350.334 126.61ZM347.738 127.217C347.712 126.762 347.378 126.189 347.1 125.819C346.866 125.49 346.504 125.206 346.123 125.062C345.715 124.905 345.167 124.834 344.676 124.859C343.769 124.895 342.763 125.198 342.254 125.907C341.744 126.616 341.599 127.78 341.619 129.045L347.738 127.217ZM360.378 136.482V128.638C360.378 127.216 360.122 126.241 359.619 125.679C359.122 125.118 358.423 124.836 357.521 124.836C356.61 124.836 355.913 125.153 355.422 125.745C354.919 126.381 354.684 127.236 354.684 128.359V136.482H351.965V122.618H354.684V123.944C355.024 123.434 355.524 123.038 356.149 122.758C356.774 122.477 357.444 122.325 358.159 122.325C359.782 122.325 361.009 122.847 361.839 123.893C362.673 124.922 363.095 126.47 363.095 128.535V136.482H360.378ZM374.256 132.834C374.256 133.6 374.115 134.24 373.829 134.779C373.536 135.278 373.151 135.711 372.675 136.035C372.191 136.342 371.648 136.571 371.023 136.723C370.398 136.844 369.752 136.928 369.065 136.928C368.111 136.928 367.159 136.739 366.227 136.407C365.278 136.075 364.461 135.666 363.748 135.147L364.994 133.108C365.647 133.561 366.317 133.899 367.018 134.125C367.713 134.352 368.389 134.467 369.028 134.467C370.717 134.467 371.565 133.957 371.565 132.936C371.565 132.424 371.283 131.974 370.716 131.662C370.143 131.355 369.357 130.998 368.34 130.615C367.6 130.334 366.978 130.047 366.467 129.755C365.947 129.482 365.514 129.14 365.195 128.805C364.875 128.474 364.64 128.123 364.488 127.689C364.359 127.292 364.283 126.802 364.283 126.265C364.283 125.63 364.398 125.093 364.627 124.633C364.85 124.157 365.183 123.745 365.609 123.446C366.018 123.116 366.525 122.882 367.102 122.72C367.689 122.567 368.326 122.485 369.015 122.485C369.883 122.485 370.731 122.63 371.559 122.911C372.364 123.191 373.096 123.562 373.709 124.015L372.523 126.089C371.961 125.704 371.387 125.403 370.801 125.197C370.215 125.015 369.59 124.923 368.926 124.923C368.263 124.923 367.772 125.038 367.484 125.28C367.179 125.516 367.034 125.819 367.034 126.195C367.034 126.355 367.064 126.535 367.14 126.655C367.205 126.82 367.332 126.989 367.535 127.121C367.715 127.298 367.988 127.443 368.307 127.623C368.627 127.78 369.066 127.986 369.584 128.191C370.367 128.473 371.043 128.784 371.623 129.03C372.192 129.32 372.694 129.614 373.09 129.959C373.485 130.303 373.776 130.726 373.965 131.179C374.167 131.632 374.256 132.195 374.256 132.834ZM386.898 129.633C386.898 130.78 386.744 131.807 386.414 132.713C386.107 133.619 385.671 134.372 385.105 135.02C384.538 135.622 383.875 136.106 383.121 136.425C382.37 136.745 381.534 136.928 380.636 136.928C379.767 136.928 378.952 136.733 378.212 136.39C377.472 136.052 376.834 135.588 376.286 134.927C375.749 134.313 375.31 133.56 375.015 132.657C374.698 131.788 374.55 130.818 374.55 129.708C374.55 128.576 374.704 127.567 375.021 126.674C375.341 125.781 375.769 125.033 376.323 124.408C376.89 123.783 377.529 123.3 378.282 122.98C379.034 122.655 379.835 122.484 380.724 122.484C381.592 122.484 382.42 122.655 383.178 122.995C383.915 123.334 384.593 123.835 385.144 124.441C385.692 125.061 386.124 125.812 386.432 126.692C386.746 127.574 386.898 128.576 386.898 129.633ZM384.143 129.708C384.143 128.293 383.843 127.164 383.218 126.311C382.592 125.505 381.72 125.07 380.622 125.07C379.576 125.07 378.76 125.505 378.179 126.311C377.581 127.164 377.287 128.256 377.287 129.633C377.287 131.179 377.611 132.319 378.249 133.122C378.873 133.925 379.716 134.35 380.741 134.35C381.252 134.35 381.72 134.223 382.153 133.969C382.562 133.715 382.931 133.389 383.234 132.991C383.519 132.549 383.748 132.085 383.914 131.521C384.078 130.952 384.143 130.359 384.143 129.708ZM395.665 125.642C395.356 125.514 395.053 125.385 394.734 125.289C394.418 125.193 394.028 125.155 393.569 125.155C392.702 125.155 392.038 125.449 391.562 126.06C391.094 126.649 390.852 127.552 390.852 128.703V136.617H388.135V122.771H390.852V124.097C391.164 123.638 391.61 123.261 392.159 122.943C392.708 122.648 393.327 122.485 394.015 122.485C394.576 122.485 395.042 122.542 395.411 122.636C395.773 122.726 396.094 122.882 396.354 123.064L395.665 125.642Z" fill="#EF6639"/>
<path d="M400.203 120.882V125.716H405.523V128.433H400.203V136.617H397.458V118.165H409.359V120.882H400.203ZM409.807 136.617V118.817L412.525 117.388V136.617H409.807V136.617ZM426.378 129.633C426.378 130.78 426.248 131.807 425.915 132.713C425.588 133.618 425.153 134.372 424.592 135.02C424.03 135.622 423.379 136.106 422.633 136.425C421.85 136.745 421.047 136.928 420.14 136.928C419.248 136.928 418.438 136.733 417.716 136.39C416.968 136.052 416.326 135.588 415.79 134.927C415.253 134.313 414.813 133.56 414.496 132.657C414.202 131.788 414.031 130.818 414.031 129.708C414.031 128.576 414.208 127.567 414.515 126.674C414.822 125.781 415.266 125.033 415.835 124.408C416.394 123.783 417.033 123.3 417.762 122.98C418.537 122.655 419.344 122.484 420.228 122.484C421.097 122.484 421.925 122.655 422.665 122.995C423.423 123.334 424.103 123.835 424.647 124.441C425.196 125.061 425.618 125.812 425.915 126.692C426.254 127.573 426.378 128.575 426.378 129.633ZM423.65 129.708C423.65 128.293 423.324 127.164 422.722 126.311C422.073 125.505 421.224 125.07 420.126 125.07C419.081 125.07 418.259 125.505 417.66 126.311C417.078 127.164 416.785 128.256 416.785 129.633C416.785 131.179 417.093 132.319 417.753 133.122C418.367 133.925 419.22 134.35 420.251 134.35C420.752 134.35 421.224 134.223 421.634 133.969C422.063 133.714 422.412 133.389 422.74 132.991C423.023 132.549 423.252 132.085 423.423 131.521C423.559 130.952 423.65 130.359 423.65 129.708ZM439.796 136.617H437.472L435.599 129.633C435.443 129.105 435.322 128.575 435.206 128.007C435.069 127.446 434.973 127.006 434.874 126.674C434.784 127.122 434.688 127.569 434.585 128.014C434.451 128.575 434.305 129.137 434.189 129.67L432.334 136.617H429.994L426.211 122.771H428.892L430.547 129.494C430.674 130.046 430.8 130.615 430.919 131.179C431.046 131.747 431.137 132.201 431.236 132.539L431.58 131.179C431.697 130.615 431.837 130.046 431.99 129.494L433.847 122.771H436.009L437.907 129.53C438.042 130.071 438.159 130.615 438.298 131.179C438.437 131.747 438.546 132.2 438.624 132.538C438.721 132.2 438.832 131.742 438.948 131.168C439.058 130.614 439.174 130.046 439.313 129.493L440.969 122.77H443.648L439.796 136.617Z" fill="#A6A7A9"/>
<g clip-path="url(#clip0_110_415)">
<path fill-rule="evenodd" clip-rule="evenodd" d="M525.049 101.085V78.3579H527.971L541.86 96.6479V78.3579H544.637V101.085H541.715L527.826 82.6147V101.085H525.049ZM567.256 100.183C565.417 100.869 563.432 101.229 561.34 101.229C553.115 101.229 549.002 97.2973 549.002 89.3968C549.002 81.9293 552.971 78.1775 560.907 78.1775C563.18 78.1775 565.308 78.5022 567.256 79.1155V81.6407C565.308 80.8831 563.288 80.5224 561.232 80.5224C555.027 80.5224 551.924 83.4805 551.924 89.3247C551.924 95.6378 554.991 98.7763 561.088 98.7763C562.062 98.7763 563.144 98.632 564.334 98.3795V90.7677H567.256V100.183ZM571.946 92.3189V78.3579H574.868V92.3189C574.868 96.684 577.033 98.8846 581.398 98.8846C585.727 98.8846 587.927 96.684 587.927 92.3189V78.3579H590.849V92.3189C590.849 98.2713 587.711 101.266 581.398 101.266C575.085 101.266 571.946 98.2713 571.946 92.3189ZM599.002 78.3579V98.7042H610.907V101.085H596.08V78.3579H599.002ZM615.128 101.085H612.062L623.353 75.3636L634.645 101.085H631.398L628.476 93.9423H620.972L621.766 91.5613H627.502L623.245 81.28L615.128 101.085ZM637.783 101.085V78.3579H647.487C651.816 78.3579 653.981 80.1616 653.981 83.8052C653.981 86.7634 651.852 88.9639 647.632 90.3709L655.424 101.085H651.564L644.349 90.8759V88.9639C648.678 88.2785 650.878 86.6191 650.878 83.9495C650.878 81.8572 649.688 80.811 647.271 80.811H640.777V101.085H637.783Z" fill="#B52E31"/>
<path fill-rule="evenodd" clip-rule="evenodd" d="M470.719 72.2973L493.988 64L517.87 72.153L514.01 102.925L493.988 114L474.291 103.069L470.719 72.2973Z" fill="#E23237"/>
<path fill-rule="evenodd" clip-rule="evenodd" d="M517.869 72.153L493.988 64V114L514.009 102.925L517.869 72.153Z" fill="#B52E31"/>
<path fill-rule="evenodd" clip-rule="evenodd" d="M494.024 69.8441L479.522 102.095L484.933 101.987L487.855 94.6998H500.806L503.981 102.059L509.139 102.167L494.024 69.8441ZM494.06 80.1977L498.966 90.443H489.767L494.06 80.1977Z" fill="white"/>
</g>
<g clip-path="url(#clip1_110_415)">
<path d="M745.038 129C744.595 129 744.182 128.882 743.797 128.675L739.87 126.342C739.279 126.017 739.575 125.899 739.752 125.84C740.549 125.575 740.697 125.515 741.524 125.043C741.612 124.984 741.73 125.014 741.819 125.073L744.831 126.874C744.949 126.933 745.097 126.933 745.185 126.874L756.968 120.052C757.087 119.993 757.146 119.875 757.146 119.727V106.114C757.146 105.966 757.087 105.848 756.968 105.789L745.185 98.9966C745.067 98.9373 744.92 98.9373 744.831 98.9966L733.048 105.789C732.93 105.848 732.871 105.995 732.871 106.113V119.727C732.871 119.846 732.93 119.993 733.048 120.052L736.267 121.913C738.01 122.798 739.102 121.765 739.102 120.731V107.295C739.102 107.118 739.25 106.94 739.457 106.94H740.963C741.14 106.94 741.317 107.088 741.317 107.295V120.731C741.317 123.064 740.047 124.423 737.832 124.423C737.153 124.423 736.621 124.423 735.115 123.684L732.015 121.913C731.247 121.47 730.774 120.643 730.774 119.757V106.143C730.774 105.257 731.247 104.43 732.015 103.987L743.797 97.1655C744.536 96.7521 745.54 96.7521 746.278 97.1655L758.061 103.987C758.829 104.43 759.301 105.257 759.301 106.143V119.757C759.301 120.643 758.829 121.47 758.061 121.913L746.278 128.734C745.894 128.912 745.451 129 745.038 129H745.038ZM748.67 119.639C743.502 119.639 742.439 117.276 742.439 115.268C742.439 115.091 742.587 114.914 742.794 114.914H744.329C744.506 114.914 744.654 115.032 744.654 115.209C744.89 116.774 745.569 117.542 748.7 117.542C751.18 117.542 752.244 116.981 752.244 115.652C752.244 114.884 751.948 114.323 748.08 113.939C744.861 113.614 742.853 112.906 742.853 110.337C742.853 107.944 744.861 106.527 748.227 106.527C752.007 106.527 753.868 107.826 754.104 110.661C754.104 110.75 754.075 110.838 754.015 110.927C753.956 110.986 753.868 111.045 753.779 111.045H752.244C752.096 111.045 751.948 110.927 751.919 110.779C751.564 109.155 750.649 108.624 748.227 108.624C745.51 108.624 745.185 109.569 745.185 110.277C745.185 111.134 745.569 111.399 749.231 111.872C752.864 112.345 754.577 113.024 754.577 115.563C754.547 118.162 752.421 119.639 748.67 119.639Z" fill="#539E43"/>
<path d="M708.478 75.7552C708.478 75.2238 708.183 74.7214 707.71 74.4557L695.189 67.2502C694.982 67.1319 694.746 67.0729 694.51 67.0432H694.392C694.156 67.0432 693.919 67.1319 693.713 67.2502L681.191 74.4557C680.719 74.7214 680.424 75.2235 680.424 75.7552L680.453 95.1276C680.453 95.3933 680.601 95.659 680.837 95.7773C681.073 95.925 681.368 95.925 681.575 95.7773L689.017 91.5248C689.49 91.2591 689.785 90.757 689.785 90.2255V81.1594C689.785 80.6279 690.08 80.1258 690.553 79.8601L693.713 78.0291C693.949 77.8814 694.215 77.8221 694.48 77.8221C694.746 77.8221 695.012 77.8814 695.219 78.0291L698.379 79.8601C698.851 80.1258 699.146 80.6276 699.146 81.1594V90.2255C699.146 90.757 699.442 91.2591 699.914 91.5248L707.356 95.7773C707.592 95.925 707.888 95.925 708.124 95.7773C708.36 95.659 708.508 95.3933 708.508 95.1276L708.478 75.7552ZM768.663 49.0885C768.427 48.9702 768.131 48.9702 767.924 49.0885C767.688 49.2362 767.541 49.4723 767.541 49.738V68.9335C767.541 69.1106 767.452 69.2877 767.275 69.406C767.098 69.4944 766.921 69.4944 766.743 69.406L763.613 67.6046C763.384 67.4739 763.124 67.4052 762.86 67.4052C762.596 67.4052 762.336 67.4739 762.107 67.6046L749.586 74.8397C749.113 75.1055 748.818 75.6075 748.818 76.139V90.5797C748.818 91.1111 749.113 91.6135 749.586 91.8792L762.107 99.1144C762.336 99.245 762.596 99.3137 762.86 99.3137C763.124 99.3137 763.384 99.245 763.613 99.1144L776.134 91.8792C776.607 91.6135 776.902 91.1114 776.902 90.5797V54.5813C776.902 54.0202 776.607 53.5183 776.134 53.2523L768.663 49.0885ZM767.511 85.8253C767.511 85.973 767.452 86.091 767.334 86.1501L763.052 88.6306C762.992 88.6598 762.927 88.6749 762.86 88.6749C762.793 88.6749 762.728 88.6598 762.668 88.6306L758.386 86.1501C758.268 86.091 758.209 85.9434 758.209 85.8253V80.864C758.209 80.7163 758.268 80.5983 758.386 80.5392L762.668 78.0584C762.728 78.0293 762.793 78.0141 762.86 78.0141C762.927 78.0141 762.992 78.0293 763.052 78.0584L767.334 80.5392C767.452 80.598 767.511 80.7459 767.511 80.864V85.8253ZM810.331 80.7459C810.804 80.4802 811.07 79.9781 811.07 79.4464V75.9323C811.07 75.4008 810.774 74.8988 810.331 74.633L797.899 67.4275C797.669 67.2968 797.41 67.2281 797.146 67.2281C796.882 67.2281 796.622 67.2968 796.393 67.4275L783.871 74.6624C783.399 74.9281 783.104 75.4302 783.104 75.9619V90.4026C783.104 90.9341 783.399 91.4361 783.871 91.7019L796.304 98.7893C796.777 99.0551 797.338 99.0551 797.781 98.7893L805.311 94.5961C805.547 94.4778 805.695 94.2121 805.695 93.9463C805.695 93.6806 805.547 93.4149 805.311 93.2965L792.731 86.0614C792.494 85.914 792.347 85.6776 792.347 85.4119V80.8936C792.347 80.6279 792.494 80.3622 792.731 80.2439L796.659 77.9994C796.774 77.9271 796.907 77.8887 797.042 77.8887C797.178 77.8887 797.311 77.9271 797.426 77.9994L801.354 80.2439C801.59 80.3915 801.738 80.6276 801.738 80.8936V84.4374C801.738 84.7031 801.886 84.9688 802.122 85.0869C802.358 85.2346 802.653 85.2346 802.89 85.0869L810.331 80.7459Z" fill="#333333"/>
<path d="M796.954 80.067C796.997 80.0381 797.049 80.0227 797.101 80.0227C797.154 80.0227 797.205 80.0381 797.249 80.067L799.641 81.455C799.73 81.5137 799.789 81.6024 799.789 81.7207V84.4966C799.789 84.6147 799.73 84.7033 799.641 84.7623L797.249 86.1503C797.205 86.1792 797.154 86.1946 797.101 86.1946C797.049 86.1946 796.997 86.1792 796.954 86.1503L794.562 84.7623C794.473 84.7033 794.414 84.6147 794.414 84.4966V81.7207C794.414 81.6024 794.473 81.5137 794.562 81.455L796.954 80.067Z" fill="#539E43"/>
<path d="M729.416 67.4867C729.187 67.356 728.927 67.2874 728.663 67.2874C728.399 67.2874 728.139 67.356 727.91 67.4867L715.477 74.6623C715.005 74.928 714.739 75.4301 714.739 75.9616V90.3434C714.739 90.8749 715.034 91.377 715.477 91.6427L727.91 98.8189C728.139 98.9495 728.399 99.0182 728.663 99.0182C728.927 99.0182 729.187 98.9495 729.416 98.8189L741.849 91.6427C742.321 91.377 742.587 90.8749 742.587 90.3434V75.9618C742.587 75.4303 742.292 74.9283 741.849 74.6625L729.416 67.4867Z" fill="url(#paint1_linear_110_415)"/>
</g>
<defs>
<linearGradient id="paint0_linear_110_415" x1="575.565" y1="0" x2="575.565" y2="178" gradientUnits="userSpaceOnUse">
<stop/>
<stop offset="0.614583" stop-color="#D0D0D0"/>
<stop offset="1" stop-color="white"/>
</linearGradient>
<linearGradient id="paint1_linear_110_415" x1="733.728" y1="72.8361" x2="720.1" y2="94.2485" gradientUnits="userSpaceOnUse">
<stop stop-color="#41873F"/>
<stop offset="0.3288" stop-color="#418B3D"/>
<stop offset="0.6352" stop-color="#419637"/>
<stop offset="0.9319" stop-color="#3FA92D"/>
<stop offset="1" stop-color="#3FAE2A"/>
</linearGradient>
<clipPath id="clip0_110_415">
<rect width="184.704" height="50" fill="white" transform="translate(470.719 64)"/>
</clipPath>
<clipPath id="clip1_110_415">
<rect width="130.646" height="80" fill="white" transform="translate(680.424 49)"/>
</clipPath>
</defs>
</svg>
