<svg width="41" height="40" viewBox="0 0 41 40" fill="none" xmlns="http://www.w3.org/2000/svg">
<path d="M34.9412 40H6.94116C3.62746 40 0.941162 37.3138 0.941162 34V2C0.941162 0.89544 1.8366 0 2.94116 0H30.9412C32.0458 0 32.9412 0.89544 32.9412 2V26H40.9412V34C40.9412 37.3138 38.255 40 34.9412 40ZM32.9412 30V34C32.9412 35.1046 33.8366 36 34.9412 36C36.0458 36 36.9412 35.1046 36.9412 34V30H32.9412ZM28.9412 36V4H4.94116V34C4.94116 35.1046 5.8366 36 6.94116 36H28.9412ZM8.94116 10H24.9412V14H8.94116V10ZM8.94116 18H24.9412V22H8.94116V18ZM8.94116 26H18.9412V30H8.94116V26Z" fill="black"/>
</svg>
