<svg width="101" height="100" viewBox="0 0 101 100" fill="none" xmlns="http://www.w3.org/2000/svg">
<g clip-path="url(#clip0_110_360)">
<path d="M60.4828 43.3398C58.2914 43.3398 56.6469 44.4082 56.6469 47.0117C56.6469 48.957 57.7152 50.3281 60.3461 50.3281C62.5648 50.3281 64.1 49.0137 64.1 46.9297C64.1273 44.5723 62.7562 43.3398 60.4828 43.3398ZM56.098 61.6152C55.5765 62.2461 55.057 62.9297 55.057 63.7246C55.057 65.3145 57.0844 65.8066 59.8793 65.8066C62.1801 65.8066 65.3324 65.6426 65.3324 63.5059C65.3324 62.2187 63.8246 62.1367 61.9066 62.0254L56.098 61.6152ZM67.9086 43.4492C68.6215 44.3535 69.389 45.6406 69.389 47.4766C69.389 51.8887 65.9086 54.4922 60.8949 54.4922C59.6078 54.4922 58.4554 54.3281 57.7445 54.1367L56.4301 56.2461L60.348 56.4922C67.2523 56.9297 71.309 57.123 71.309 62.4375C71.309 67.0137 67.2816 69.6172 60.348 69.6172C53.141 69.6172 50.3734 67.7813 50.3734 64.6309C50.3734 62.8496 51.1683 61.8906 52.5648 60.5762C51.2504 60.0273 50.8109 59.0137 50.8109 57.9453C50.8109 57.0684 51.2484 56.2734 51.9613 55.5059C52.6742 54.7383 53.4691 53.998 54.4281 53.1211C52.4828 52.1621 51.0023 50.0801 51.0023 47.1484C51.0023 42.5723 54.0433 39.4219 60.1273 39.4219C61.8539 39.4219 62.8676 39.5859 63.7992 39.832H71.5804V43.2305L67.9086 43.4492Z" fill="#362701"/>
<path d="M78.5941 36.2148C76.3207 36.2148 75.0043 34.9004 75.0043 32.625C75.0043 30.3496 76.3187 29.1172 78.5941 29.1172C80.8949 29.1172 82.2113 30.3496 82.2113 32.625C82.2113 34.9004 80.8949 36.2148 78.5941 36.2148ZM73.4418 60.1641V57.0117L75.4691 56.7383C76.0179 56.6562 76.1 56.5469 76.1 55.9434V44.2148C76.1 43.7773 75.9906 43.502 75.5785 43.3652L73.4144 42.5977L73.8519 39.3652H82.1V55.916C82.1 56.5469 82.1273 56.6289 82.7308 56.7109L84.7582 56.9844V60.1348L73.4418 60.1641Z" fill="#362701"/>
<path d="M100.571 58.6016C98.8441 59.4512 96.35 60.1914 94.0765 60.1914C89.3363 60.1914 87.5277 58.2734 87.5277 53.7793V43.3398C87.5277 43.0937 87.5277 42.9297 87.1996 42.9297H84.4047V39.3945C87.9125 38.9844 89.309 37.2305 89.7484 32.9004H93.5297V38.5723C93.5297 38.8457 93.5297 38.9824 93.8578 38.9824H99.475V42.9551H93.5297V52.4629C93.5297 54.8203 94.0785 55.7227 96.2426 55.7227C97.3656 55.7227 98.516 55.4492 99.475 55.0918L100.571 58.6016Z" fill="#362701"/>
<path d="M41.5199 48.1621L23.2992 29.9414C22.2582 28.9004 20.559 28.9004 19.4906 29.9414L15.7094 33.7227L20.5043 38.5176C21.6273 38.1348 22.889 38.3809 23.7933 39.2852C24.6976 40.1895 24.9437 41.4766 24.5609 42.6016L29.1918 47.2324C30.3148 46.8496 31.6039 47.0957 32.5082 48C33.7679 49.2598 33.7679 51.2598 32.5082 52.5215C31.2484 53.7812 29.2484 53.7812 27.9867 52.5215C27.0551 51.5898 26.809 50.1934 27.3011 49.041L22.9984 44.7383V56.082C23.2992 56.2461 23.6019 56.4375 23.848 56.6855C25.1078 57.9453 25.1078 59.9453 23.848 61.207C22.5883 62.4668 20.559 62.4668 19.3265 61.207C18.0668 59.9473 18.0668 57.918 19.3265 56.6855C19.6273 56.3848 19.9847 56.1367 20.3676 56V44.5469C19.9847 44.3828 19.6273 44.1641 19.3265 43.8613C18.3676 42.9023 18.1488 41.5332 18.641 40.3535L13.8461 35.5859L1.34998 48.0801C0.30896 49.1211 0.30896 50.8203 1.34998 51.8887L19.5707 70.1094C20.6117 71.1504 22.3109 71.1504 23.3793 70.1094L41.5179 51.9707C42.5609 50.9023 42.5609 49.2031 41.5199 48.1621Z" fill="#F03C2E"/>
</g>
<defs>
<clipPath id="clip0_110_360">
<rect width="100" height="100" fill="white" transform="translate(0.564819)"/>
</clipPath>
</defs>
</svg>
