<svg width="161" height="80" viewBox="0 0 161 80" fill="none" xmlns="http://www.w3.org/2000/svg">
<path d="M87.4472 15.4293L88.9725 15.456L93.1165 11.312L93.3165 9.55599C90.0232 6.62666 85.6898 4.84399 80.9472 4.84399C72.3605 4.84399 65.1125 10.6867 62.9658 18.6013C63.4192 18.2853 64.3858 18.5213 64.3858 18.5213L72.6685 17.1587C72.6685 17.1587 73.0952 16.452 73.3085 16.496C75.0864 14.551 77.5394 13.3577 80.167 13.1595C82.7947 12.9613 85.3976 13.7731 87.4472 15.4293Z" fill="#EA4335"/>
<path d="M98.9539 18.616C98.0017 15.1129 96.0481 11.9638 93.3325 9.55469L87.4632 15.424C88.6678 16.3921 89.6398 17.618 90.3078 19.0116C90.9759 20.4051 91.3228 21.9307 91.3232 23.476V24.512C94.1792 24.512 96.4965 26.836 96.4965 29.6854C96.4965 32.5347 94.1725 34.8587 91.3232 34.8587H80.9739L79.9379 35.8987V42.1094L80.9739 43.14H91.3232C94.8875 43.1305 98.3029 41.7098 100.822 39.1886C103.342 36.6674 104.76 33.251 104.767 29.6867C104.762 25.1054 102.453 21.0467 98.9405 18.616H98.9539Z" fill="#4285F4"/>
<path d="M70.5992 43.1494H80.9458V34.8667H70.5992C69.8644 34.8671 69.1382 34.7093 68.4698 34.4041L66.9765 34.8614L62.8325 39.0054L62.4698 40.4054C64.8014 42.1956 67.661 43.1616 70.6005 43.1521L70.5992 43.1494Z" fill="#34A853"/>
<path d="M70.5992 16.2333C67.0314 16.2389 63.6115 17.6587 61.0887 20.1815C58.5659 22.7042 57.1461 26.1242 57.1405 29.6919C57.1405 31.7694 57.6221 33.8187 58.5475 35.6787C59.4728 37.5387 60.8168 39.1589 62.4738 40.4119L68.4738 34.4119C67.565 34.003 66.7936 33.3403 66.2524 32.5034C65.7112 31.6666 65.4233 30.6912 65.4232 29.6946C65.4232 26.8386 67.7472 24.5213 70.5965 24.5213C71.5927 24.523 72.5674 24.8116 73.404 25.3526C74.2405 25.8936 74.9036 26.6641 75.3138 27.5719L81.3138 21.5719C78.8525 18.3319 74.9672 16.2386 70.5938 16.2386L70.5992 16.2333Z" fill="#FBBC05"/>
<path d="M16.9538 69.2494C14.1272 69.2494 11.7005 68.2494 9.65517 66.2494C7.60983 64.2494 6.5885 61.844 6.5885 59.0387C6.5885 56.2334 7.6085 53.828 9.65517 51.828C11.7018 49.828 14.1312 48.8267 16.9538 48.8267C18.2487 48.8079 19.5344 49.0469 20.7359 49.53C21.9375 50.013 23.0309 50.7303 23.9525 51.64L21.9832 53.6094C20.6356 52.3063 18.8269 51.5897 16.9525 51.6161C14.9125 51.6161 13.1792 52.3361 11.7578 53.7854C11.0664 54.472 10.5212 55.2916 10.1553 56.1947C9.78928 57.0979 9.6101 58.0658 9.6285 59.04C9.6285 61.1014 10.3352 62.8494 11.7578 64.2934C12.4264 64.9948 13.2333 65.5498 14.1275 65.9233C15.0217 66.2967 15.9836 66.4804 16.9525 66.4627C19.0298 66.4627 20.7458 65.796 22.1125 64.4174C22.9125 63.6174 23.4458 62.4174 23.6325 60.9041H16.9578V58.1147H26.3498C26.4498 58.6107 26.4832 59.1814 26.4832 59.8481C26.4832 62.5894 25.6792 64.7627 24.0658 66.3747C22.2365 68.288 19.8658 69.2414 16.9392 69.2414L16.9538 69.2494ZM38.7805 67.3827C37.5005 68.636 35.9405 69.2494 34.0978 69.2494C32.2552 69.2494 30.6925 68.6227 29.4152 67.3827C28.1378 66.1427 27.4978 64.5654 27.4978 62.6894C27.4978 60.8134 28.1378 59.2494 29.4152 57.9961C30.6925 56.7427 32.2552 56.1294 34.0978 56.1294C35.9405 56.1294 37.5032 56.7561 38.7805 57.9961C40.0578 59.2361 40.6978 60.8174 40.6978 62.6894C40.6978 64.5614 40.0578 66.1294 38.7805 67.3827ZM31.4818 65.5427C31.8145 65.9042 32.2194 66.1918 32.6702 66.3868C33.1211 66.5818 33.6079 66.6799 34.0992 66.6747C35.1125 66.6747 35.9845 66.2987 36.7165 65.5414C37.4485 64.784 37.8125 63.8347 37.8125 62.688C37.8125 61.528 37.4525 60.5707 36.7285 59.8214C36.0045 59.0721 35.1312 58.7014 34.0992 58.7014C33.6069 58.6938 33.1186 58.7896 32.6657 58.9825C32.2128 59.1754 31.8054 59.4612 31.4698 59.8214C30.7458 60.5681 30.3858 61.5227 30.3858 62.688C30.3858 63.832 30.7498 64.7854 31.4818 65.5414V65.5427ZM53.1792 67.3827C51.8992 68.636 50.3392 69.2494 48.4965 69.2494C46.6538 69.2494 45.0912 68.6227 43.8138 67.3827C42.5365 66.1427 41.8965 64.5654 41.8965 62.6894C41.8965 60.8134 42.5365 59.2494 43.8138 57.9961C45.0912 56.7427 46.6538 56.1294 48.4965 56.1294C50.3392 56.1294 51.9018 56.7561 53.1792 57.9961C54.4565 59.2361 55.0965 60.8174 55.0965 62.6894C55.0965 64.5614 54.4565 66.1294 53.1792 67.3827ZM45.8805 65.5427C46.2131 65.9042 46.618 66.1918 47.0689 66.3868C47.5198 66.5818 48.0066 66.6799 48.4978 66.6747C49.5112 66.6747 50.3832 66.2987 51.1152 65.5414C51.8472 64.784 52.2112 63.8347 52.2112 62.688C52.2112 61.528 51.8512 60.5707 51.1272 59.8214C50.4032 59.0721 49.5298 58.7014 48.4978 58.7014C48.0056 58.6938 47.5173 58.7896 47.0644 58.9825C46.6115 59.1754 46.2041 59.4612 45.8685 59.8214C45.1445 60.5681 44.7845 61.5227 44.7845 62.688C44.7845 63.832 45.1485 64.7854 45.8805 65.5414V65.5427ZM62.6445 75.1694C61.1845 75.1694 59.9552 74.7774 58.9592 73.996C57.9632 73.2147 57.2498 72.3107 56.8178 71.2787L59.3352 70.2347C59.5992 70.8667 60.0018 71.4147 60.5792 71.88C61.1565 72.3454 61.8325 72.576 62.6485 72.576C63.7445 72.576 64.6058 72.2427 65.2258 71.58C65.8458 70.9174 66.1592 69.9587 66.1592 68.7134V67.78H66.0592C65.2592 68.776 64.0898 69.276 62.5978 69.276C60.9205 69.276 59.4512 68.636 58.1885 67.3587C57.5751 66.7549 57.091 66.0327 56.7655 65.236C56.44 64.4392 56.28 63.5846 56.2952 62.724C56.2798 61.8581 56.4395 60.998 56.7649 60.1954C57.0902 59.3928 57.5745 58.6642 58.1885 58.0534C59.4485 56.7694 60.9218 56.124 62.5978 56.124C63.3445 56.124 64.0218 56.264 64.6272 56.548C65.2325 56.832 65.7112 57.18 66.0592 57.592H66.1592V56.5334H68.9005V68.3427C68.9005 70.636 68.3165 72.348 67.1432 73.4894C65.9698 74.6227 64.4738 75.196 62.6458 75.196L62.6445 75.1694ZM62.8445 66.6734C63.3198 66.6818 63.7911 66.5846 64.2243 66.3888C64.6576 66.1931 65.042 65.9036 65.3498 65.5414C66.0218 64.7854 66.3578 63.844 66.3578 62.712C66.3578 61.568 66.0218 60.6107 65.3498 59.8454C65.0437 59.4802 64.66 59.188 64.2265 58.9901C63.7931 58.7921 63.3209 58.6935 62.8445 58.7014C61.8312 58.7014 60.9672 59.0854 60.2552 59.8454C59.5432 60.6054 59.1832 61.5627 59.1832 62.712C59.1832 63.84 59.5392 64.7854 60.2552 65.5414C60.9712 66.2974 61.8325 66.6734 62.8445 66.6734ZM73.7805 49.52V68.8534H70.8912V49.52H73.7805ZM81.7005 69.248C79.8392 69.248 78.2872 68.616 77.0418 67.3547C75.7965 66.0934 75.1725 64.5334 75.1725 62.6721C75.1725 60.7467 75.7725 59.1654 76.9778 57.9387C77.5433 57.3437 78.226 56.8725 78.9829 56.5548C79.7398 56.2372 80.5544 56.0801 81.3752 56.0934C82.1712 56.0934 82.9125 56.2374 83.5925 56.5294C84.2247 56.7884 84.8 57.169 85.2858 57.6494C85.691 58.0527 86.0505 58.4994 86.3578 58.9814C86.6118 59.3933 86.8287 59.827 87.0058 60.2774L87.3058 61.0241L78.5138 64.6667C79.1805 65.9947 80.2472 66.66 81.7032 66.66C83.0312 66.66 84.1125 66.056 84.9405 64.8427L87.1805 66.3387C86.6805 67.0854 85.9765 67.7587 85.0632 68.356C84.1498 68.9534 83.0258 69.2494 81.6978 69.2494L81.7005 69.248ZM78.0392 62.4747L83.9058 60.0347C83.7378 59.6187 83.4338 59.2827 82.9725 59.0267C82.5086 58.7668 81.9842 58.6344 81.4525 58.6427C80.6045 58.6427 79.8125 58.9894 79.0752 59.6867C78.3378 60.384 77.9818 61.316 78.0152 62.476L78.0392 62.4747ZM102.479 69.248C99.8525 69.248 97.6525 68.36 95.8765 66.5814C94.1005 64.8027 93.2098 62.5881 93.2098 59.9307C93.2098 57.2734 94.0978 55.056 95.8765 53.28C97.6552 51.504 99.8538 50.6134 102.479 50.6134C105.168 50.6134 107.354 51.5867 109.03 53.5267L107.436 55.0734C106.236 53.5614 104.57 52.8067 102.476 52.8067C100.53 52.8067 98.8952 53.4627 97.5432 54.7761C96.1912 56.0894 95.5378 57.8054 95.5378 59.9307C95.5378 62.0561 96.2045 63.776 97.5432 65.0907C98.8818 66.4054 100.52 67.06 102.476 67.06C104.618 67.06 106.446 66.196 107.943 64.4707L109.536 66.064C108.702 67.0603 107.654 67.8564 106.47 68.3934C105.214 68.9709 103.846 69.2632 102.465 69.2494L102.479 69.248ZM113.887 68.8534H111.594V51.0174H113.887V68.8534ZM117.624 58.1067C118.804 56.8707 120.291 56.2494 122.134 56.2494C123.976 56.2494 125.463 56.8694 126.643 58.1067C127.823 59.3441 128.412 60.9067 128.412 62.7534C128.412 64.6 127.826 66.1627 126.643 67.4C125.46 68.6374 123.976 69.2574 122.134 69.2574C120.291 69.2574 118.804 68.6374 117.624 67.4C116.444 66.1627 115.855 64.6 115.855 62.7534C115.855 60.9067 116.442 59.3441 117.624 58.1067ZM119.331 65.9507C120.131 66.7547 121.057 67.1587 122.131 67.1587C123.206 67.1587 124.131 66.7547 124.931 65.9507C125.731 65.1467 126.115 64.0774 126.115 62.7507C126.115 61.424 125.719 60.3534 124.931 59.5507C124.143 58.748 123.206 58.3427 122.131 58.3427C121.057 58.3427 120.131 58.7467 119.331 59.5507C118.531 60.3547 118.147 61.424 118.147 62.7507C118.147 64.0774 118.543 65.1481 119.331 65.9507ZM141.091 68.8534H138.898V67.16H138.798C138.451 67.74 137.918 68.2361 137.205 68.6267C136.491 69.0174 135.738 69.24 134.938 69.24C133.408 69.24 132.253 68.776 131.465 67.844C130.677 66.912 130.281 65.6667 130.281 64.1067V56.632H132.574V63.7307C132.574 66.008 133.578 67.1441 135.587 67.1441C136.037 67.1535 136.482 67.0545 136.886 66.8554C137.289 66.6563 137.639 66.3629 137.904 66C138.497 65.2484 138.814 64.3159 138.8 63.3587V56.632H141.094V68.8414L141.091 68.8534ZM148.862 69.2494C147.284 69.2494 145.92 68.6254 144.776 67.38C143.632 66.1347 143.059 64.5907 143.059 62.7454C143.059 60.9 143.632 59.356 144.776 58.1107C145.92 56.8654 147.286 56.2414 148.862 56.2414C149.79 56.2414 150.627 56.4414 151.368 56.8374C152.11 57.2334 152.662 57.7334 153.026 58.3334H153.126L153.026 56.64V51.0134H155.319V68.8534H153.126V67.16H153.026C152.662 67.756 152.11 68.256 151.368 68.656C150.628 69.048 149.791 69.2494 148.862 69.2494ZM149.235 67.156C149.753 67.1631 150.266 67.0601 150.74 66.8539C151.215 66.6477 151.64 66.343 151.988 65.9601C152.744 65.1641 153.122 64.0907 153.122 62.76C153.122 61.4294 152.746 60.3427 151.988 59.56C151.64 59.1771 151.215 58.8724 150.74 58.6662C150.266 58.46 149.753 58.357 149.235 58.364C148.171 58.364 147.258 58.7681 146.494 59.5721C145.73 60.3761 145.35 61.4454 145.35 62.772C145.35 64.0987 145.73 65.1694 146.494 65.972C146.839 66.3564 147.262 66.6629 147.734 66.8711C148.207 67.0794 148.719 67.1847 149.235 67.18V67.156Z" fill="#5F6368"/>
</svg>
