<svg width="141" height="70" viewBox="0 0 141 70" fill="none" xmlns="http://www.w3.org/2000/svg">
<path d="M33.9851 51.224H11.1986C9.25173 51.224 7.66943 49.6417 7.66943 47.6948V17.7552C7.66943 15.8084 9.25173 14.2261 11.1986 14.2261H33.9851C35.9319 14.2261 37.5142 15.8084 37.5142 17.7552V47.6875C37.5142 49.6344 35.9319 51.2167 33.9851 51.2167V51.224Z" fill="#6762A6"/>
<path d="M26.3727 46.1343V31.4416C26.3727 31.4416 27.3206 27.927 14.6039 32.8781C14.582 32.951 14.582 19.2937 14.582 19.2937L18.7383 19.2645V28.0145C18.7383 28.0145 30.3831 23.4208 30.3831 31.4926V46.1343H26.3727ZM28.7424 24.551H24.331C25.9206 22.6114 27.357 19.2864 27.357 19.2864H31.9143C31.9143 19.2864 31.1341 21.452 28.7424 24.551ZM14.6477 46.1052V37.7416L18.8331 41.927L14.6477 46.1052Z" fill="white"/>
<path d="M53.9642 45.0625V33.0312C53.9642 32.1854 53.3444 31.8135 52.6079 31.8135C50.8936 31.8466 49.2031 32.2209 47.635 32.9146V45.0625H44.2444V22.7208H47.635V30.0854C49.2392 29.5021 51.1642 28.9917 53.0892 28.9917C56.1663 28.9917 57.3183 30.8875 57.3183 33.4833V45.0771L53.9642 45.0625ZM63.6621 37.7708C63.7715 41.8104 64.5663 42.6052 67.0527 42.6052C68.9996 42.6052 71.209 41.949 72.9006 41.3073L73.4621 43.8594C71.6538 44.676 69.4517 45.4635 66.8996 45.4635C61.2485 45.4635 60.3736 42.3573 60.3736 37.4135C60.3736 34.701 60.5704 32.2365 61.2194 29.976C62.9111 29.3198 65.1788 28.9844 68.0298 28.9844C72.6673 28.9844 74.0819 31.5583 74.0819 36.0573V37.7781H63.6621V37.7708ZM67.9642 31.8062C66.9433 31.8062 65.3392 31.8354 64.0121 32.0979C63.8663 32.776 63.6985 33.7021 63.6475 35.4302H70.7204C70.7204 33.0823 70.2975 31.8135 67.9788 31.8135L67.9642 31.8062ZM80.36 32.9V45.0625H76.9694V31.3979C79.4061 30.1319 82.0816 29.3916 84.8225 29.225V32.0469C83.3642 32.1562 81.6871 32.3385 80.36 32.9219V32.9ZM93.7767 45.4417C88.7163 45.4417 86.4267 42.9625 86.4267 37.275C86.4267 31.2594 89.4527 28.9625 93.7767 28.9625C98.8371 28.9625 101.119 31.4417 101.119 37.1292C101.119 43.1448 98.0933 45.4417 93.7767 45.4417ZM93.7767 31.8062C91.1735 31.8062 89.7371 33.301 89.7371 37.2896C89.7371 41.6427 90.9548 42.6125 93.7767 42.6125C96.3725 42.6125 97.8163 41.1396 97.8163 37.1583C97.8163 32.8052 96.5985 31.8208 93.7767 31.8208V31.8062ZM117.475 45.0552H113.493C112.56 42.576 111.262 39.951 109.264 37.8219H107.485V45.0552H104.094V22.7208H107.485V35.5542H109.067C110.753 33.7556 112.102 31.6686 113.049 29.3927H116.862C115.564 32.0177 113.894 34.3365 112.028 36.2323C114.161 38.9741 115.99 41.9398 117.482 45.0771L117.475 45.0552ZM123.833 45.449C120.756 45.449 119.604 43.5531 119.604 40.9573V29.3854H122.958V41.3948C122.958 42.2406 123.578 42.6125 124.314 42.6125C126.083 42.5806 127.828 42.2067 129.455 41.5115V29.3854H132.845V43.0062C128.835 45.2083 125.751 45.4635 123.833 45.4635V45.449Z" fill="#6762A6"/>
</svg>
