<svg width="101" height="100" viewBox="0 0 101 100" fill="none" xmlns="http://www.w3.org/2000/svg">
<path d="M21.6885 91.9727L15.2451 19.6387H86.0771L79.6338 91.9453L50.6064 100L21.6885 91.9727Z" fill="#E44D26"/>
<path d="M50.6611 93.8613L74.1064 87.3613L79.6338 25.5547H50.6611V93.8613Z" fill="#F16529"/>
<path d="M50.6611 52.3887H38.9111L38.1064 43.3047H50.6611V34.4453H50.6338H28.4111L28.6338 36.8047L30.7998 61.25H50.6611V52.3887Z" fill="#EBEBEB"/>
<path d="M50.6611 75.416L50.6338 75.4453L40.7451 72.75L40.1064 65.6953H35.2998H31.2158L32.4385 79.6113L50.6338 84.666L50.6611 84.6387V75.416Z" fill="#EBEBEB"/>
<path d="M21.8271 0H26.3271V4.44531H30.4385V0H34.9385V13.4727H30.4385V8.94531H26.3271V13.4727H21.8271V0Z" fill="black"/>
<path d="M40.8838 4.47266H36.9111V0H49.3564V4.47266H45.3838V13.4727H40.8838V4.47266Z" fill="black"/>
<path d="M51.3564 0H56.0518L58.9404 4.75L61.8272 0H66.5225V13.4727H62.0498V6.80469L58.9385 11.6094H58.8545L55.7432 6.80469V13.5H51.3271V0H51.3564Z" fill="black"/>
<path d="M68.7725 0H73.2725V9.02734H79.6064V13.4727H68.7725V0Z" fill="black"/>
<path d="M50.6338 52.3887V61.25H61.5498L60.5225 72.75L50.6338 75.416V84.666L68.7998 79.6113L68.9385 78.1113L71.0225 54.7773L71.2451 52.3887H68.8564H50.6338Z" fill="white"/>
<path d="M50.6338 34.4453V39.9453V43.2773V43.3047H72.0225H72.0498L72.2451 41.3047L72.6338 36.8047L72.8564 34.4453H50.6338Z" fill="white"/>
</svg>
