<svg width="101" height="100" viewBox="0 0 101 100" fill="none" xmlns="http://www.w3.org/2000/svg">
<g clip-path="url(#clip0_110_133)">
<path d="M0.901123 0H100.901V100H0.901123V0Z" fill="#F0DB4F"/>
<path d="M92.7168 76.1502C91.9848 71.5875 89.0095 67.7567 80.1978 64.1825C77.1369 62.7757 73.7244 61.7682 72.7073 59.4487C72.346 58.0989 72.2985 57.3384 72.5266 56.5209C73.1825 53.8688 76.3479 53.0418 78.8574 53.8023C80.4734 54.3441 82.0038 55.5895 82.9259 57.5761C87.2415 54.7815 87.232 54.8004 90.2453 52.8803C89.1426 51.1693 88.5533 50.3802 87.8308 49.6484C85.2358 46.7492 81.6997 45.2568 76.0438 45.3708C75.0647 45.4944 74.0762 45.6274 73.097 45.7511C70.2739 46.464 67.5837 47.9469 66.0057 49.9336C61.2719 55.3043 62.6217 64.7053 68.3822 68.5743C74.0571 72.8328 82.3936 73.8024 83.4582 77.7853C84.4943 82.6617 79.8747 84.2396 75.2833 83.6788C71.8993 82.9754 70.0172 81.2549 67.9829 78.1275C64.2378 80.2948 64.2378 80.2948 60.388 82.5096C61.3005 84.5058 62.2605 85.4089 63.791 87.1389C71.0344 94.4868 89.1616 94.1256 92.4127 83.0039C92.5457 82.6236 93.4203 80.0761 92.7168 76.1502ZM55.2643 45.9601H45.9107C45.9107 54.0399 45.8728 62.0628 45.8728 70.1426C45.8728 75.2852 46.1389 80 45.3024 81.4449C43.9336 84.287 40.388 83.9354 38.772 83.3839C37.1275 82.576 36.291 81.4258 35.3214 79.8004C35.0553 79.3346 34.8556 78.9734 34.789 78.9449C32.2511 80.4943 29.7225 82.0531 27.1844 83.6027C28.4488 86.1977 30.3118 88.4506 32.6978 89.9144C36.2624 92.0531 41.0533 92.709 46.0629 91.5588C49.3233 90.6083 52.1369 88.6407 53.6103 85.6464C55.7396 81.7205 55.2833 76.9677 55.2643 71.711C55.3118 63.1369 55.2643 54.5628 55.2643 45.9601Z" fill="#323330"/>
</g>
<defs>
<clipPath id="clip0_110_133">
<rect width="100" height="100" fill="white" transform="translate(0.901123)"/>
</clipPath>
</defs>
</svg>
