<svg width="55" height="100" viewBox="0 0 55 100" fill="none" xmlns="http://www.w3.org/2000/svg">
<g clip-path="url(#clip0_110_136)">
<path d="M52.3963 78.8539H52.0198V78.6432H53.0339V78.8539H52.6595V79.9054H52.3963V78.8539ZM54.419 78.9088H54.413L54.0396 79.9057H53.8688L53.498 78.9088H53.4936V79.9057H53.2453V78.6436H53.6106L53.9544 79.5373L54.2971 78.6436H54.6611V79.9057H54.4188L54.419 78.9088Z" fill="#E76F00"/>
<path d="M18.6752 53.0449C18.6752 53.0449 16.0544 54.569 20.5404 55.0847C25.975 55.7047 28.7525 55.6158 34.7415 54.4823C34.7415 54.4823 36.3161 55.4696 38.5151 56.3247C25.0894 62.0787 8.13003 55.9914 18.6752 53.0449ZM17.0347 45.5363C17.0347 45.5363 14.0952 47.7121 18.5845 48.1765C24.3899 48.7754 28.9746 48.8244 36.9078 47.2968C36.9078 47.2968 38.0053 48.4092 39.7307 49.0176C23.498 53.7642 5.4179 49.3919 17.0347 45.5363Z" fill="#5382A1"/>
<path d="M30.865 32.799C34.1731 36.6077 29.996 40.0352 29.996 40.0352C29.996 40.0352 38.3955 35.699 34.538 30.269C30.9351 25.205 28.1721 22.6891 43.1297 14.0143C43.1299 14.0141 19.6512 19.8779 30.865 32.799Z" fill="#E76F00"/>
<path d="M48.6218 58.5988C48.6218 58.5988 50.5612 60.197 46.4858 61.4331C38.7363 63.7807 14.2316 64.4896 7.42424 61.5268C4.97719 60.4621 9.56611 58.9847 11.0096 58.6747C12.515 58.3483 13.3753 58.4091 13.3753 58.4091C10.654 56.492 -4.21452 62.1732 5.82288 63.8005C33.1963 68.2397 55.7223 61.8015 48.6218 58.5988ZM19.9357 37.7565C19.9357 37.7565 7.47101 40.717 15.5216 41.7921C18.9209 42.2472 25.6971 42.1443 32.0089 41.6154C37.1673 41.1803 42.3472 40.2553 42.3472 40.2553C42.3472 40.2553 40.5283 41.0342 39.2123 41.9326C26.5546 45.2618 2.10239 43.7129 9.14188 40.3078C15.0952 37.43 19.9357 37.7565 19.9357 37.7565ZM42.2958 50.255C55.1629 43.5687 49.2139 37.1431 45.0612 38.009C44.0434 38.2208 43.5896 38.4044 43.5896 38.4044C43.5896 38.4044 43.9676 37.8125 44.6889 37.5563C52.9038 34.6681 59.2217 46.0744 42.037 50.5921C42.037 50.5921 42.2365 50.4143 42.2958 50.255Z" fill="#5382A1"/>
<path d="M34.538 0.00646973C34.538 0.00646973 41.664 7.13469 27.7793 18.0963C16.6452 26.8892 25.2404 31.9027 27.7747 37.631C21.2757 31.767 16.5062 26.6052 19.706 21.8009C24.4023 14.7487 37.4132 11.3295 34.538 0.00646973Z" fill="#E76F00"/>
<path d="M21.2001 68.3731C33.5509 69.1637 52.517 67.9345 52.966 62.0906C52.966 62.0906 52.1027 64.3058 42.7587 66.0654C32.2172 68.0491 19.2153 67.8176 11.5039 66.5462C11.5043 66.5459 13.0827 67.8526 21.2001 68.3731Z" fill="#5382A1"/>
<path d="M19.1759 90.7036C18.0107 91.7142 16.7802 92.2815 15.6759 92.2815C14.0997 92.2815 13.2481 91.3364 13.2481 89.8204C13.2481 88.1806 14.1607 86.9817 17.8211 86.9817H19.1757L19.1759 90.7036ZM22.3908 94.331V83.1028C22.3908 80.2342 20.7548 78.3417 16.8105 78.3417C14.5078 78.3417 12.4907 78.9103 10.8513 79.6355L11.3245 81.623C12.6153 81.1493 14.2862 80.7082 15.9262 80.7082C18.1984 80.7082 19.1759 81.623 19.1759 83.5144V84.9337H18.0418C12.5212 84.9337 10.0309 87.0767 10.0309 90.2931C10.0309 93.0692 11.672 94.6471 14.762 94.6471C16.7482 94.6471 18.2309 93.8269 19.6169 92.6268L19.8685 94.3313L22.3908 94.331ZM33.1201 94.331H29.1105L24.2848 78.626H27.7866L30.7808 88.2751L31.4464 91.177C32.9613 86.9813 34.0329 82.7246 34.5688 78.626H37.975C37.0622 83.7974 35.42 89.4738 33.1201 94.331ZM48.5023 90.7036C47.3349 91.7142 46.1023 92.2815 44.9979 92.2815C43.4244 92.2815 42.5706 91.3364 42.5706 89.8204C42.5706 88.1806 43.485 86.9817 47.1453 86.9817H48.5023V90.7036ZM51.7168 94.331V83.1028C51.7168 80.2342 50.077 78.3417 46.1369 78.3417C43.8327 78.3417 41.8149 78.9103 40.1762 79.6355L40.6489 81.623C41.9401 81.1493 43.6141 80.7082 45.2528 80.7082C47.5233 80.7082 48.5023 81.623 48.5023 83.5144V84.9337H47.3662C41.8441 84.9337 39.3547 87.0767 39.3547 90.2931C39.3547 93.0692 40.9945 94.6471 44.084 94.6471C46.0715 94.6471 47.5536 93.8269 48.9418 92.6268L49.1943 94.3313L51.7168 94.331ZM6.5058 96.9978C5.58931 98.3359 4.10903 99.3946 2.48844 99.9935L0.901123 98.1256C2.13463 97.4927 3.19253 96.4704 3.68405 95.5185C4.10921 94.6717 4.28519 93.5803 4.28519 90.9704V73.0408H7.70086V90.7247C7.70068 94.2138 7.42174 95.6233 6.5058 96.9978Z" fill="#E76F00"/>
</g>
<defs>
<clipPath id="clip0_110_136">
<rect width="53.76" height="100" fill="white" transform="translate(0.901123)"/>
</clipPath>
</defs>
</svg>
