<svg width="101" height="100" viewBox="0 0 101 100" fill="none" xmlns="http://www.w3.org/2000/svg">
<path d="M6.14761 52.6187C6.14761 55.6734 5.86401 56.6679 5.13511 57.4C4.32573 58.0328 3.27339 58.3804 2.18042 58.3804L2.46479 60.1258C4.15542 60.1437 5.79683 59.6281 7.07886 58.6758C7.7687 57.9492 8.2812 57.1133 8.58667 56.2133C8.89032 55.3222 8.98312 54.3728 8.85776 53.4398V41.8812H6.14761V52.6187ZM26.3687 51.2422C26.3687 52.5515 26.3687 53.7203 26.4882 54.7336H24.0804L23.9187 52.6554C23.4148 53.3898 22.6945 53.9976 21.8312 54.4133C20.9489 54.8355 19.9803 55.0463 19.0023 55.0289C16.6554 55.0289 13.8625 53.9304 13.8625 49.4445V41.989H16.5757V48.9718C16.5757 51.3976 17.4453 53.0211 19.8929 53.0211C20.3936 53.0276 20.8915 52.9462 21.364 52.7804C21.8197 52.6215 22.242 52.3794 22.6093 52.0664C22.9567 51.7698 23.2382 51.4039 23.4359 50.9922C23.6265 50.5964 23.7228 50.1619 23.7171 49.7226V41.9008H26.4265V51.1719L26.3687 51.2422ZM31.5085 46.1429C31.5085 44.5187 31.5085 43.1914 31.3859 41.989H33.8156L33.9343 44.1711C34.4773 43.3804 35.2554 42.7336 36.1898 42.2976C37.1425 41.857 38.1862 41.6487 39.2351 41.6898C42.839 41.6898 45.5492 44.2929 45.5492 48.1664C45.5492 52.7406 42.2929 55.0109 38.771 55.0109C37.8779 55.047 36.9881 54.8812 36.1679 54.5258C35.3656 54.1742 34.6789 53.65 34.1781 53.0023V59.9851H31.5085V46.1429ZM34.1781 49.5453C34.1843 49.8625 34.2273 50.1797 34.3007 50.4883C34.5296 51.2633 35.0507 51.95 35.7835 52.4414C36.5164 52.9328 37.4195 53.1953 38.3468 53.1953C41.2007 53.1953 42.8789 51.1875 42.8789 48.2734C42.8789 45.7242 41.3007 43.5422 38.4476 43.5422C37.3187 43.6219 36.2625 44.0523 35.4757 44.757C34.6914 45.4617 34.2273 46.3867 34.1789 47.3633L34.1781 49.5453ZM50.3804 41.9765L53.6398 49.5C53.9861 50.3554 54.3024 51.2226 54.5882 52.1C54.8726 51.3336 55.1742 50.3539 55.5414 49.4476L58.4945 41.9765H61.3484L57.3015 51.0531C55.2781 55.4172 54.0421 57.6687 52.1804 59.0297C51.2437 59.7719 50.0992 60.2875 48.8632 60.5312L48.1953 58.5781C49.0443 58.3395 49.8455 57.9554 50.5632 57.4429C51.5492 56.7476 52.3335 55.8625 52.8492 54.8586C52.958 54.6881 53.0335 54.4986 53.0718 54.3C53.047 54.0875 52.9852 53.881 52.889 53.6898L47.3867 41.9398H50.3398L50.3804 41.9765ZM68.5445 38.3148V41.9797H72.4289V43.7258H68.5445V50.6039C68.5445 52.1758 69.0718 53.082 70.5679 53.082C71.098 53.0891 71.6272 53.0359 72.1453 52.9234L72.2671 54.6719C71.4861 54.9026 70.6734 55.0078 69.8593 54.9836C69.3208 55.0135 68.7815 54.942 68.2695 54.7726C67.7746 54.611 67.3177 54.3505 66.9265 54.007C66.1031 53.0547 65.7273 51.8711 65.8742 50.6898V43.707H63.5671V41.9617H65.9132V38.8547L68.5445 38.3148ZM77.425 48.764C77.3703 49.3562 77.464 49.9515 77.7023 50.5062C77.9504 51.0783 78.3265 51.5859 78.8015 51.9898C79.2898 52.4109 79.8757 52.7344 80.5226 52.939C81.1664 53.1461 81.8585 53.2258 82.5429 53.1797C83.9213 53.2094 85.2934 52.984 86.5898 52.5148L87.0562 54.2601C85.4658 54.8219 83.7862 55.0887 82.0999 55.0476C81.1078 55.1054 80.1164 54.9773 79.189 54.675C78.283 54.3824 77.4452 53.9102 76.7257 53.2867C76.0304 52.6765 75.4929 51.9437 75.157 51.1383C74.8229 50.3447 74.6908 49.4806 74.7726 48.6234C74.7726 44.7812 77.425 41.7453 81.7554 41.7453C86.6109 41.7453 87.8257 45.4101 87.8257 47.7508C87.8492 48.1109 87.8492 48.4711 87.8257 48.8312H77.3632L77.425 48.764ZM85.3562 47.0187C85.4351 46.5505 85.3964 46.0699 85.2437 45.6203C85.083 45.1572 84.8175 44.7374 84.4679 44.3937C84.0991 44.0271 83.6587 43.7404 83.1742 43.5515C82.6711 43.3519 82.135 43.2486 81.5937 43.2469C80.4828 43.3172 79.439 43.7406 78.6726 44.4398C77.9039 45.1351 77.4671 46.0539 77.446 47.0179L85.3562 47.0187ZM91.9382 45.9445C91.9382 44.4461 91.9382 43.1515 91.8171 41.9648H94.2468V44.4609H94.3679C94.6218 43.6922 95.1492 43.0078 95.8726 42.5078C96.5992 42.0078 97.4875 41.7148 98.4148 41.6687C98.6679 41.6414 98.9273 41.6414 99.1835 41.6687V43.8508C98.8741 43.8203 98.5625 43.8203 98.2531 43.8508C97.3343 43.8812 96.4585 44.1984 95.7937 44.7445C95.1249 45.2914 94.7132 46.0297 94.6304 46.8172C94.5546 47.1765 94.5148 47.5375 94.5085 47.9V54.6906H91.8382V45.9625L91.9382 45.9445Z" fill="#4E4E4E"/>
<path d="M86.7085 5.68833C86.7579 6.86273 86.4619 8.02584 85.8569 9.03364C85.2536 10.0365 84.3669 10.8382 83.3085 11.3376C82.2519 11.8336 81.0711 12.0023 79.9178 11.8219C78.7627 11.6419 77.6875 11.1216 76.8296 10.3274C75.968 9.5284 75.3614 8.49295 75.0856 7.35074C74.8099 6.20852 74.8774 5.01035 75.2796 3.9063C75.6773 2.80441 76.3919 1.84468 77.3335 1.14771C78.2729 0.454113 79.398 0.0566832 80.5647 0.00630134C81.3388 -0.026317 82.1116 0.0946876 82.8386 0.362331C83.5657 0.629975 84.2325 1.03896 84.8006 1.56568C85.9541 2.63383 86.6387 4.11454 86.7053 5.68521L86.7085 5.68833Z" fill="#767677"/>
<path d="M52.3273 75.6172C36.6257 75.6172 22.914 69.8641 15.7914 61.3461C18.4325 68.9727 23.3734 75.5928 29.9335 80.2945C36.4662 84.9749 44.3004 87.4924 52.3367 87.4937C60.3725 87.4908 68.2059 84.9734 74.739 80.2945C81.298 75.5931 86.237 68.9727 88.875 61.3461C81.7398 69.8641 68.0281 75.6172 52.3273 75.6172ZM52.321 20.2211C68.0226 20.2211 81.7367 25.9766 88.857 34.4906C86.2157 26.8643 81.2748 20.2445 74.7148 15.543C68.183 10.8627 60.3503 8.34396 52.3148 8.33984C44.2793 8.34396 36.4466 10.8627 29.9148 15.543C23.3539 20.2432 18.4131 26.8635 15.7742 34.4906C22.9085 25.9922 36.6195 20.2211 52.321 20.2211Z" fill="#F37726"/>
<path d="M30.7695 92.175C30.8338 93.6556 30.4613 95.1225 29.6984 96.393C28.9402 97.6573 27.8227 98.6671 26.4884 99.2938C25.154 99.9205 23.6633 100.136 22.2062 99.9117C20.7491 99.6866 19.3935 99.0284 18.3156 98.0227C17.233 97.0151 16.47 95.7121 16.121 94.275C15.7765 92.8325 15.8615 91.3206 16.3656 89.9258C16.8711 88.5356 17.7755 87.3255 18.9656 86.4469C20.3516 85.4284 22.0493 84.9248 23.7666 85.0229C25.4838 85.121 27.1131 85.8146 28.3741 86.9844C29.8252 88.3328 30.6859 90.1991 30.7695 92.1781V92.175Z" fill="#9E9E9E"/>
<path d="M17.5829 18.2953C16.7198 18.3329 15.8653 18.1108 15.1297 17.6578C14.3892 17.2039 13.7997 16.5408 13.4357 15.7521C13.0717 14.9635 12.9494 14.0847 13.0844 13.2266C13.2141 12.3663 13.5967 11.5641 14.1836 10.9219C14.7654 10.2826 15.5237 9.83019 16.3625 9.62191C17.2009 9.4125 18.083 9.46263 18.8922 9.76566C19.7044 10.0649 20.4081 10.6007 20.9125 11.3039C21.5083 12.1268 21.8025 13.1298 21.7457 14.1441C21.689 15.1584 21.2847 16.1222 20.6008 16.8735C20.216 17.2981 19.751 17.6424 19.2324 17.8865C18.7139 18.1305 18.1522 18.2695 17.5797 18.2953H17.5829Z" fill="#616262"/>
</svg>
