<svg width="145" height="100" viewBox="0 0 145 100" fill="none" xmlns="http://www.w3.org/2000/svg">
<path d="M59.9987 65.1472C57.8219 76.9899 54.9506 85.596 51.3867 90.9647C48.6098 95.1014 45.5677 97.1698 42.2551 97.1698C41.3721 97.1698 40.2832 96.9031 38.991 96.3732V93.5184C39.6222 93.611 40.363 93.6605 41.2149 93.6605C42.7602 93.6605 44.0057 93.2322 44.9532 92.3775C46.0879 91.336 46.6558 90.1654 46.6558 88.8681C46.6558 87.982 46.2128 86.1638 45.331 83.4134L39.4644 65.1472H44.7158L48.9264 78.8086C49.8723 81.9104 50.2668 84.0757 50.109 85.3099C52.4119 79.1426 54.0207 72.4214 54.936 65.1472H59.9987ZM36.8109 88.7739H31.4654C31.2774 79.7271 30.7563 71.2202 29.9045 63.2515H29.8575L21.7186 88.7739H17.6485L9.55894 63.2515H9.51128C8.91103 70.9044 8.5334 79.4113 8.37592 88.7739H3.50195C3.81692 77.3875 4.60516 66.7138 5.86667 56.7502H12.4922L20.2043 80.2802H20.2516L28.011 56.7502H34.3505C35.7387 68.4193 36.5584 79.0963 36.8102 88.7739" fill="#00758F"/>
<path d="M131.155 88.7738H115.968V56.7502H121.078V84.8345H131.155V88.7738ZM92.9714 82.3676C91.6777 80.2802 91.0297 76.9304 91.0297 72.3115C91.0297 64.2478 93.4752 60.2133 98.3637 60.2133C100.92 60.2133 102.796 61.1783 103.995 63.1062C105.287 65.1946 105.935 68.5154 105.935 73.0697C105.935 81.198 103.49 85.2638 98.6012 85.2638C96.046 85.2638 94.1694 84.2995 92.9714 82.3676ZM111.991 89.5462L106.121 86.6436C106.644 86.2138 107.14 85.7501 107.589 85.2133C110.082 82.2753 111.329 77.9267 111.329 72.1694C111.329 61.5751 107.181 56.275 98.8857 56.275C94.8167 56.275 91.6456 57.6184 89.3749 60.3091C86.8815 63.2508 85.6365 67.583 85.6365 73.3076C85.6365 78.9366 86.7397 83.0661 88.9478 85.6893C90.9596 88.0603 94.0021 89.2475 98.0752 89.2475C99.5947 89.2475 100.989 89.0599 102.256 88.6846L109.901 93.1453L111.986 89.5459M83.4153 79.8974C83.4153 82.6132 82.4201 84.8428 80.4363 86.5873C78.4508 88.324 75.7835 89.1947 72.4434 89.1947C69.3193 89.1947 66.2917 88.1926 63.3589 86.2047L64.7309 83.4539C67.2547 84.7188 69.5386 85.3505 71.5892 85.3505C73.5128 85.3505 75.0184 84.9213 76.1076 84.0732C77.1943 83.2191 77.8456 82.0278 77.8456 80.5168C77.8456 78.6153 76.5231 76.99 74.0966 75.6265C71.8564 74.3939 67.3792 71.8204 67.3792 71.8204C64.9535 70.0462 63.7373 68.1425 63.7373 65.0059C63.7373 62.4117 64.6443 60.3149 66.4558 58.7196C68.2714 57.1211 70.6138 56.3218 73.4823 56.3218C76.4473 56.3218 79.1434 57.1152 81.5716 58.6963L80.3382 61.4446C78.2604 60.5613 76.2115 60.1179 74.1914 60.1179C72.5522 60.1179 71.2891 60.5125 70.4085 61.3063C69.523 62.0933 68.9755 63.106 68.9755 64.3403C68.9755 66.2369 70.3269 67.8819 72.8219 69.2718C75.0901 70.5051 79.6769 73.1283 79.6769 73.1283C82.1719 74.8993 83.4153 76.7875 83.4153 79.8974Z" fill="#F29111"/>
<path d="M134.799 88.7706H135.646V85.5124H136.754V84.8469H133.648V85.5124H134.799V88.7706ZM141.243 88.7706H142.041V84.8469H140.84L139.863 87.5214L138.8 84.8469H137.643V88.7706H138.398V85.7844H138.441L139.555 88.7706H140.13L141.243 85.7844V88.7706Z" fill="#F29111"/>
<path d="M88.6865 2.83077C87.3362 2.81064 86.1588 3.32062 85.5506 4.81491C84.5085 7.33143 87.0944 9.80656 87.9824 11.0838C88.6378 11.9725 89.4875 12.9803 89.9484 13.9847C90.2188 14.6428 90.2969 15.3405 90.5682 16.0358C91.1849 17.738 91.7625 19.6347 92.5746 21.222C92.9976 22.0347 93.4602 22.8866 94.0003 23.6182C94.312 24.0464 94.8503 24.2373 94.9666 24.9358C94.4282 25.7088 94.3861 26.8701 94.0777 27.8381C92.6892 32.2106 93.2284 37.6273 95.1973 40.8382C95.8133 41.8054 97.2819 43.9338 99.25 43.1193C100.986 42.4241 100.6 40.2186 101.102 38.2852C101.217 37.8176 101.14 37.5109 101.371 37.2018V37.2799C101.911 38.3617 102.453 39.404 102.954 40.491C104.152 42.385 106.233 44.3588 107.972 45.6731C108.895 46.3722 109.629 47.5698 110.787 47.9967V47.8796H110.711C110.478 47.5324 110.132 47.3768 109.823 47.1071C109.128 46.4102 108.359 45.5583 107.816 44.7849C106.196 42.619 104.766 40.2188 103.496 37.7428C102.877 36.5405 102.337 35.2263 101.835 34.0276C101.604 33.5655 101.604 32.8669 101.217 32.6354C100.637 33.4856 99.7902 34.2215 99.3664 35.263C98.6326 36.9287 98.5558 38.9789 98.2837 41.108C98.1303 41.1484 98.2078 41.1084 98.1303 41.1854C96.8968 40.8761 96.4724 39.5993 96.0081 38.5194C94.8505 35.7686 94.6559 31.3578 95.661 28.1846C95.9298 27.3736 97.0909 24.8201 96.6258 24.0463C96.3925 23.308 95.6211 22.8862 95.1973 22.3033C94.6969 21.5684 94.1538 20.6413 93.81 19.827C92.8832 17.661 92.4174 15.2611 91.4173 13.0952C90.9539 12.0874 90.1414 11.0429 89.4875 10.1162C88.7529 9.0712 87.9436 8.33629 87.364 7.09953C87.1727 6.67294 86.9023 5.97573 87.2099 5.51277C87.2857 5.20275 87.4424 5.08643 87.7516 5.00872C88.2504 4.58297 89.68 5.1236 90.1805 5.35591C91.6094 5.93461 92.8056 6.47884 94.0003 7.28985C94.5412 7.67757 95.1202 8.41309 95.8136 8.60819H96.6258C97.8601 8.87688 99.2502 8.68307 100.409 9.03277C102.453 9.69 104.305 10.6573 105.965 11.7022C111.019 14.914 115.186 19.4812 118.002 24.9358C118.466 25.8246 118.661 26.6374 119.084 27.5642C119.895 29.4639 120.9 31.399 121.709 33.2544C122.518 35.0732 123.291 36.9286 124.45 38.44C125.028 39.2511 127.344 39.6768 128.386 40.1027C129.156 40.4498 130.354 40.7597 131.049 41.1847C132.361 41.9959 133.67 42.9258 134.907 43.8172C135.523 44.2816 137.453 45.248 137.569 46.023L137.57 46.0238C134.481 45.9463 132.089 46.2552 130.083 47.1072C129.504 47.339 128.579 47.3388 128.5 48.0741C128.81 48.3831 128.848 48.8862 129.12 49.3137C129.582 50.0875 130.391 51.1304 131.125 51.6736C131.936 52.293 132.746 52.9098 133.596 53.4514C135.1 54.384 136.798 54.9234 138.263 55.8524C139.114 56.3933 139.961 57.0894 140.812 57.6713C141.235 57.9807 141.503 58.4845 142.046 58.6759V58.5581C141.773 58.2109 141.698 57.7084 141.429 57.3193C141.044 56.9353 140.657 56.5849 140.271 56.1996C139.151 54.6908 137.76 53.3762 136.258 52.2927C135.022 51.4392 132.32 50.2781 131.82 48.8508C131.82 48.8508 131.779 48.8101 131.741 48.772C132.591 48.6935 133.596 48.3834 134.406 48.1487C135.716 47.8015 136.912 47.8796 138.263 47.5324C138.881 47.3765 139.499 47.1824 140.119 46.9921V46.6414C139.42 45.9465 138.921 45.0161 138.188 44.3589C136.222 42.657 134.058 40.9944 131.82 39.5994C130.622 38.8253 129.078 38.3248 127.805 37.6654C127.344 37.4329 126.573 37.3184 126.301 36.9292C125.606 36.0783 125.219 34.9578 124.718 33.9502C123.6 31.8245 122.518 29.4648 121.555 27.217C120.861 25.7091 120.436 24.2012 119.587 22.8074C115.61 16.2284 111.29 12.245 104.652 8.33632C103.224 7.52283 101.527 7.17532 99.7143 6.74956C98.748 6.70905 97.7843 6.63352 96.8197 6.59549C96.2013 6.32348 95.5825 5.58753 95.0433 5.23948C93.6679 4.36937 90.9371 2.86432 88.6865 2.83077ZM98.207 12.3952C97.5524 12.3952 97.0903 12.4748 96.6244 12.5897V12.6671H96.6997C97.0114 13.2847 97.5525 13.7139 97.9351 14.2545C98.246 14.8738 98.5163 15.4904 98.8247 16.1104C98.8626 16.0724 98.8993 16.0323 98.8993 16.0323C99.4435 15.6471 99.7136 15.0284 99.7136 14.0984C99.4803 13.8256 99.4439 13.5568 99.2493 13.2848C99.0184 12.8987 98.5162 12.7052 98.207 12.3952Z" fill="#00758F"/>
</svg>
