<svg width="132" height="80" viewBox="0 0 132 80" fill="none" xmlns="http://www.w3.org/2000/svg">
<g clip-path="url(#clip0_110_286)">
<path d="M65.038 80.0001C64.5949 80.0001 64.1815 79.882 63.7975 79.6753L59.87 77.3425C59.2792 77.0174 59.5746 76.8994 59.7517 76.8404C60.5491 76.5746 60.6968 76.5154 61.5237 76.0432C61.6123 75.9839 61.7304 76.0135 61.819 76.0726L64.831 77.8739C64.9493 77.933 65.0968 77.933 65.1854 77.8739L76.9685 71.0522C77.0865 70.9932 77.1456 70.8749 77.1456 70.7274V57.1136C77.1456 56.9657 77.0868 56.8479 76.9685 56.7886L65.1854 49.9966C65.0674 49.9373 64.9197 49.9373 64.831 49.9966L53.0482 56.7886C52.9299 56.8477 52.8709 56.9953 52.8709 57.1134V70.7272C52.8709 70.8455 52.9299 70.9929 53.0482 71.0522L56.267 72.9126C58.0096 73.7985 59.1021 72.7649 59.1021 71.7314V58.2946C59.1021 58.1176 59.2498 57.9402 59.4565 57.9402H60.9625C61.1396 57.9402 61.3169 58.0879 61.3169 58.2946V71.7314C61.3169 74.0642 60.047 75.4228 57.8322 75.4228C57.1531 75.4228 56.6214 75.4228 55.1154 74.6843L52.0147 72.9126C51.2469 72.4698 50.7742 71.6427 50.7742 70.7568V57.143C50.7742 56.2572 51.2469 55.4301 52.0147 54.9873L63.7975 48.1655C64.5359 47.7521 65.5401 47.7521 66.2783 48.1655L78.0611 54.9873C78.8289 55.4301 79.3013 56.2572 79.3013 57.143V70.7568C79.3013 71.6427 78.8289 72.4698 78.0611 72.9126L66.2783 79.7343C65.8942 79.9117 65.4514 80.0001 65.0377 80.0001H65.038ZM68.6701 70.6388C63.5024 70.6388 62.4392 68.2763 62.4392 66.2682C62.4392 66.0909 62.5869 65.9138 62.7936 65.9138H64.3292C64.5063 65.9138 64.654 66.0319 64.654 66.2092C64.8903 67.7742 65.5695 68.542 68.6998 68.542C71.1803 68.542 72.2435 67.9809 72.2435 66.652C72.2435 65.8842 71.9481 65.3233 68.0796 64.9393C64.8607 64.6143 62.8526 63.9057 62.8526 61.3365C62.8526 58.9444 64.8607 57.5268 68.2273 57.5268C72.0072 57.5268 73.8678 58.8264 74.1042 61.661C74.1042 61.75 74.0745 61.8384 74.0152 61.927C73.9565 61.9861 73.8678 62.0451 73.7791 62.0451H72.2435C72.0958 62.0451 71.9481 61.927 71.9187 61.7793C71.5643 60.1553 70.6488 59.6236 68.2273 59.6236C65.5104 59.6236 65.1854 60.5687 65.1854 61.2773C65.1854 62.1337 65.5695 62.3995 69.2312 62.8719C72.8636 63.3446 74.5766 64.0238 74.5766 66.5633C74.547 69.1622 72.4206 70.6388 68.6701 70.6388Z" fill="#539E43"/>
<path d="M28.4783 26.7552C28.4783 26.2238 28.1829 25.7214 27.7105 25.4557L15.1892 18.2502C14.9823 18.1319 14.7462 18.0729 14.5101 18.0432H14.3918C14.1557 18.0432 13.9193 18.1319 13.7126 18.2502L1.1914 25.4557C0.718703 25.7214 0.423584 26.2235 0.423584 26.7552L0.453224 46.1276C0.453224 46.3933 0.600655 46.659 0.837006 46.7773C1.07336 46.925 1.36848 46.925 1.57544 46.7773L9.0173 42.5248C9.48974 42.2591 9.78486 41.757 9.78486 41.2255V32.1594C9.78486 31.6279 10.0802 31.1258 10.5527 30.8601L13.7126 29.0291C13.949 28.8814 14.2147 28.8221 14.4804 28.8221C14.7462 28.8221 15.0119 28.8814 15.2189 29.0291L18.3786 30.8601C18.8513 31.1258 19.1464 31.6276 19.1464 32.1594V41.2255C19.1464 41.757 19.4418 42.2591 19.9142 42.5248L27.3561 46.7773C27.5924 46.925 27.8875 46.925 28.1239 46.7773C28.3602 46.659 28.5077 46.3933 28.5077 46.1276L28.4783 26.7552ZM88.6629 0.0884832C88.4265 -0.0298199 88.1314 -0.0298199 87.9245 0.0884832C87.6884 0.23617 87.5407 0.472266 87.5407 0.738001V19.9335C87.5407 20.1106 87.452 20.2877 87.2749 20.406C87.0976 20.4944 86.9205 20.4944 86.7435 20.406L83.6132 18.6046C83.3837 18.4739 83.1241 18.4052 82.86 18.4052C82.596 18.4052 82.3364 18.4739 82.1069 18.6046L69.5857 25.8397C69.113 26.1055 68.8179 26.6075 68.8179 27.139V41.5797C68.8179 42.1111 69.1132 42.6135 69.5857 42.8792L82.1069 50.1144C82.3364 50.245 82.596 50.3137 82.86 50.3137C83.1241 50.3137 83.3837 50.245 83.6132 50.1144L96.1344 42.8792C96.6068 42.6135 96.9022 42.1114 96.9022 41.5797V5.58127C96.9022 5.02017 96.6068 4.51833 96.1344 4.25234L88.6629 0.0884832ZM87.5113 36.8253C87.5113 36.973 87.452 37.091 87.334 37.1501L83.0521 39.6306C82.9923 39.6598 82.9266 39.6749 82.86 39.6749C82.7935 39.6749 82.7278 39.6598 82.668 39.6306L78.3861 37.1501C78.2678 37.091 78.2088 36.9434 78.2088 36.8253V31.864C78.2088 31.7163 78.2678 31.5983 78.3861 31.5392L82.668 29.0584C82.7278 29.0293 82.7935 29.0141 82.86 29.0141C82.9266 29.0141 82.9923 29.0293 83.0521 29.0584L87.334 31.5392C87.452 31.598 87.5113 31.7459 87.5113 31.864V36.8253ZM130.331 31.7459C130.804 31.4802 131.07 30.9781 131.07 30.4464V26.9323C131.07 26.4008 130.774 25.8988 130.331 25.633L117.899 18.4275C117.669 18.2968 117.41 18.2281 117.146 18.2281C116.882 18.2281 116.622 18.2968 116.393 18.4275L103.871 25.6624C103.399 25.9281 103.104 26.4302 103.104 26.9619V41.4026C103.104 41.9341 103.399 42.4361 103.871 42.7019L116.304 49.7893C116.777 50.0551 117.338 50.0551 117.781 49.7893L125.311 45.5961C125.547 45.4778 125.695 45.2121 125.695 44.9463C125.695 44.6806 125.547 44.4149 125.311 44.2965L112.731 37.0614C112.494 36.914 112.347 36.6776 112.347 36.4119V31.8936C112.347 31.6279 112.494 31.3622 112.731 31.2439L116.659 28.9994C116.774 28.9271 116.907 28.8887 117.042 28.8887C117.178 28.8887 117.311 28.9271 117.426 28.9994L121.354 31.2439C121.59 31.3915 121.738 31.6276 121.738 31.8936V35.4374C121.738 35.7031 121.886 35.9688 122.122 36.0869C122.358 36.2346 122.653 36.2346 122.89 36.0869L130.331 31.7459Z" fill="#333333"/>
<path d="M116.954 31.067C116.997 31.0381 117.049 31.0227 117.101 31.0227C117.154 31.0227 117.205 31.0381 117.249 31.067L119.641 32.455C119.73 32.5137 119.789 32.6024 119.789 32.7207V35.4966C119.789 35.6147 119.73 35.7033 119.641 35.7623L117.249 37.1503C117.205 37.1792 117.154 37.1946 117.101 37.1946C117.049 37.1946 116.997 37.1792 116.954 37.1503L114.562 35.7623C114.473 35.7033 114.414 35.6147 114.414 35.4966V32.7207C114.414 32.6024 114.473 32.5137 114.562 32.455L116.954 31.067Z" fill="#539E43"/>
<path d="M49.416 18.4867C49.1865 18.356 48.9271 18.2874 48.663 18.2874C48.399 18.2874 48.1395 18.356 47.91 18.4867L35.4775 25.6623C35.0047 25.928 34.739 26.4301 34.739 26.9616V41.3434C34.739 41.8749 35.0344 42.377 35.4775 42.6427L47.91 49.8189C48.1395 49.9495 48.399 50.0182 48.663 50.0182C48.9271 50.0182 49.1865 49.9495 49.416 49.8189L61.8488 42.6427C62.3213 42.377 62.5873 41.8749 62.5873 41.3434V26.9618C62.5873 26.4303 62.2916 25.9283 61.8488 25.6625L49.416 18.4867Z" fill="url(#paint0_linear_110_286)"/>
</g>
<defs>
<linearGradient id="paint0_linear_110_286" x1="53.7281" y1="23.8361" x2="40.1002" y2="45.2485" gradientUnits="userSpaceOnUse">
<stop stop-color="#41873F"/>
<stop offset="0.3288" stop-color="#418B3D"/>
<stop offset="0.6352" stop-color="#419637"/>
<stop offset="0.9319" stop-color="#3FA92D"/>
<stop offset="1" stop-color="#3FAE2A"/>
</linearGradient>
<clipPath id="clip0_110_286">
<rect width="130.646" height="80" fill="white" transform="translate(0.423584)"/>
</clipPath>
</defs>
</svg>
