<svg width="90" height="100" viewBox="0 0 90 100" fill="none" xmlns="http://www.w3.org/2000/svg">
<g clip-path="url(#clip0_110_124)">
<path d="M13.9575 83.444C13.9575 79.4628 12.7968 77.4188 10.4745 77.3075C9.55292 77.264 8.63234 77.4118 7.77077 77.7418C7.06997 77.9882 6.59912 78.2291 6.35092 78.4746V87.9763C7.83647 88.8888 9.15594 89.3113 10.3057 89.2539C12.7393 89.0969 13.9575 87.1551 13.9575 83.4531V83.444ZM16.8227 83.6082C16.8227 85.6303 16.3373 87.3093 15.3627 88.6452C14.275 90.1563 12.7676 90.9338 10.8413 90.9767C9.38862 91.0223 7.89213 90.577 6.35183 89.6444V98.2803L3.86072 97.4116V78.2428C4.26952 77.7527 4.79603 77.3303 5.43295 76.9653C6.91576 76.1203 8.71794 75.6859 10.8377 75.6649L10.8742 75.6996C12.8123 75.6759 14.3052 76.4533 15.3454 78.0311C16.3236 79.4783 16.8054 81.3325 16.8054 83.6L16.8227 83.6082ZM32.0459 89.2776C32.0459 91.9904 31.7676 93.8675 31.2119 94.9132C30.6562 95.9589 29.5904 96.7929 28.02 97.4134C26.747 97.9034 25.371 98.1708 23.8937 98.2164L23.483 96.6816C24.985 96.4808 26.0426 96.2819 26.6558 96.082C27.863 95.6824 28.6907 95.0783 29.1469 94.2571C29.5119 93.5882 29.6917 92.3116 29.6917 90.4228V89.7886C27.988 90.546 26.2032 90.9201 24.3353 90.9201C23.1553 90.9375 22.0073 90.5363 21.095 89.7877C20.0484 88.9646 19.5255 87.9198 19.5255 86.6542V76.509L22.0167 75.675V85.8767C22.0167 86.9662 22.3762 87.8057 23.0961 88.3952C23.8161 88.9847 24.7386 89.2667 25.8902 89.2457C27.0418 89.2247 28.2563 88.7894 29.5557 87.9453V76.0437H32.0468V89.2794L32.0459 89.2776ZM41.7731 90.8443L40.9519 90.879C39.543 90.879 38.4443 90.5505 37.6596 89.8935C36.8748 89.2365 36.4852 88.3268 36.4852 87.1679V77.5748H34.7788V76.0418H36.4852V71.9721L38.9736 71.1052V76.04H41.7731V77.573H38.9809V87.0994C38.9809 88.0138 39.2318 88.6507 39.7328 89.0394C40.1635 89.3515 40.8479 89.5294 41.7795 89.5751V90.8526L41.7731 90.8443ZM56.8549 90.6436H54.3638V81.2449C54.3638 80.2886 54.1356 79.4655 53.6794 78.7775C53.4472 78.4086 53.1226 78.1068 52.7378 77.9021C52.353 77.6974 51.9214 77.5968 51.4857 77.6104C50.3433 77.6104 48.9152 78.199 47.2016 79.377V90.6463H44.7105V68.1752L47.2016 67.4087V77.6314C48.793 76.4999 50.5322 75.9314 52.421 75.9314C53.7405 75.9314 54.8091 76.3658 55.6266 77.2317C56.4442 78.0977 56.8558 79.1772 56.8558 80.4665V90.6345L56.8549 90.6436ZM70.097 83.0699C70.097 81.5405 69.7995 80.2776 69.2082 79.2784C68.5056 78.0603 67.4125 77.4188 65.9351 77.3622C63.204 77.5173 61.8417 79.4299 61.8417 83.0963C61.8417 84.7781 62.1154 86.1824 62.6976 87.3093C63.4276 88.7456 64.5226 89.4537 65.9844 89.43C68.7264 89.409 70.097 87.2929 70.097 83.079V83.0699ZM72.8345 83.0863C72.8345 85.2635 72.2651 87.0757 71.1281 88.522C69.878 90.1417 68.1488 90.9548 65.9452 90.9548C63.7597 90.9548 62.0561 90.1335 60.8352 88.522C59.7201 87.0748 59.1653 85.2645 59.1653 83.0863C59.1653 81.0396 59.7676 79.3177 60.9721 77.917C62.245 76.4296 63.9194 75.6842 65.9871 75.6842C68.0549 75.6842 69.7402 76.4305 71.0378 77.917C72.2423 79.3186 72.8445 81.0396 72.8445 83.0863H72.8345ZM87.106 90.6527H84.6057V80.7193C84.6057 79.6297 84.2708 78.7793 83.6001 78.1661C82.9295 77.5529 82.0361 77.26 80.9211 77.2837C79.7385 77.3047 78.6124 77.6834 77.5448 78.4152V90.6427H75.0537V78.105C76.4863 77.0848 77.8067 76.4187 79.0112 76.0975C80.1482 75.8073 81.151 75.6632 82.0151 75.6632C82.6064 75.6632 83.1621 75.7179 83.685 75.831C84.6632 76.0518 85.4589 76.4625 86.073 77.0648C86.7574 77.7309 87.0977 78.5302 87.0977 79.4646V90.6336L87.106 90.6527Z" fill="#646464"/>
<path d="M26.6886 9.64598C26.6886 5.46627 27.835 3.19249 34.1645 2.10975C38.4617 1.3734 43.9714 1.28135 49.1109 2.10975C53.1702 2.76479 56.5868 5.72092 56.5868 9.64598V23.4357C56.5868 27.4801 53.2697 30.793 49.1109 30.793H34.1645C29.0919 30.793 24.8167 35.0215 24.8167 39.802V46.418H19.6775C15.3305 46.418 12.7995 43.3536 11.7363 39.0656C10.3021 33.3049 10.363 29.8726 11.7363 24.3555C12.9269 19.5425 16.7314 17.003 21.0788 17.003H41.6404V15.1622H26.6883V9.64568L26.6886 9.64598Z" fill="url(#paint0_linear_110_124)"/>
<path d="M56.5871 53.7757C56.5871 57.9554 52.8768 60.0724 49.1113 61.1282C43.4461 62.7199 38.8995 62.4763 34.1648 61.1282C30.2107 60.0022 26.689 57.7011 26.689 53.7757V39.986C26.689 36.0174 30.0726 32.6287 34.1648 32.6287H49.1113C54.0897 32.6287 58.4591 28.4223 58.4591 23.4357V17.0037H64.0633C68.416 17.0037 70.4653 20.1654 71.5392 24.3561C73.0342 30.1763 73.1008 34.5291 71.5392 39.0662C70.0275 43.4733 68.4104 46.4187 64.0633 46.4187H41.6407V48.2596H56.5871V53.7757Z" fill="url(#paint1_linear_110_124)"/>
<path d="M30.4266 8.73104C30.4266 7.20434 31.6782 5.96973 33.2291 5.96973C34.774 5.96973 36.0315 7.20403 36.0315 8.73104C36.0315 10.2528 34.7743 11.4868 33.2291 11.4868C31.6788 11.4868 30.4266 10.2525 30.4266 8.73104ZM47.2444 54.6909C47.2444 53.1691 48.5015 51.9351 50.0468 51.9351C51.5971 51.9351 52.8492 53.1694 52.8492 54.6909C52.8492 56.2176 51.5977 57.4522 50.0468 57.4522C48.5018 57.4522 47.2444 56.2179 47.2444 54.6909Z" fill="white"/>
</g>
<defs>
<linearGradient id="paint0_linear_110_124" x1="56.5871" y1="18.9755" x2="10.6838" y2="18.6022" gradientUnits="userSpaceOnUse">
<stop stop-color="#366A96"/>
<stop offset="1" stop-color="#3679B0"/>
</linearGradient>
<linearGradient id="paint1_linear_110_124" x1="72.6853" y1="39.6182" x2="-18.1813" y2="39.6182" gradientUnits="userSpaceOnUse">
<stop stop-color="#FFC836"/>
<stop offset="1" stop-color="#FFE873"/>
</linearGradient>
<clipPath id="clip0_110_124">
<rect width="89.3617" height="100" fill="white" transform="translate(0.564819)"/>
</clipPath>
</defs>
</svg>
