<svg width="101" height="100" viewBox="0 0 101 100" fill="none" xmlns="http://www.w3.org/2000/svg">
<path d="M50.5648 44.375C54.5775 44.375 57.8304 41.1221 57.8304 37.1094C57.8304 33.0967 54.5775 29.8438 50.5648 29.8438C46.5521 29.8438 43.2992 33.0967 43.2992 37.1094C43.2992 41.1221 46.5521 44.375 50.5648 44.375Z" fill="#61DAFB"/>
<path d="M50.5648 63.8281C56.2679 69.375 61.8929 72.6563 66.4242 72.6563C67.9086 72.6563 69.3148 72.3437 70.4867 71.6406C74.5492 69.2969 76.0336 63.4375 74.6273 55.0781C74.3929 53.5938 74.0804 52.1094 73.6898 50.5469C75.2523 50.0781 76.6586 49.6094 78.0648 49.1406C85.9554 46.0938 90.3304 41.875 90.3304 37.2656C90.3304 32.5781 85.9554 28.3594 78.0648 25.3906C76.6586 24.8437 75.2523 24.375 73.6898 23.9844C74.0804 22.4219 74.3929 20.9375 74.6273 19.4531C75.9554 10.9375 74.4711 5 70.4086 2.65625C69.2367 1.95313 67.8304 1.64062 66.3461 1.64062C61.8929 1.64062 56.1898 4.92187 50.4867 10.4687C44.8617 4.92187 39.2367 1.64062 34.7054 1.64062C33.2211 1.64062 31.8148 1.95313 30.6429 2.65625C26.5804 5 25.0961 10.8594 26.5023 19.2188C26.7367 20.7031 27.0492 22.1875 27.4398 23.75C25.8773 24.2187 24.4711 24.6875 23.0648 25.1563C15.1742 28.2031 10.7992 32.4219 10.7992 37.0313C10.7992 41.7188 15.1742 45.9375 23.0648 48.9062C24.4711 49.4531 25.8773 49.9219 27.4398 50.3125C27.0492 51.875 26.7367 53.3594 26.5023 54.8437C25.1742 63.2031 26.6586 69.1406 30.6429 71.4063C31.8148 72.1094 33.2211 72.4219 34.7054 72.4219C39.2367 72.5781 44.8617 69.2969 50.5648 63.8281ZM46.1898 53.2812C47.5961 53.3594 49.0804 53.3594 50.5648 53.3594C52.0492 53.3594 53.5336 53.3594 54.9398 53.2812C53.5336 55.1562 52.0492 56.875 50.5648 58.5156C49.0804 56.875 47.5961 55.1562 46.1898 53.2812ZM36.5023 45.2344C37.2836 46.5625 37.9867 47.8125 38.8461 49.0625C36.4242 48.75 34.1586 48.3594 31.9711 47.8906C32.6742 45.7813 33.4554 43.5938 34.3929 41.4063C35.0179 42.6563 35.7211 43.9844 36.5023 45.2344ZM31.9711 26.4062C34.1586 25.9375 36.4242 25.5469 38.8461 25.2344C38.0648 26.4844 37.2836 27.7344 36.5023 29.0625C35.7211 30.3906 35.0179 31.6406 34.3929 32.9688C33.3773 30.7031 32.5961 28.5156 31.9711 26.4062ZM36.2679 37.1094C37.2836 35 38.3773 32.8906 39.6273 30.7813C40.7992 28.75 42.1273 26.7187 43.4554 24.6875C45.7992 24.5312 48.1429 24.4531 50.5648 24.4531C53.0648 24.4531 55.4086 24.5312 57.6742 24.6875C59.0804 26.7187 60.3304 28.75 61.5023 30.7813C62.7523 32.8906 63.8461 35 64.8617 37.1094C63.8461 39.2188 62.7523 41.3281 61.5023 43.4375C60.3304 45.4687 59.0023 47.5 57.6742 49.5313C55.3304 49.6875 52.9867 49.7656 50.5648 49.7656C48.0648 49.7656 45.7211 49.6875 43.4554 49.5313C42.0492 47.5 40.7992 45.4687 39.6273 43.4375C38.3773 41.3281 37.2836 39.2188 36.2679 37.1094ZM66.8148 32.8906L64.7054 28.9844C63.9242 27.6562 63.2211 26.4063 62.3617 25.1563C64.7836 25.4688 67.0492 25.8594 69.2367 26.3281C68.5336 28.5156 67.7523 30.7031 66.8148 32.8906ZM66.8148 41.3281C67.7523 43.5156 68.5336 45.7031 69.2367 47.8125C67.0492 48.2813 64.7836 48.6719 62.3617 48.9844C63.1429 47.7344 63.9242 46.4844 64.7054 45.1563C65.4086 43.9844 66.1117 42.6563 66.8148 41.3281ZM68.6117 68.4375C67.9867 68.8281 67.2054 68.9844 66.3461 68.9844C62.5179 68.9844 57.7523 65.8594 53.0648 61.1719C55.3304 58.75 57.5179 56.0156 59.7054 52.9688C63.3773 52.6563 66.8929 52.1094 70.1742 51.3281C70.5648 52.7344 70.7992 54.1406 71.0336 55.5469C72.1273 62.1875 71.2679 66.9531 68.6117 68.4375ZM72.6742 27.2656C81.4242 29.7656 86.6586 33.5938 86.6586 37.1094C86.6586 40.1563 83.0648 43.2031 76.7367 45.625C75.4867 46.0938 74.0804 46.5625 72.6742 46.9531C71.6586 43.75 70.4086 40.4688 68.8461 37.1094C70.4086 33.75 71.7367 30.4688 72.6742 27.2656ZM66.4242 5.23437C67.2836 5.23437 67.9867 5.39063 68.6898 5.78125C71.2679 7.26563 72.2054 11.9531 71.1117 18.6719C70.8773 20 70.5648 21.4062 70.2523 22.8906C66.9711 22.1875 63.4554 21.6406 59.7836 21.25C57.6742 18.2031 55.4086 15.4688 53.1429 13.0469C57.8304 8.4375 62.5961 5.23437 66.4242 5.23437ZM54.9398 20.9375C53.5336 20.8594 52.0492 20.8594 50.5648 20.8594C49.0804 20.8594 47.5961 20.8594 46.1898 20.9375C47.5961 19.0625 49.0804 17.3437 50.5648 15.7031C52.0492 17.3437 53.5336 19.1406 54.9398 20.9375ZM32.5179 5.78125C33.1429 5.39063 33.9242 5.23437 34.7836 5.23437C38.6117 5.23437 43.3773 8.35938 48.0648 13.0469C45.7992 15.4688 43.6117 18.2031 41.4242 21.25C37.7523 21.5625 34.2367 22.1094 30.9554 22.8906C30.5648 21.4844 30.3304 20.0781 30.0961 18.6719C29.0023 12.0312 29.8617 7.34375 32.5179 5.78125ZM28.4554 46.9531C19.7054 44.4531 14.4711 40.625 14.4711 37.1094C14.4711 34.0625 18.0648 31.0156 24.3929 28.5938C25.6429 28.125 27.0492 27.6563 28.4554 27.2656C29.4711 30.4688 30.7211 33.75 32.2836 37.1094C30.7211 40.4688 29.3929 43.8281 28.4554 46.9531ZM30.0961 55.5469C30.3304 54.2187 30.6429 52.8125 30.9554 51.3281C34.2367 52.0312 37.7523 52.5781 41.4242 52.9688C43.5336 56.0156 45.7992 58.75 48.0648 61.1719C43.3773 65.7813 38.6117 68.9844 34.7836 68.9844C33.9242 68.9844 33.2211 68.8281 32.5179 68.4375C29.8617 66.9531 29.0023 62.1875 30.0961 55.5469ZM26.8148 87.7344C28.5336 85.625 28.6117 83.2812 27.6742 80.9375C26.7367 78.5938 24.7836 77.5 22.3617 77.4219C19.4711 77.3437 16.5023 77.4219 13.6117 77.4219H13.0648V97.6563H15.4086V90H19.0804C19.5492 90 19.9398 90.1563 20.1742 90.5469L24.8617 97.8125C24.9398 97.9687 25.1742 98.2031 25.3304 98.2031H28.3773C26.5023 95.3125 24.7054 92.5781 22.8304 89.7656C24.4711 89.5313 25.8773 88.9844 26.8148 87.7344ZM15.4086 87.5781V79.8437H16.2679C18.0648 79.8437 19.9398 79.7656 21.7367 79.9219C23.8461 80 25.3304 81.6406 25.3304 83.75C25.3304 85.8594 23.6117 87.5 21.5023 87.5781C19.6273 87.6563 17.7523 87.5781 15.4086 87.5781ZM45.6429 88.5938C44.3929 83.125 39.3929 81.7188 35.5648 83.4375C32.5961 84.7656 31.2679 87.3438 31.1898 90.5469C31.1117 92.9688 31.8148 95.1563 33.6898 96.7969C35.7992 98.6719 38.3773 98.9063 41.0336 98.4375C42.5179 98.125 43.8461 97.4219 44.8617 96.3281C44.4711 95.7813 44.0804 95.2344 43.6898 94.7656C41.5023 96.6406 39.0804 97.2656 36.4242 96.0156C34.7054 95.1563 33.8461 93.0469 33.6898 91.4844H45.7992V90.4688C45.8773 89.7656 45.7992 89.1406 45.6429 88.5938ZM33.8461 89.8438C33.6117 87.5 35.9554 85 38.5336 85C41.5023 84.9219 43.3773 86.7188 43.4554 89.8438H33.8461ZM57.8304 83.0469C56.6586 82.8125 55.4086 82.7344 54.2367 82.8125C52.3617 82.9688 50.7211 83.8281 49.3929 85.2344C49.7836 85.7812 50.0961 86.3281 50.5648 86.9531C50.7211 86.7969 50.8773 86.6406 51.0336 86.5625C52.2836 85.3906 53.7679 84.7656 55.5648 84.9219C56.9711 85 58.2992 85.4687 58.6898 86.875C59.0023 87.9687 58.9242 89.1406 59.0023 90.3125C58.7679 90.3125 58.6898 90.2344 58.6117 90.1563C56.7367 88.5938 54.6273 88.2812 52.3617 88.8281C50.2523 89.375 48.9242 91.0156 48.7679 93.125C48.6117 95.5469 49.7054 97.3437 51.8148 98.2031C53.1429 98.75 54.6273 98.75 56.0336 98.4375C57.1273 98.2031 57.5961 97.5781 59.1586 96.7188V97.7344H61.3461C61.3461 94.6094 61.4242 90.7812 61.3461 87.1875C61.3461 84.9219 60.0179 83.5156 57.8304 83.0469ZM58.9242 92.8906C58.8461 93.125 58.9242 93.3594 58.9242 93.5938C58.9242 95.2344 58.5336 95.7813 56.9711 96.4063C55.8773 96.7969 54.7054 96.9531 53.5336 96.5625C52.2054 96.1719 51.2679 95 51.2679 93.6719C51.1898 92.3438 52.0492 91.0156 53.3773 90.625C55.1742 90 56.8148 90.3906 58.2992 91.4844C58.7679 91.875 59.0804 92.2656 58.9242 92.8906ZM71.1117 85.1563C73.1429 84.5313 75.0179 84.9219 76.4242 86.6406L76.6586 86.7969C77.2054 86.3281 77.6742 85.8594 78.2992 85.3125C78.0648 85.0781 77.9867 84.9219 77.8304 84.6875C75.5648 82.2656 71.1117 81.9531 68.3773 83.9063C64.5492 86.7188 64.6273 92.1875 66.5023 95.0781C68.2992 97.8125 70.8773 98.75 73.9242 98.3594C75.7211 98.125 77.2054 97.2656 78.3773 95.7812C77.8304 95.3125 77.2836 94.8437 76.7367 94.2969C76.5804 94.4531 76.5023 94.5312 76.4242 94.6875C74.3148 97.0312 70.7992 96.7969 68.9242 94.2969C67.8304 92.8125 67.5961 91.0938 67.9086 89.375C68.0648 87.4219 69.0804 85.8594 71.1117 85.1563ZM87.3617 95.7812C87.2054 95.8594 87.1273 95.9375 87.1273 95.9375C86.5023 96.4063 85.8773 96.4844 85.1742 96.25C84.4711 95.9375 84.3929 95.3125 84.3148 94.6875V85.7813C84.3148 85.625 84.3148 85.9375 84.3929 85.1563H87.3617V82.8125H84.2367V78.9063H81.8929V83.125H79.8617C79.7054 83.125 79.4711 83.2813 79.4711 83.4375C79.3929 83.9844 79.4711 84.375 79.4711 85.1563H81.9711V95.1563C81.9711 96.4063 82.2836 97.5 83.3773 98.125C84.5492 98.8281 86.8148 98.6719 87.8304 97.8125C87.9867 97.7344 88.0648 97.4219 88.0648 97.3438C87.8304 96.875 87.5961 96.3281 87.3617 95.7812Z" fill="#61DAFB"/>
</svg>
