<svg width="121" height="100" viewBox="0 0 121 100" fill="none" xmlns="http://www.w3.org/2000/svg">
<path fill-rule="evenodd" clip-rule="evenodd" d="M82.8552 4.0979L109.42 19.1254L109.711 29.5961L92.0656 20.9674L91.8717 28.4327L101.373 32.8924L101.761 44.0418L92.5504 40.5516L93.229 58.2937L82.9522 52.7675L82.8552 4.0979Z" fill="#A5AAAA" fill-opacity="0.392157"/>
<path fill-rule="evenodd" clip-rule="evenodd" d="M13.1545 22.9502L47.4064 3.4043L48.151 13.3634L37.4473 19.5995L38.0058 58.1329L28.7913 62.9728L27.209 25.8356L14.0853 33.3747L13.2476 23.3225L13.1545 22.9502Z" fill="#A5AAAA" fill-opacity="0.392157"/>
<path d="M57.9241 48.3521L65.1872 44.1509L72.3468 48.3521L65.1872 52.4864L57.9241 48.4509V48.3521Z" fill="#F6BD3A"/>
<path d="M36.1279 35.8992L65.1874 19.3942L86.81 31.6858L79.6222 44.1505L65.1874 35.8992L43.3962 48.2686L36.1279 35.8992Z" fill="#F6BD3A"/>
<path d="M57.9242 64.8575V56.6297L65.0883 52.4864L72.3469 48.3521V56.6297L65.1874 60.7419V68.9749L57.9242 73.1931V64.8575ZM57.9242 48.3521L50.6639 44.2386L43.3962 48.2682V40.0238L65.1874 27.6451V44.1502L57.9242 48.3521ZM79.5231 40.0242V35.8992L86.81 31.6859L86.8829 39.9375L79.6222 44.1505L79.5231 40.0242Z" fill="#EB8C23"/>
<path d="M50.6639 68.8226V44.2386L57.8252 40.2103L57.9243 48.3521L65.1874 52.4119V60.7419L57.9243 56.8759V73.1931L50.6639 68.8226ZM39.7098 46.1224L36.1279 43.9779V35.8996L43.3962 40.0245V48.2689L39.7098 46.1224ZM65.1874 35.8992V27.6455L79.5231 35.8992L79.6222 44.1505L65.1874 35.8992Z" fill="#E35A2B"/>
<path d="M10.7873 81.8821V97.6168H8.01892V81.8821H2.63647V79.1652H16.1701V81.8821H10.7873Z" fill="#EF6639"/>
<path d="M25.3336 87.6095C25.5753 88.4423 25.5822 89.5752 25.5577 89.6867L16.6193 92.3525C16.6956 93.0165 16.6666 92.7479 16.8824 93.2109C17.0989 93.695 17.3551 94.1065 17.6755 94.4017C17.9925 94.6962 18.3491 94.9265 18.7324 95.0905C19.1156 95.24 19.5334 95.3153 19.9415 95.3136C20.5188 95.3136 21.0602 95.2235 21.5329 95.0132C22.0294 94.8178 22.491 94.5599 22.9443 94.2156L24.5616 95.9278C23.9491 96.5134 23.2603 96.9602 22.4958 97.2789C21.7542 97.6169 20.8479 97.7512 19.7789 97.7512C18.9792 97.7512 18.2034 97.6165 17.4763 97.2789C16.7488 96.9602 16.1055 96.4889 15.569 95.8995C15.0141 95.2635 14.5874 94.5229 14.277 93.6293C13.95 92.7365 13.796 91.7159 13.796 90.5682C13.796 89.3711 13.9372 88.327 14.2428 87.4328C14.5484 86.5392 14.9565 85.8041 15.4803 85.184C16.0154 84.5808 16.6559 84.1154 17.3931 83.8088C18.1399 83.4846 18.9741 83.3247 19.8676 83.3247C20.8479 83.3247 21.6989 83.5156 22.434 83.8816C23.1712 84.2552 23.7771 84.7531 24.2498 85.3901C24.746 86.0275 25.0968 86.7443 25.3336 87.6095ZM22.7382 88.2165C22.7116 87.7621 22.3778 87.189 22.1002 86.8189C21.8664 86.4902 21.5039 86.2057 21.123 86.0624C20.7153 85.9046 20.1673 85.8338 19.6763 85.8593C18.7686 85.8949 17.7632 86.1977 17.2536 86.9066C16.744 87.6158 16.5993 88.7804 16.619 90.0454L22.7382 88.2165ZM35.3779 97.4819V89.638C35.3779 88.2158 35.1221 87.2408 34.6194 86.6794C34.1218 86.118 33.4227 85.8359 32.5211 85.8359C31.61 85.8359 30.9132 86.1532 30.4219 86.7446C29.9192 87.3806 29.6844 88.2362 29.6844 89.3594V97.4819H26.9654V83.6182H29.6844V84.944C30.0241 84.4337 30.5241 84.0384 31.149 83.7577C31.774 83.477 32.4438 83.3247 33.1589 83.3247C34.7823 83.3247 36.0091 83.8475 36.8388 84.8926C37.6726 85.9222 38.0949 87.4704 38.0949 89.5355V97.4819H35.3779ZM49.2565 93.8341C49.2565 94.6003 49.1149 95.24 48.8287 95.7787C48.5355 96.2779 48.1506 96.7109 47.6751 97.0351C47.1911 97.3421 46.6483 97.5713 46.0234 97.7232C45.3984 97.8441 44.7521 97.9283 44.065 97.9283C43.1106 97.9283 42.1591 97.7388 41.2272 97.407C40.2784 97.0752 39.4611 96.6657 38.7478 96.1467L39.9939 94.1076C40.6471 94.5609 41.3173 94.8986 42.0182 95.1251C42.7129 95.3516 43.3889 95.4669 44.028 95.4669C45.7167 95.4669 46.5651 94.9569 46.5651 93.9363C46.5651 93.4243 46.2833 92.9744 45.7164 92.6616C45.1433 92.3546 44.3567 91.9979 43.3396 91.615C42.6003 91.3343 41.9781 91.0467 41.4671 90.7546C40.9472 90.4822 40.5142 90.1404 40.1948 89.8051C39.8751 89.4737 39.6396 89.1225 39.4877 88.6892C39.3589 88.2918 39.283 87.8022 39.283 87.2653C39.283 86.6303 39.3979 86.0931 39.6272 85.6325C39.8502 85.1567 40.1831 84.7448 40.6088 84.4462C41.0183 84.1157 41.5251 83.8823 42.1024 83.7204C42.6887 83.5668 43.3257 83.4849 44.0146 83.4849C44.8829 83.4849 45.7313 83.6303 46.5592 83.9106C47.364 84.1913 48.096 84.5618 48.7089 85.0148L47.5225 87.0885C46.9611 86.7035 46.3873 86.4028 45.8013 86.1974C45.2151 86.0154 44.5901 85.9225 43.9262 85.9225C43.2626 85.9225 42.7716 86.0379 42.4843 86.2799C42.1787 86.5157 42.0341 86.8185 42.0341 87.1952C42.0341 87.3547 42.0641 87.5353 42.1401 87.6555C42.2053 87.8201 42.3324 87.9886 42.5354 88.1209C42.7153 88.298 42.9884 88.4427 43.3074 88.6233C43.6268 88.7804 44.0657 88.9861 44.5843 89.1909C45.367 89.4733 46.043 89.7837 46.6234 90.0295C47.1917 90.3203 47.6945 90.6144 48.0901 90.9587C48.4855 91.3033 48.7762 91.7262 48.9647 92.1792C49.1667 92.6322 49.2565 93.1947 49.2565 93.8341ZM61.8976 90.6327C61.8976 91.7804 61.7443 92.8073 61.4138 93.7126C61.1066 94.6185 60.6712 95.3723 60.1046 96.0204C59.538 96.6222 58.8751 97.1062 58.1206 97.4249C57.3697 97.7446 56.5345 97.928 55.6357 97.928C54.7674 97.928 53.9518 97.7332 53.2119 97.3904C52.4723 97.0524 51.8339 96.588 51.2856 95.9275C50.7491 95.3132 50.3102 94.5602 50.0154 93.657C49.6977 92.7883 49.5503 91.8177 49.5503 90.7083C49.5503 89.5762 49.7039 88.5673 50.0213 87.6741C50.3413 86.7809 50.7695 86.0334 51.3229 85.4084C51.8895 84.7831 52.5293 84.2998 53.2817 83.98C54.0337 83.6551 54.835 83.4842 55.7238 83.4842C56.5925 83.4842 57.4204 83.6548 58.1783 83.9952C58.9148 84.3343 59.5932 84.8346 60.1436 85.4409C60.6922 86.061 61.1238 86.8116 61.4321 87.6924C61.7456 88.5735 61.8976 89.5755 61.8976 90.6327ZM59.1433 90.7083C59.1433 89.2931 58.8426 88.1644 58.2177 87.3112C57.5924 86.505 56.7195 86.0696 55.6216 86.0696C54.5764 86.0696 53.7599 86.505 53.1791 87.3112C52.5808 88.1644 52.2873 89.2561 52.2873 90.6327C52.2873 92.1792 52.6115 93.3186 53.2485 94.122C53.8735 94.9252 54.7163 95.3498 55.7414 95.3498C56.2524 95.3498 56.7195 95.2235 57.1525 94.969C57.562 94.7145 57.9311 94.3886 58.2339 93.9912C58.5187 93.5486 58.748 93.0852 58.9137 92.5207C59.0781 91.9524 59.1433 91.3588 59.1433 90.7083ZM70.6647 86.6417C70.3557 86.5143 70.0532 86.3845 69.7342 86.2892C69.4183 86.1932 69.0278 86.1549 68.5689 86.1549C67.7019 86.1549 67.0383 86.4494 66.5618 87.0602C66.0937 87.6485 65.852 88.5521 65.852 89.7026V97.6172H63.1347V83.7708H65.852V85.097C66.1637 84.6378 66.6098 84.2611 67.1588 83.9431C67.7078 83.6482 68.3265 83.4846 69.015 83.4846C69.5761 83.4846 70.0418 83.5419 70.4109 83.6358C70.7735 83.7259 71.0935 83.8816 71.3535 84.0636L70.6647 86.6417Z" fill="#EF6639"/>
<path d="M75.2026 81.8821V86.7156H80.5229V89.4325H75.2026V97.6168H72.458V79.1648H84.3588V81.8821H75.2026ZM84.8074 97.6172V79.8167L87.5246 78.3883V97.6168H84.8074V97.6172ZM101.378 90.6327C101.378 91.7804 101.248 92.8072 100.915 93.7125C100.588 94.6185 100.153 95.3722 99.5922 96.0203C99.0305 96.6221 98.379 97.1062 97.6328 97.4249C96.8497 97.7446 96.0466 97.9279 95.1403 97.9279C94.2478 97.9279 93.4378 97.7332 92.7161 97.3903C91.9683 97.0523 91.3264 96.5879 90.7899 95.9274C90.253 95.3132 89.8128 94.5602 89.4961 93.6569C89.2016 92.7882 89.0314 91.8177 89.0314 90.7083C89.0314 89.5762 89.2078 88.5673 89.5148 87.6741C89.8217 86.7808 90.2657 86.0333 90.8351 85.4084C91.3944 84.7831 92.0329 84.2997 92.7621 83.98C93.5372 83.6551 94.3441 83.4842 95.228 83.4842C96.0967 83.4842 96.9247 83.6547 97.6653 83.9952C98.4228 84.3342 99.1026 84.8345 99.6471 85.4408C100.196 86.0609 100.618 86.8116 100.915 87.6924C101.254 88.5735 101.378 89.5755 101.378 90.6327ZM98.6496 90.7083C98.6496 89.293 98.3237 88.1643 97.7216 87.3112C97.0735 86.505 96.2241 86.0696 95.1261 86.0696C94.0807 86.0696 93.2586 86.505 92.6602 87.3112C92.0784 88.1643 91.7849 89.2561 91.7849 90.6327C91.7849 92.1792 92.0926 93.3186 92.7531 94.122C93.3673 94.9251 94.2205 95.3498 95.2508 95.3498C95.7521 95.3498 96.2238 95.2234 96.6336 94.969C97.0635 94.7145 97.4118 94.3885 97.7402 93.9911C98.0226 93.5485 98.2519 93.0851 98.4231 92.5206C98.5588 91.9523 98.6496 91.3588 98.6496 90.7083ZM114.796 97.6172H112.472L110.599 90.6327C110.443 90.1055 110.322 89.5748 110.206 89.0068C110.069 88.4464 109.973 88.0059 109.874 87.6741C109.784 88.1222 109.688 88.569 109.585 89.0141C109.451 89.5755 109.305 90.1365 109.189 90.6703L107.334 97.6172H104.994L101.211 83.7708H103.892L105.547 90.4935C105.674 91.0463 105.8 91.6146 105.919 92.1792C106.046 92.7475 106.137 93.2008 106.236 93.5388L106.58 92.1792C106.697 91.6146 106.837 91.0463 106.99 90.4935L108.847 83.7708H111.009L112.907 90.5305C113.042 91.0712 113.159 91.6153 113.298 92.1788C113.437 92.7471 113.546 93.2005 113.624 93.5385C113.721 93.2005 113.832 92.7416 113.948 92.1681C114.058 91.6143 114.174 91.046 114.313 90.4932L115.969 83.7704H118.648L114.796 97.6172Z" fill="#A6A7A9"/>
</svg>
